<svg width="1440" height="1024" viewBox="0 0 1440 1024" fill="none" xmlns="http://www.w3.org/2000/svg">
<g clip-path="url(#clip0_28_370)">
<rect width="1440" height="1024" fill="#0C0C0C"/>
<path d="M767.502 505.365C796.029 495.778 825.918 489.56 853.328 477.573C880.738 465.586 906.5 445.82 911.631 422.984C916.104 403.103 903.937 385.05 886.265 373.105C837.984 340.353 746.294 351.876 697.201 396.803C678.127 414.258 664.879 435.707 641.646 449.724C612.123 467.552 572.347 469.769 543.918 488.707C516.065 507.252 506.787 536.869 506.931 562.779C507.042 583.96 512.375 605 527.645 620.703C538.118 631.477 554.698 639.671 573.767 637.503C599.761 634.548 619.801 614.418 632.874 595.591C664.152 550.508 706.639 525.825 767.502 505.365Z" stroke="#B18F40" stroke-opacity="0.25" stroke-width="3" stroke-miterlimit="10"/>
<path d="M491.363 573.756C491.418 595.717 497.381 617.433 513.469 633.512C524.502 644.533 541.682 652.79 561.44 650.841C589.156 648.123 611.518 628.314 626.864 609.167C636.413 597.149 647.292 585.678 659.353 574.91C665.117 569.794 671.073 564.93 677.221 560.318C703.689 540.374 735.152 526.616 773.16 514.105C786.049 509.858 799.313 505.966 812.238 501.837C830.069 496.188 849.189 488.982 862.542 480.577C864.663 479.246 866.663 477.951 868.63 476.618C871.45 474.686 874.179 472.668 877.06 470.467C885.577 464.024 893.734 457.302 901.499 450.328C914.812 438.105 924.93 423.733 926.164 409.172C927.952 388.345 913.566 370.761 893.56 359.797C879.928 352.385 863.896 347.589 846.517 345.726C828.558 343.761 809.408 344.813 789.949 347.765C752.891 353.397 715.583 366.918 688.649 389.474C667.798 406.905 652.522 428.679 628.004 443.546C596.777 462.512 555.799 466.547 529.079 488.001C518.677 496.329 512.096 506.43 506.522 517.213C497.223 535.24 491.374 555.161 491.363 573.756Z" stroke="#B18F40" stroke-opacity="0.25" stroke-width="3" stroke-miterlimit="10"/>
<path d="M475.75 584.745C475.689 607.505 482.321 629.887 499.246 646.323C510.852 657.595 528.618 665.939 549.067 664.208C578.514 661.716 603.208 642.215 620.825 622.746C631.919 610.437 644.021 598.616 657.038 587.374C663.308 581.97 669.707 576.792 676.234 571.839C704.715 550.032 738.343 535.942 778.822 522.771C793.738 517.941 809.243 513.264 824.087 508.237C844.205 501.384 866.925 491.533 878.88 480.622C880.76 478.903 882.426 477.28 884.013 475.617C886.271 473.224 888.4 470.773 890.887 468.052C897.49 460.788 906.811 452.124 915.564 443.407C929.982 428.908 941.215 411.893 940.752 395.315C940.149 373.591 923.291 356.439 900.92 346.431C885.672 339.695 868.228 335.73 849.674 334.782C830.428 333.752 810.27 336.035 789.498 339.515C749.908 346.143 709.854 359.186 680.084 382.193C657.439 399.664 640.092 421.763 614.211 437.56C581.279 457.665 539.11 463.747 514.028 487.47C503.709 497.237 498.399 508.797 492.957 521.036C483.991 541.42 475.791 563.708 475.75 584.745Z" stroke="#B18F40" stroke-opacity="0.25" stroke-width="3" stroke-miterlimit="10"/>
<path d="M460.089 595.741C459.976 619.297 467.29 642.35 484.999 659.15C497.165 670.671 515.546 679.084 536.668 677.577C567.875 675.295 594.878 656.172 614.773 636.331C627.386 623.749 640.718 611.567 654.717 599.832C661.473 594.168 668.301 588.679 675.201 583.366C705.689 559.706 741.523 545.271 784.412 531.563C801.375 526.144 819.106 520.704 835.842 514.731C858.241 506.725 884.627 494.16 895.089 480.748C896.62 478.785 898.01 476.771 899.252 474.719C900.979 471.864 902.509 468.979 904.604 465.738C910.131 457.109 920.007 446.741 929.452 436.552C944.981 419.791 957.439 400.133 955.146 381.531C952.398 358.915 932.875 342.179 908.087 333.134C891.253 327.061 872.411 323.906 852.676 323.855C832.139 323.785 811.018 327.299 788.871 331.286C746.758 338.915 703.963 351.494 671.352 374.94C647.091 392.381 627.635 414.793 600.434 431.483C565.795 452.726 522.544 461 499.012 486.857C488.777 498.103 484.752 511.06 479.479 524.703C470.734 547.614 460.269 572.261 460.089 595.741Z" stroke="#B18F40" stroke-opacity="0.25" stroke-width="3" stroke-miterlimit="10"/>
<path d="M444.472 606.803C444.276 631.163 452.204 654.881 470.755 672.043C483.49 683.829 502.457 692.381 524.312 691.024C557.225 689.035 586.479 670.143 608.754 649.985C623.182 636.957 637.73 624.354 652.441 612.349C659.711 606.416 666.987 600.6 674.27 594.9C706.821 569.319 744.813 554.634 790.13 540.295C809.146 534.287 829.123 528.1 847.753 521.164C872.478 511.952 902.495 496.747 911.469 480.807C912.763 478.493 913.831 476.134 914.664 473.751C915.849 470.429 916.782 467.111 918.476 463.359C922.989 453.306 933.407 441.291 943.565 429.647C960.229 410.615 973.982 388.345 969.792 367.679C965.031 344.158 942.701 327.826 915.486 319.767C897.073 314.348 876.822 311.999 855.881 312.851C834.063 313.719 811.878 318.446 788.429 322.982C743.802 331.608 698.277 343.735 662.817 367.625C636.868 385.085 615.309 407.779 586.801 425.399C550.458 447.792 506.209 458.358 484.103 486.261C473.995 499.032 471.161 513.344 466.058 528.434C457.427 553.87 444.686 580.851 444.472 606.803Z" stroke="#B18F40" stroke-opacity="0.25" stroke-width="3" stroke-miterlimit="10"/>
<path d="M428.854 617.908C428.586 643.078 437.163 667.462 456.568 685.016C469.877 697.044 489.466 705.669 511.995 704.546C546.663 702.812 578.203 684.214 602.815 663.693C618.638 650.516 634.499 637.498 650.251 624.918C658.02 618.709 665.716 612.597 673.338 606.584C707.914 579.156 748.164 564.095 795.961 549.125C817.019 542.522 839.255 535.578 859.772 527.69C886.793 517.336 920.497 499.442 927.973 480.967C929.038 478.284 929.789 475.57 930.215 472.864C930.683 468.938 931.445 464.998 932.499 461.064C935.954 449.621 946.886 435.895 957.819 422.816C975.614 401.521 990.79 376.615 984.568 353.914C977.842 329.439 952.632 313.563 923.07 306.48C903.07 301.727 881.403 300.179 859.238 301.917C836.132 303.749 812.925 309.693 788.152 314.758C740.985 324.387 692.749 336.073 654.334 360.374C626.706 377.858 602.974 400.906 573.115 419.366C535.024 442.962 489.847 455.889 469.096 485.765C459.143 500.084 457.496 515.739 452.545 532.258C444.225 560.105 429.138 589.493 428.854 617.908Z" stroke="#B18F40" stroke-opacity="0.25" stroke-width="3" stroke-miterlimit="10"/>
<path d="M413.174 629.01C412.862 654.976 422.059 680.041 442.313 697.974C456.189 710.253 476.385 718.972 499.626 718.031C536.033 716.572 569.851 698.238 596.815 677.399C614.045 664.078 631.198 650.651 648.001 637.484C656.26 630.996 664.427 624.568 672.425 618.2C709.017 588.896 751.439 573.573 801.683 557.975C824.793 550.807 849.275 543.101 871.701 534.253C901.06 522.68 938.429 502.128 944.383 481.148C945.212 478.093 945.639 475.033 945.656 472.017C945.514 467.653 945.765 463.235 946.406 458.794C948.816 445.966 960.292 430.552 971.963 416.025C990.883 392.451 1007.5 364.862 999.237 340.161C990.747 314.735 962.519 299.309 930.451 293.185C908.888 289.095 885.811 288.354 862.422 291.001C838.072 293.76 813.823 300.966 787.739 306.526C738.042 317.164 687.1 328.422 645.783 353.127C616.491 370.615 590.58 394.001 559.397 413.35C519.615 438.051 473.684 453.361 454.153 485.202C444.404 501.088 443.961 518.065 439.109 536.022C431.019 566.45 413.599 598.145 413.174 629.01Z" stroke="#B18F40" stroke-opacity="0.25" stroke-width="3" stroke-miterlimit="10"/>
<path d="M397.582 640.136C397.211 666.916 407.036 692.654 428.122 710.945C442.568 723.491 463.376 732.318 487.302 731.575C525.448 730.392 561.552 712.312 590.831 691.183C609.469 677.717 627.923 663.871 645.768 650.127C654.53 643.365 663.142 636.616 671.502 629.911C710.129 598.724 754.78 583.106 807.459 566.876C832.625 559.116 859.318 550.676 883.681 540.852C915.316 528.143 956.379 504.915 960.836 481.375C961.431 477.937 961.538 474.523 961.155 471.196C960.703 466.506 959.841 461.884 960.369 456.574C961.728 442.346 973.747 425.243 986.165 409.257C1006.22 383.419 1024.37 353.126 1013.97 326.446C1003.69 300.061 972.398 285.082 937.883 280.005C914.762 276.582 890.278 276.639 865.658 280.174C840.009 283.828 814.793 292.177 787.334 298.316C735.097 309.958 681.473 320.797 637.219 345.907C606.247 363.485 578.244 387.135 545.679 407.365C504.183 433.202 457.515 450.955 439.154 484.703C429.648 502.17 430.326 520.453 425.611 539.861C417.718 572.727 398.052 606.799 397.582 640.136Z" stroke="#B18F40" stroke-opacity="0.25" stroke-width="3" stroke-miterlimit="10"/>
<path d="M381.95 651.252C381.507 678.843 391.969 705.242 413.896 723.921C428.916 736.708 450.328 745.654 474.954 745.089C514.851 744.186 553.221 726.366 584.821 704.856C604.875 691.236 624.622 676.98 643.517 662.65C652.782 655.614 661.799 648.56 670.568 641.491C711.286 608.453 758.083 592.524 813.254 575.669C840.481 567.333 869.444 558.099 895.693 547.347C929.68 533.424 974.424 507.515 977.329 481.486C977.687 477.669 977.469 473.908 976.679 470.28C975.684 465.122 974.223 460.066 974.358 454.234C974.671 438.621 987.271 419.882 1000.36 402.372C1021.56 374.288 1041.34 341.281 1028.69 312.612C1016.67 285.244 982.314 270.738 945.405 266.596C920.726 263.842 894.828 264.699 868.964 269.125C841.993 273.811 815.723 283.419 786.924 290.068C732.208 302.736 675.906 313.171 628.688 338.663C596.05 356.309 565.832 380.219 532 401.344C488.775 428.339 441.46 448.499 424.189 484.18C414.934 503.217 416.729 522.791 412.138 543.645C404.527 579.046 382.504 615.456 381.95 651.252Z" stroke="#B18F40" stroke-opacity="0.25" stroke-width="3" stroke-miterlimit="10"/>
<path d="M366.343 662.42C365.857 690.805 376.951 717.89 399.723 736.932C415.301 749.981 437.324 759.035 462.642 758.658C504.291 758.036 544.942 740.455 578.932 718.641C600.402 704.866 621.442 690.201 641.383 675.31C651.161 667.994 660.617 660.626 669.752 653.207C712.445 618.264 761.499 602.065 819.076 584.553C848.364 575.642 879.569 565.631 907.695 553.921C943.983 538.87 992.409 510.281 993.812 481.675C993.923 477.477 993.38 473.37 992.193 469.44C990.668 463.819 988.595 458.324 988.35 451.975C987.604 434.972 1000.73 414.485 1014.6 395.594C1036.94 365.235 1058.26 329.463 1043.47 298.875C1029.7 270.46 992.2 256.411 952.944 253.245C926.717 251.153 899.404 252.814 872.292 258.15C844.011 263.767 816.736 274.612 786.607 281.801C729.307 295.446 670.32 305.488 620.17 331.359C585.902 349.046 553.49 373.25 518.334 395.264C473.387 423.406 425.459 446.011 409.238 483.597C400.316 504.26 403.13 525.132 398.7 547.406C391.273 585.347 366.962 624.105 366.343 662.42Z" stroke="#B18F40" stroke-opacity="0.25" stroke-width="3" stroke-miterlimit="10"/>
<path d="M350.639 673.498C350.101 702.687 361.811 730.439 385.411 749.864C401.568 763.169 424.202 772.331 450.22 772.132C493.601 771.797 536.525 754.466 572.887 732.328C595.804 718.335 617.901 703.487 639.078 687.854C649.349 680.269 659.286 672.566 668.813 664.825C713.547 628.014 764.809 611.526 824.837 593.361C856.166 583.88 889.653 573.145 919.663 560.467C958.296 544.251 1010.41 512.93 1010.25 481.846C1010.12 477.259 1009.25 472.797 1007.67 468.559C1005.59 462.48 1002.93 456.554 1002.27 449.69C1000.5 431.295 1014.14 409.11 1028.78 388.764C1052.24 356.141 1075.21 317.608 1058.16 285.092C1042.73 255.68 1002.15 242.17 960.387 240.031C932.599 238.579 903.85 241.023 875.459 247.25C845.878 253.828 817.581 265.889 786.116 273.605C726.276 288.254 664.653 297.919 611.52 324.153C575.66 341.894 541.067 366.395 504.567 389.304C457.861 418.579 409.406 443.622 394.206 483.129C385.649 505.335 389.451 527.546 385.127 551.313C378.006 591.652 351.398 632.77 350.639 673.498Z" stroke="#B18F40" stroke-opacity="0.25" stroke-width="3" stroke-miterlimit="10"/>
<path d="M335.036 684.577C334.434 714.565 346.777 743.004 371.214 762.802C387.945 776.348 411.186 785.643 437.891 785.617C483.044 785.557 528.217 768.468 566.932 746.013C591.268 731.873 614.625 716.646 636.85 700.431C647.625 692.571 657.998 684.557 667.846 676.452C714.616 637.758 768.098 620.986 830.556 602.173C863.958 592.12 899.68 580.619 931.616 566.96C972.569 549.571 1028.34 515.6 1026.69 481.953C1026.3 476.99 1025.12 472.186 1023.16 467.647C1020.53 461.096 1017.27 454.735 1016.23 447.354C1013.4 427.569 1027.6 403.754 1042.95 381.9C1067.65 347.021 1092.2 305.68 1072.86 271.278C1055.75 240.815 1012.03 227.829 967.811 226.683C938.508 225.912 908.375 229.175 878.763 236.323C847.898 243.841 818.57 257.131 785.771 265.372C723.394 281.041 659.131 290.314 603.028 316.914C565.461 334.735 528.702 359.473 490.828 383.253C442.43 413.698 393.446 441.098 379.184 482.576C371 506.356 375.787 529.891 371.646 555.047C364.752 597.953 335.855 641.421 335.036 684.577Z" stroke="#B18F40" stroke-opacity="0.25" stroke-width="3" stroke-miterlimit="10"/>
<path d="M319.342 695.752C318.689 726.545 331.707 755.592 356.93 775.81C374.231 789.623 398.076 799.037 425.538 799.195C472.411 799.458 519.865 782.569 560.944 759.802C586.7 745.49 611.338 729.863 634.65 713.054C645.916 704.915 656.746 696.584 666.963 688.131C715.749 647.56 771.452 630.504 836.352 611.049C871.804 600.416 909.811 588.165 943.619 573.534C986.881 554.966 1046.37 518.288 1043.23 482.173C1042.56 476.795 1041 471.621 1038.57 466.772C1035.41 459.757 1031.54 452.957 1030.11 445.054C1026.24 423.873 1041.01 398.327 1057.07 375.066C1082.9 337.922 1109.14 293.783 1087.5 257.504C1068.71 225.986 1021.78 213.506 975.195 213.384C944.354 213.271 912.804 217.332 881.931 225.386C849.778 233.869 819.441 248.38 785.293 257.144C720.387 273.821 653.461 282.733 594.391 309.674C555.175 327.582 516.233 352.577 477.073 377.258C427.051 408.845 377.564 438.65 364.255 482.039C356.457 507.397 362.224 532.241 358.215 558.833C351.489 604.261 320.296 650.089 319.342 695.752Z" stroke="#B18F40" stroke-opacity="0.25" stroke-width="3" stroke-miterlimit="10"/>
<path d="M303.679 706.87C302.987 738.471 316.59 768.227 342.635 788.774C360.51 802.827 384.95 812.37 413.062 812.689C461.789 813.281 511.45 796.606 554.927 773.485C582.083 759.018 607.989 742.998 632.372 725.594C644.141 717.18 655.407 708.539 665.994 699.738C716.817 657.284 774.724 639.965 842.031 619.894C879.556 608.689 919.77 595.648 955.504 580.075C1001.1 560.339 1064.27 521.003 1059.54 482.31C1058.69 476.557 1056.87 471.035 1054.13 465.874C1050.41 458.402 1045.98 451.126 1044.12 442.758C1039.19 420.187 1054.52 392.94 1071.33 368.22C1098.33 328.758 1126.24 281.856 1102.28 243.692C1081.83 211.118 1031.8 199.203 982.729 200.051C950.353 200.6 917.388 205.463 885.253 214.431C851.787 223.871 820.448 239.594 784.978 248.887C717.531 266.57 647.892 275.104 585.912 302.392C545.048 320.387 503.923 345.64 463.439 371.21C411.623 403.958 361.717 436.079 349.25 481.524C341.879 508.449 348.585 534.615 344.713 562.658C338.219 610.563 304.737 658.741 303.679 706.87Z" stroke="#B18F40" stroke-opacity="0.25" stroke-width="3" stroke-miterlimit="10"/>
<path d="M288.022 717.995C287.302 750.369 301.478 780.869 328.441 801.764C346.874 816.079 371.93 825.745 400.749 826.231C451.08 827.092 503.084 810.639 548.874 787.254C577.429 772.632 604.611 756.217 630.079 738.213C642.364 729.53 654.062 720.562 665.019 711.415C717.87 667.088 778.006 649.475 847.794 628.709C887.353 616.944 929.822 603.13 967.467 586.598C1015.38 565.673 1082.26 523.649 1075.98 482.456C1074.86 476.333 1072.7 470.48 1069.56 465.034C1065.31 457.094 1060.25 449.429 1058.03 440.498C1052.05 416.526 1067.86 387.568 1085.46 361.43C1113.53 319.696 1143.23 269.965 1116.95 229.941C1094.84 196.295 1041.65 184.904 990.131 186.786C956.212 187.974 921.813 193.625 888.397 203.5C853.72 213.906 821.336 230.878 784.53 240.698C714.55 259.375 642.298 267.606 577.312 295.181C534.812 313.267 491.5 338.763 449.683 365.231C396.159 399.13 345.783 433.655 334.221 481.033C327.272 509.509 334.89 537.013 331.196 566.496C324.954 616.873 289.316 667.368 288.022 717.995Z" stroke="#B18F40" stroke-opacity="0.25" stroke-width="3" stroke-miterlimit="10"/>
<path d="M272.349 729.129C271.627 762.324 286.398 793.457 314.168 814.741C333.159 829.318 358.838 839.096 388.357 839.76C440.436 840.927 494.712 824.686 542.868 800.987C572.813 786.218 601.275 769.411 627.837 750.813C640.442 741.993 652.538 732.734 664.074 723.077C718.974 676.871 781.309 658.98 853.548 637.561C895.169 625.22 939.881 610.629 979.428 593.147C1029.65 571.058 1100.22 526.342 1092.42 482.617C1091.05 476.112 1088.57 469.912 1085.03 464.167C1080.25 455.763 1074.58 447.659 1071.97 438.206C1064.94 412.848 1081.35 382.222 1099.64 354.604C1128.88 310.632 1160.28 258.04 1131.64 216.159C1107.89 181.409 1051.53 170.6 997.58 173.484C962.148 175.34 926.354 181.796 891.692 192.582C855.66 203.918 822.255 222.108 784.106 232.464C711.597 252.15 636.697 259.999 568.698 287.978C524.561 306.155 479.014 331.956 435.921 359.25C380.694 394.249 329.905 431.145 319.197 480.505C312.695 510.541 321.236 539.388 317.671 570.293C311.67 623.177 273.731 676.057 272.349 729.129Z" stroke="#B18F40" stroke-opacity="0.25" stroke-width="3" stroke-miterlimit="10"/>
<path d="M256.675 740.249C255.902 774.248 271.301 806.052 299.92 827.714C319.508 842.5 345.756 852.463 375.969 853.29C429.785 854.76 486.342 838.718 536.856 814.718C568.181 799.806 597.918 782.61 625.57 763.414C638.663 754.331 651.2 744.765 663.122 734.76C720.046 686.666 784.595 668.502 859.264 646.435C902.96 633.522 949.908 618.164 991.366 599.722C1043.91 576.444 1118.29 529.024 1108.83 482.799C1107.21 475.909 1104.41 469.361 1100.49 463.314C1095.15 454.453 1088.89 445.914 1085.89 435.954C1077.8 409.194 1094.74 376.91 1113.79 347.81C1144.15 301.583 1177.3 246.108 1146.31 202.413C1120.92 166.581 1061.38 156.301 1005 160.203C968.057 162.706 930.857 169.956 894.938 181.652C857.577 193.926 823.155 213.389 783.714 224.234C708.664 244.925 631.104 252.428 560.176 280.696C514.415 298.968 466.71 324.929 422.205 353.186C365.238 389.379 314.039 428.622 304.213 479.987C298.166 511.572 307.627 541.748 304.178 574.111C298.401 629.483 258.16 684.71 256.675 740.249Z" stroke="#B18F40" stroke-opacity="0.25" stroke-width="3" stroke-miterlimit="10"/>
<path d="M241.007 751.386C240.178 786.174 256.21 818.664 285.654 840.693C305.797 855.767 332.646 865.808 363.591 866.811C419.147 868.597 477.965 852.762 530.856 828.454C563.557 813.401 594.569 795.809 623.311 776.008C636.911 766.645 649.906 756.749 662.224 746.373C721.184 696.396 787.977 678.063 865.04 655.23C910.808 641.811 959.99 625.606 1003.35 606.214C1058.2 581.773 1136.28 531.66 1125.29 482.913C1123.66 475.481 1120.13 468.876 1115.99 462.39C1110.11 453.06 1103.24 444.086 1099.85 433.605C1090.73 405.464 1108.22 371.443 1127.99 340.925C1159.52 292.46 1194.4 234.108 1161.05 188.54C1134.01 151.616 1071.3 141.906 1012.48 146.817C973.998 149.977 935.378 158.032 898.19 170.655C859.561 183.888 824.136 204.523 783.308 215.942C705.717 237.638 625.49 244.805 551.61 273.392C504.147 291.759 454.29 318.04 408.49 347.17C349.781 384.515 298.193 426.098 289.205 479.464C283.634 512.594 293.978 544.125 290.745 577.94C285.122 635.789 242.564 693.423 241.007 751.386Z" stroke="#B18F40" stroke-opacity="0.25" stroke-width="3" stroke-miterlimit="10"/>
<path d="M225.341 762.511C224.452 798.113 241.1 831.27 271.392 853.676C292.101 869.001 319.645 879.206 351.237 880.289C408.497 882.419 469.604 866.774 524.838 842.185C558.919 826.982 591.22 808.99 621.073 788.583C635.154 778.956 648.577 768.747 661.263 758.017C722.265 706.171 791.266 687.549 870.791 664.068C918.614 650.082 970.044 633.115 1015.28 612.804C1072.49 587.132 1154.22 534.368 1141.72 483.093C1139.85 475.286 1135.9 468.322 1131.45 461.542C1125.03 451.748 1117.61 442.352 1113.78 431.336C1103.6 401.804 1121.64 366.093 1142.13 334.147C1174.75 283.413 1211.44 222.199 1175.71 174.83C1147.01 136.808 1081.12 127.655 1019.9 133.542C979.9 137.358 939.863 146.216 901.405 159.758C861.483 173.942 825.036 195.795 782.865 207.751C702.753 230.445 619.846 237.273 543.015 266.18C493.901 284.698 441.897 311.105 394.765 341.133C334.342 379.615 282.365 423.538 274.207 478.918C269.112 513.591 280.347 546.467 277.222 581.71C271.85 642.097 227.02 702.035 225.341 762.511Z" stroke="#B18F40" stroke-opacity="0.25" stroke-width="3" stroke-miterlimit="10"/>
<path d="M209.634 773.622C208.767 810.152 225.686 843.3 257.111 866.638C278.361 882.206 306.462 892.527 338.761 893.883C397.785 896.298 461.16 880.849 518.767 855.938C554.21 840.601 587.787 822.222 618.74 801.218C633.313 791.327 647.18 780.806 660.252 769.724C723.278 715.989 794.45 697.067 876.467 672.96C926.352 658.398 980.026 640.653 1027.2 619.351C1086.67 592.553 1172.13 537.068 1158.1 483.282C1155.99 475.086 1151.68 467.815 1146.82 460.664C1139.85 450.423 1131.79 440.569 1127.6 429.054C1116.38 398.126 1134.97 360.729 1156.21 327.298C1189.96 274.308 1228.43 210.199 1190.3 161.024C1160.03 121.921 1090.89 113.231 1027.22 120.258C985.711 124.718 944.273 134.386 904.573 148.875C863.371 164.015 825.882 187.092 782.388 199.578C699.748 223.282 614.162 229.77 534.373 258.981C483.647 277.559 429.424 304.249 380.967 335.166C318.86 374.768 266.534 421.019 259.143 478.455C254.535 514.676 266.65 548.892 263.625 585.574C258.561 648.4 211.446 710.703 209.634 773.622Z" stroke="#B18F40" stroke-opacity="0.25" stroke-width="3" stroke-miterlimit="10"/>
<path d="M193.976 784.769C193.115 822.097 210.548 855.931 242.855 879.628C264.708 895.46 293.392 905.905 326.409 907.393C387.166 910.135 452.813 894.752 512.816 869.658C549.619 854.162 584.485 835.391 616.574 813.799C631.641 803.641 645.951 792.803 659.403 781.361C724.47 725.759 797.883 706.546 882.311 681.799C934.246 666.657 990.173 648.124 1039.24 625.882C1101.05 597.904 1190.18 539.743 1174.63 483.429C1172.28 474.859 1167.64 467.229 1162.44 459.805C1154.92 449.091 1146.25 438.812 1141.71 426.778C1129.43 394.459 1148.58 355.361 1170.55 320.492C1205.41 265.247 1245.68 198.242 1205.16 147.265C1173.21 106.99 1100.95 98.904 1034.8 106.982C991.743 112.072 948.86 122.535 907.866 137.951C865.359 154.037 826.849 178.372 782.043 191.354C696.861 216.062 608.6 222.224 525.867 251.744C469.651 271.976 416.211 298.041 367.246 329.113C303.393 369.893 250.662 418.465 244.162 477.895C240.026 515.645 253.017 551.228 250.12 589.331C245.279 654.712 195.862 719.36 193.976 784.769Z" stroke="#B18F40" stroke-opacity="0.25" stroke-width="3" stroke-miterlimit="10"/>
<path d="M178.302 795.892C177.438 834.025 195.392 868.549 228.593 892.599C251.017 908.696 280.284 919.266 313.953 920.889C376.437 923.944 444.351 908.823 506.706 883.372C544.861 867.733 581.002 848.565 614.192 826.365C629.744 815.941 644.49 804.788 658.318 792.99C725.422 735.504 801.066 715.972 887.913 690.613C941.947 674.908 1000.08 655.61 1051.06 632.397C1115.15 603.242 1208.01 542.386 1190.94 483.554C1188.36 474.599 1183.35 466.631 1177.78 458.901C1169.72 447.724 1160.48 436.978 1155.49 424.441C1142.19 390.693 1161.84 349.958 1184.56 313.618C1220.61 256.044 1262.61 186.191 1219.71 133.428C1186.08 92.0771 1110.57 84.5712 1042.1 93.6263C997.534 99.3696 953.242 110.623 910.98 126.942C867.243 144.002 827.708 169.581 781.562 183.073C693.832 208.798 602.966 214.646 517.239 244.457C463.224 263.237 404.582 290.384 353.503 323.085C287.984 365.045 234.834 415.894 229.141 477.368C225.509 516.645 239.42 553.596 236.636 593.143C231.987 661.014 180.284 728.028 178.302 795.892Z" stroke="#B18F40" stroke-opacity="0.25" stroke-width="3" stroke-miterlimit="10"/>
<path d="M162.62 807.015C161.764 845.956 180.239 881.172 214.331 905.584C237.316 921.918 267.183 932.671 301.621 934.443C365.824 937.886 436.041 922.895 500.75 897.128C540.269 881.364 577.697 861.8 611.99 838.983C628.044 828.282 643.241 816.8 657.457 804.633C726.59 745.274 804.432 725.49 893.722 699.488C949.761 683.199 1010.18 663.152 1063.07 638.979C1129.52 608.648 1226.02 545.111 1207.42 483.757C1204.61 474.412 1199.26 466.116 1193.31 458.054C1184.7 446.419 1174.83 435.27 1169.48 422.184C1155.09 387.087 1175.32 344.609 1198.8 306.798C1235.98 246.958 1279.79 174.228 1234.46 119.66C1199.21 77.1854 1120.56 70.3035 1049.61 80.3295C1003.53 86.7474 957.843 98.8082 914.323 116.042C869.173 134.024 828.647 160.779 781.085 174.822C690.825 201.556 597.303 207.072 508.599 237.194C452.939 256.075 392.146 283.476 339.753 316.991C272.45 360.18 218.975 413.326 214.122 476.844C210.994 517.648 225.725 555.958 223.123 596.96C218.711 667.324 164.705 736.684 162.62 807.015Z" stroke="#B18F40" stroke-opacity="0.25" stroke-width="3" stroke-miterlimit="10"/>
<path d="M146.933 818.15C146.088 857.889 165.077 893.789 200.044 918.562C223.658 935.168 254.086 946.012 289.272 947.979C355.161 951.707 427.677 936.936 494.719 910.859C535.589 894.965 574.3 875.01 609.704 851.586C626.218 840.629 641.834 828.848 656.417 816.347C727.574 755.099 807.632 735.017 899.4 708.346C957.453 691.463 1020.16 670.656 1074.95 645.543C1143.7 614.045 1243.91 547.803 1223.79 483.921C1220.74 474.201 1215.04 465.568 1208.71 457.189C1199.55 445.086 1189.09 433.502 1183.33 419.9C1167.89 383.406 1188.68 339.228 1212.87 299.998C1251.18 237.882 1296.78 162.256 1249.06 105.897C1212.16 62.2996 1130.33 56.0243 1056.94 67.0537C1009.33 74.098 962.206 86.9473 917.398 105.102C871.025 124.047 829.478 152.02 780.614 166.628C687.821 194.357 591.656 199.651 499.975 229.977C442.689 249.019 379.71 276.597 325.934 311.058C256.996 355.28 203.173 410.754 199.094 476.318C196.471 518.649 212.057 558.331 209.608 600.764C205.414 673.627 149.109 745.348 146.933 818.15Z" stroke="#B18F40" stroke-opacity="0.25" stroke-width="3" stroke-miterlimit="10"/>
<path d="M607.442 864.194C624.471 852.967 640.547 840.862 655.522 827.989C728.722 764.873 810.976 744.499 905.188 717.186C965.361 699.734 1030.26 678.158 1087.02 652.103C1158.1 619.409 1261.99 550.495 1240.33 484.1C1232.29 459.409 1207.78 441.508 1197.39 417.624C1180.91 379.743 1202.23 333.869 1227.19 293.133C1266.65 228.755 1314.02 150.243 1263.91 92.0772C1225.37 47.3655 1140.35 41.6918 1064.53 53.7091C1015.41 61.4149 966.871 75.0632 920.791 94.1295C873.105 114.031 830.54 143.238 780.336 158.357C684.968 187.092 586.099 192.036 491.491 222.73C356.833 266.381 189.887 355.518 184.087 475.785C181.979 519.648 198.408 560.699 196.091 604.569C192.147 679.905 133.539 754.012 131.289 829.24C129.218 897.295 188.566 956.205 276.824 961.45C385.989 968.004 513.686 926.203 607.442 864.194Z" stroke="#B18F40" stroke-opacity="0.25" stroke-width="3" stroke-miterlimit="10"/>
</g>
<defs>
<clipPath id="clip0_28_370">
<rect width="1440" height="1024" fill="white"/>
</clipPath>
</defs>
</svg>
