<svg width="456" height="75" viewBox="0 0 456 75" fill="none" xmlns="http://www.w3.org/2000/svg">
<path d="M9.31746 2L434.97 2C441.244 2 444.609 9.37744 440.496 14.1147L391.96 70.0194C390.57 71.6203 388.554 72.5397 386.435 72.5397L9.31745 72.5397C5.27613 72.5397 2 69.2635 2 65.2222L2 9.31745C2 5.27613 5.27613 2 9.31746 2Z" stroke="#B18F40" stroke-width="4" stroke-linejoin="round"/>
<path opacity="0.99" d="M34.337 45.7993C34.1833 45.7993 34.0575 45.7504 33.9596 45.6526C33.8618 45.5547 33.8129 45.4289 33.8129 45.2752L33.8129 34.4157L30.0812 34.4157C29.9275 34.4157 29.8017 34.3668 29.7039 34.269C29.606 34.1571 29.5571 34.0314 29.5571 33.8916L29.5571 31.6484C29.5571 31.4947 29.606 31.3689 29.7039 31.2711C29.8017 31.1732 29.9275 31.1243 30.0812 31.1243L41.36 31.1243C41.5138 31.1243 41.6395 31.1732 41.7374 31.2711C41.8352 31.3689 41.8841 31.4947 41.8841 31.6484L41.8841 33.8916C41.8841 34.0314 41.8352 34.1571 41.7374 34.269C41.6395 34.3668 41.5138 34.4157 41.36 34.4157L37.6284 34.4157L37.6284 45.2752C37.6284 45.4289 37.5795 45.5547 37.4816 45.6526C37.3838 45.7504 37.258 45.7993 37.1043 45.7993L34.337 45.7993ZM50.9405 46.009C49.2913 46.009 47.9776 45.5617 46.9993 44.6672C46.0209 43.7728 45.5108 42.445 45.4689 40.684C45.4689 40.5862 45.4689 40.4604 45.4689 40.3067C45.4689 40.1529 45.4689 40.0341 45.4689 39.9503C45.5108 38.8462 45.7554 37.9028 46.2026 37.1201C46.6638 36.3235 47.2928 35.7225 48.0894 35.3172C48.9 34.8979 49.8434 34.6882 50.9196 34.6882C52.1495 34.6882 53.1628 34.9328 53.9594 35.422C54.77 35.9112 55.378 36.575 55.7833 37.4136C56.1886 38.2522 56.3913 39.2095 56.3913 40.2857L56.3913 40.7889C56.3913 40.9426 56.3353 41.0684 56.2235 41.1662C56.1257 41.264 56.0069 41.313 55.8671 41.313L49.1586 41.313C49.1586 41.3269 49.1586 41.3479 49.1586 41.3759C49.1586 41.4038 49.1586 41.4318 49.1586 41.4597C49.1726 41.865 49.2424 42.2354 49.3682 42.5708C49.494 42.9062 49.6897 43.1718 49.9552 43.3675C50.2208 43.5631 50.5422 43.661 50.9196 43.661C51.1991 43.661 51.4297 43.619 51.6114 43.5352C51.8071 43.4373 51.9678 43.3325 52.0936 43.2207C52.2194 43.0949 52.3172 42.9901 52.3871 42.9062C52.5129 42.7665 52.6107 42.6826 52.6806 42.6547C52.7644 42.6127 52.8902 42.5918 53.0579 42.5918L55.6575 42.5918C55.7973 42.5918 55.9091 42.6337 55.9929 42.7176C56.0908 42.7874 56.1327 42.8923 56.1187 43.032C56.1047 43.2696 55.9859 43.5561 55.7623 43.8916C55.5387 44.227 55.2103 44.5624 54.777 44.8979C54.3577 45.2193 53.8266 45.4849 53.1837 45.6945C52.5408 45.9041 51.7931 46.009 50.9405 46.009ZM49.1586 39.2375L52.7015 39.2375L52.7015 39.1956C52.7015 38.7483 52.6317 38.357 52.4919 38.0216C52.3661 37.6861 52.1635 37.4276 51.8839 37.2459C51.6184 37.0642 51.2969 36.9734 50.9196 36.9734C50.5422 36.9734 50.2208 37.0642 49.9552 37.2459C49.7036 37.4276 49.508 37.6861 49.3682 38.0216C49.2285 38.357 49.1586 38.7483 49.1586 39.1956L49.1586 39.2375ZM49.7036 33.3256C49.48 33.3256 49.3682 33.2138 49.3682 32.9901C49.3682 32.8783 49.4032 32.7875 49.473 32.7176L51.3179 30.4744C51.4577 30.3067 51.5765 30.2019 51.6743 30.16C51.7721 30.1041 51.9119 30.0761 52.0936 30.0761L54.8399 30.0761C55.1054 30.0761 55.2382 30.2159 55.2382 30.4954C55.2382 30.5932 55.2033 30.6771 55.1334 30.747L52.3661 33.0321C52.2543 33.1299 52.1425 33.2068 52.0307 33.2627C51.9189 33.3046 51.7651 33.3256 51.5695 33.3256L49.7036 33.3256ZM63.0736 45.7993C62.9199 45.7993 62.7941 45.7504 62.6963 45.6526C62.5984 45.5547 62.5495 45.4289 62.5495 45.2752L62.5495 31.4388C62.5495 31.285 62.5984 31.1593 62.6963 31.0614C62.7941 30.9636 62.9199 30.9147 63.0736 30.9147L65.5474 30.9147C65.7011 30.9147 65.8269 30.9636 65.9248 31.0614C66.0226 31.1593 66.0715 31.285 66.0715 31.4388L66.0715 45.2752C66.0715 45.4289 66.0226 45.5547 65.9248 45.6526C65.8269 45.7504 65.7011 45.7993 65.5474 45.7993L63.0736 45.7993ZM77.7724 46.009C76.1232 46.009 74.8094 45.5617 73.8311 44.6672C72.8527 43.7728 72.3426 42.445 72.3007 40.684C72.3007 40.5862 72.3007 40.4604 72.3007 40.3067C72.3007 40.1529 72.3007 40.0341 72.3007 39.9503C72.3426 38.8462 72.5872 37.9028 73.0344 37.1201C73.4957 36.3235 74.1246 35.7225 74.9212 35.3172C75.7318 34.8979 76.6752 34.6882 77.7514 34.6882C78.9813 34.6882 79.9946 34.9328 80.7912 35.422C81.6018 35.9112 82.2098 36.575 82.6151 37.4136C83.0204 38.2522 83.2231 39.2095 83.2231 40.2857L83.2231 40.7889C83.2231 40.9426 83.1672 41.0684 83.0554 41.1662C82.9575 41.264 82.8387 41.313 82.699 41.313L75.9904 41.313C75.9904 41.3269 75.9904 41.3479 75.9904 41.3759C75.9904 41.4038 75.9904 41.4318 75.9904 41.4597C76.0044 41.865 76.0743 42.2354 76.2 42.5708C76.3258 42.9062 76.5215 43.1718 76.787 43.3675C77.0526 43.5631 77.374 43.661 77.7514 43.661C78.0309 43.661 78.2615 43.619 78.4432 43.5352C78.6389 43.4373 78.7996 43.3325 78.9254 43.2207C79.0512 43.0949 79.149 42.9901 79.2189 42.9062C79.3447 42.7665 79.4425 42.6826 79.5124 42.6547C79.5963 42.6127 79.722 42.5918 79.8898 42.5918L82.4893 42.5918C82.6291 42.5918 82.7409 42.6337 82.8248 42.7176C82.9226 42.7874 82.9645 42.8923 82.9505 43.032C82.9366 43.2696 82.8178 43.5561 82.5942 43.8916C82.3705 44.227 82.0421 44.5624 81.6088 44.8979C81.1895 45.2193 80.6584 45.4849 80.0155 45.6945C79.3726 45.9041 78.6249 46.009 77.7724 46.009ZM75.9904 39.2375L79.5334 39.2375L79.5334 39.1956C79.5334 38.7483 79.4635 38.357 79.3237 38.0216C79.1979 37.6861 78.9953 37.4276 78.7158 37.2459C78.4502 37.0642 78.1288 36.9734 77.7514 36.9734C77.374 36.9734 77.0526 37.0642 76.787 37.2459C76.5355 37.4276 76.3398 37.6861 76.2 38.0216C76.0603 38.357 75.9904 38.7483 75.9904 39.1956L75.9904 39.2375ZM76.5355 33.3256C76.3119 33.3256 76.2 33.2138 76.2 32.9901C76.2 32.8783 76.235 32.7875 76.3049 32.7176L78.1497 30.4744C78.2895 30.3067 78.4083 30.2019 78.5061 30.16C78.6039 30.1041 78.7437 30.0761 78.9254 30.0761L81.6717 30.0761C81.9373 30.0761 82.07 30.2159 82.07 30.4954C82.07 30.5932 82.0351 30.6771 81.9652 30.747L79.1979 33.0321C79.0861 33.1299 78.9743 33.2068 78.8625 33.2627C78.7507 33.3046 78.597 33.3256 78.4013 33.3256L76.5355 33.3256ZM94.3918 46.009C93.3576 46.009 92.4421 45.8203 91.6455 45.4429C90.8488 45.0656 90.2129 44.5205 89.7377 43.8077C89.2765 43.0809 89.0249 42.2144 88.983 41.2081C88.969 40.9845 88.9621 40.705 88.9621 40.3696C88.9621 40.0202 88.969 39.7336 88.983 39.51C89.0249 38.4898 89.2765 37.6232 89.7377 36.9105C90.1989 36.1837 90.8279 35.6316 91.6245 35.2543C92.4351 34.8769 93.3576 34.6882 94.3918 34.6882C95.3562 34.6882 96.1808 34.828 96.8656 35.1075C97.5504 35.3731 98.1095 35.7085 98.5427 36.1138C98.976 36.5191 99.2974 36.9384 99.5071 37.3717C99.7307 37.791 99.8495 38.1613 99.8635 38.4828C99.8775 38.6225 99.8285 38.7483 99.7167 38.8601C99.6049 38.958 99.4791 39.0069 99.3394 39.0069L96.6769 39.0069C96.5232 39.0069 96.4044 38.9719 96.3205 38.9021C96.2367 38.8322 96.1598 38.7274 96.0899 38.5876C95.9222 38.1543 95.7056 37.8469 95.44 37.6652C95.1884 37.4835 94.86 37.3926 94.4547 37.3926C93.8956 37.3926 93.4624 37.5743 93.1549 37.9377C92.8614 38.3011 92.7007 38.8601 92.6727 39.6149C92.6588 40.1739 92.6588 40.6701 92.6727 41.1033C92.7007 41.872 92.8614 42.4311 93.1549 42.7805C93.4624 43.1299 93.8956 43.3046 94.4547 43.3046C94.888 43.3046 95.2304 43.2137 95.4819 43.032C95.7335 42.8503 95.9362 42.5429 96.0899 42.1096C96.1598 41.9698 96.2367 41.865 96.3205 41.7951C96.4044 41.7253 96.5232 41.6903 96.6769 41.6903L99.3394 41.6903C99.4791 41.6903 99.6049 41.7462 99.7167 41.858C99.8285 41.9559 99.8775 42.0747 99.8635 42.2144C99.8495 42.452 99.7796 42.7315 99.6538 43.053C99.5281 43.3605 99.3324 43.6889 99.0668 44.0383C98.8013 44.3877 98.4519 44.7162 98.0186 45.0236C97.5993 45.3171 97.0892 45.5547 96.4882 45.7364C95.8873 45.9181 95.1884 46.009 94.3918 46.009ZM106.464 45.7993C106.31 45.7993 106.184 45.7504 106.087 45.6526C105.989 45.5547 105.94 45.4289 105.94 45.2752L105.94 31.4388C105.94 31.285 105.989 31.1593 106.087 31.0614C106.184 30.9636 106.31 30.9147 106.464 30.9147L109.147 30.9147C109.301 30.9147 109.427 30.9636 109.525 31.0614C109.623 31.1593 109.671 31.285 109.671 31.4388L109.671 36.1138C110.049 35.6806 110.51 35.3381 111.055 35.0866C111.614 34.821 112.257 34.6882 112.984 34.6882C113.794 34.6882 114.514 34.8699 115.143 35.2333C115.786 35.5967 116.289 36.1348 116.653 36.8476C117.016 37.5464 117.198 38.4059 117.198 39.4262L117.198 45.2752C117.198 45.4289 117.149 45.5547 117.051 45.6526C116.953 45.7504 116.827 45.7993 116.674 45.7993L113.969 45.7993C113.829 45.7993 113.704 45.7504 113.592 45.6526C113.494 45.5547 113.445 45.4289 113.445 45.2752L113.445 39.552C113.445 38.8951 113.284 38.3919 112.963 38.0425C112.655 37.6791 112.194 37.4975 111.579 37.4975C111.006 37.4975 110.545 37.6791 110.196 38.0425C109.846 38.3919 109.671 38.8951 109.671 39.552L109.671 45.2752C109.671 45.4289 109.623 45.5547 109.525 45.6526C109.427 45.7504 109.301 45.7993 109.147 45.7993L106.464 45.7993ZM127.038 46.009C126.283 46.009 125.606 45.8692 125.005 45.5897C124.418 45.2962 123.949 44.9048 123.6 44.4157C123.251 43.9265 123.076 43.3744 123.076 42.7595C123.076 41.7672 123.481 40.9845 124.292 40.4115C125.102 39.8245 126.179 39.4262 127.52 39.2165L130.141 38.8182L130.141 38.5247C130.141 38.0216 130.036 37.6372 129.826 37.3717C129.617 37.1061 129.232 36.9734 128.673 36.9734C128.282 36.9734 127.961 37.0502 127.709 37.204C127.471 37.3577 127.283 37.5673 127.143 37.8329C127.017 38.0146 126.842 38.1054 126.619 38.1054L124.271 38.1054C124.117 38.1054 123.998 38.0635 123.914 37.9796C123.831 37.8818 123.796 37.77 123.81 37.6442C123.81 37.3926 123.9 37.1061 124.082 36.7847C124.278 36.4492 124.571 36.1208 124.963 35.7994C125.354 35.4779 125.857 35.2124 126.472 35.0027C127.087 34.7931 127.828 34.6882 128.694 34.6882C129.603 34.6882 130.378 34.7931 131.021 35.0027C131.664 35.2124 132.181 35.5059 132.573 35.8832C132.978 36.2606 133.278 36.7078 133.474 37.2249C133.67 37.7281 133.768 38.2871 133.768 38.9021L133.768 45.2752C133.768 45.4289 133.712 45.5547 133.6 45.6526C133.502 45.7504 133.383 45.7993 133.244 45.7993L130.812 45.7993C130.658 45.7993 130.532 45.7504 130.434 45.6526C130.336 45.5547 130.288 45.4289 130.288 45.2752L130.288 44.5415C130.106 44.807 129.861 45.0516 129.554 45.2752C129.246 45.4988 128.883 45.6735 128.464 45.7993C128.058 45.9391 127.583 46.009 127.038 46.009ZM128.023 43.619C128.429 43.619 128.792 43.5352 129.114 43.3675C129.449 43.1858 129.708 42.9132 129.889 42.5499C130.085 42.1725 130.183 41.7043 130.183 41.1452L130.183 40.8517L128.401 41.1662C127.744 41.278 127.262 41.4527 126.954 41.6903C126.661 41.9139 126.514 42.1795 126.514 42.487C126.514 42.7246 126.584 42.9272 126.724 43.0949C126.863 43.2626 127.045 43.3954 127.269 43.4932C127.492 43.5771 127.744 43.619 128.023 43.619ZM140.85 45.7993C140.697 45.7993 140.571 45.7504 140.473 45.6526C140.375 45.5547 140.326 45.4289 140.326 45.2752L140.326 35.422C140.326 35.2822 140.375 35.1634 140.473 35.0656C140.571 34.9538 140.697 34.8979 140.85 34.8979L143.261 34.8979C143.415 34.8979 143.541 34.9538 143.639 35.0656C143.736 35.1634 143.785 35.2822 143.785 35.422L143.785 36.2606C144.163 35.8273 144.61 35.4919 145.127 35.2543C145.658 35.0167 146.252 34.8979 146.909 34.8979L147.831 34.8979C147.971 34.8979 148.09 34.9468 148.188 35.0446C148.3 35.1425 148.356 35.2683 148.356 35.422L148.356 37.5813C148.356 37.7211 148.3 37.8469 148.188 37.9587C148.09 38.0565 147.971 38.1054 147.831 38.1054L145.798 38.1054C145.225 38.1054 144.778 38.2661 144.456 38.5876C144.149 38.8951 143.995 39.3353 143.995 39.9084L143.995 45.2752C143.995 45.4289 143.939 45.5547 143.827 45.6526C143.729 45.7504 143.604 45.7993 143.45 45.7993L140.85 45.7993ZM159.282 50.4115C158.206 50.4115 157.312 50.2717 156.599 49.9922C155.9 49.7126 155.341 49.3772 154.922 48.9859C154.517 48.5946 154.223 48.2032 154.041 47.8119C153.86 47.4345 153.762 47.134 153.748 46.9104C153.734 46.7567 153.783 46.6309 153.895 46.5331C154.006 46.4352 154.139 46.3863 154.293 46.3863L156.955 46.3863C157.081 46.3863 157.186 46.4143 157.27 46.4702C157.368 46.5401 157.445 46.6519 157.501 46.8056C157.57 46.9593 157.661 47.1201 157.773 47.2878C157.899 47.4555 158.067 47.5883 158.276 47.6861C158.5 47.7979 158.8 47.8538 159.178 47.8538C159.597 47.8538 159.946 47.7839 160.226 47.6442C160.505 47.5184 160.715 47.3018 160.855 46.9943C160.995 46.7008 161.064 46.3025 161.064 45.7993L161.064 44.3947C160.743 44.7441 160.331 45.0306 159.828 45.2542C159.324 45.4639 158.716 45.5687 158.004 45.5687C157.291 45.5687 156.662 45.4639 156.117 45.2542C155.572 45.0446 155.118 44.7301 154.754 44.3109C154.391 43.8916 154.104 43.3814 153.895 42.7805C153.699 42.1795 153.58 41.4877 153.538 40.705C153.524 40.3416 153.524 39.9782 153.538 39.6149C153.58 38.8601 153.699 38.1823 153.895 37.5813C154.09 36.9803 154.37 36.4632 154.733 36.03C155.111 35.5967 155.572 35.2683 156.117 35.0446C156.662 34.807 157.291 34.6882 158.004 34.6882C158.758 34.6882 159.401 34.835 159.932 35.1285C160.477 35.408 160.925 35.7644 161.274 36.1977L161.274 35.422C161.274 35.2822 161.323 35.1634 161.421 35.0656C161.519 34.9538 161.644 34.8979 161.798 34.8979L164.209 34.8979C164.363 34.8979 164.489 34.9538 164.586 35.0656C164.698 35.1634 164.754 35.2822 164.754 35.422L164.754 45.5058C164.754 46.568 164.538 47.4625 164.104 48.1892C163.671 48.916 163.049 49.4681 162.238 49.8454C161.428 50.2228 160.443 50.4115 159.282 50.4115ZM159.136 42.8434C159.583 42.8434 159.946 42.7455 160.226 42.5499C160.505 42.3542 160.708 42.1026 160.834 41.7951C160.974 41.4877 161.05 41.1592 161.064 40.8098C161.078 40.6561 161.085 40.4394 161.085 40.1599C161.085 39.8804 161.078 39.6708 161.064 39.531C161.05 39.1676 160.974 38.8322 160.834 38.5247C160.708 38.2172 160.505 37.9726 160.226 37.791C159.946 37.5953 159.583 37.4975 159.136 37.4975C158.675 37.4975 158.304 37.5953 158.025 37.791C157.759 37.9866 157.563 38.2522 157.438 38.5876C157.326 38.923 157.256 39.2934 157.228 39.6987C157.214 40.0062 157.214 40.3206 157.228 40.6421C157.256 41.0474 157.326 41.4178 157.438 41.7532C157.563 42.0886 157.759 42.3542 158.025 42.5499C158.304 42.7455 158.675 42.8434 159.136 42.8434ZM176.448 46.009C174.799 46.009 173.485 45.5617 172.507 44.6672C171.528 43.7728 171.018 42.445 170.976 40.684C170.976 40.5862 170.976 40.4604 170.976 40.3067C170.976 40.1529 170.976 40.0341 170.976 39.9503C171.018 38.8462 171.263 37.9028 171.71 37.1201C172.171 36.3235 172.8 35.7225 173.597 35.3172C174.407 34.8979 175.351 34.6882 176.427 34.6882C177.657 34.6882 178.67 34.9328 179.467 35.422C180.277 35.9112 180.885 36.575 181.291 37.4136C181.696 38.2522 181.899 39.2095 181.899 40.2857L181.899 40.7889C181.899 40.9426 181.843 41.0684 181.731 41.1662C181.633 41.264 181.514 41.313 181.374 41.313L174.666 41.313C174.666 41.3269 174.666 41.3479 174.666 41.3759C174.666 41.4038 174.666 41.4318 174.666 41.4597C174.68 41.865 174.75 42.2354 174.875 42.5708C175.001 42.9062 175.197 43.1718 175.462 43.3675C175.728 43.5631 176.049 43.661 176.427 43.661C176.706 43.661 176.937 43.619 177.119 43.5352C177.314 43.4373 177.475 43.3325 177.601 43.2207C177.727 43.0949 177.824 42.9901 177.894 42.9062C178.02 42.7665 178.118 42.6826 178.188 42.6547C178.272 42.6127 178.397 42.5918 178.565 42.5918L181.165 42.5918C181.305 42.5918 181.416 42.6337 181.5 42.7176C181.598 42.7874 181.64 42.8923 181.626 43.032C181.612 43.2696 181.493 43.5561 181.27 43.8916C181.046 44.227 180.718 44.5624 180.284 44.8979C179.865 45.2193 179.334 45.4849 178.691 45.6945C178.048 45.9041 177.3 46.009 176.448 46.009ZM174.666 39.2375L178.209 39.2375L178.209 39.1956C178.209 38.7483 178.139 38.357 177.999 38.0216C177.873 37.6861 177.671 37.4276 177.391 37.2459C177.126 37.0642 176.804 36.9734 176.427 36.9734C176.049 36.9734 175.728 37.0642 175.462 37.2459C175.211 37.4276 175.015 37.6861 174.875 38.0216C174.736 38.357 174.666 38.7483 174.666 39.1956L174.666 39.2375ZM188.581 45.7993C188.427 45.7993 188.301 45.7504 188.204 45.6526C188.106 45.5547 188.057 45.4289 188.057 45.2752L188.057 35.422C188.057 35.2822 188.106 35.1634 188.204 35.0656C188.301 34.9538 188.427 34.8979 188.581 34.8979L190.992 34.8979C191.146 34.8979 191.271 34.9538 191.369 35.0656C191.467 35.1634 191.516 35.2822 191.516 35.422L191.516 36.2606C191.893 35.8273 192.34 35.4919 192.858 35.2543C193.389 35.0167 193.983 34.8979 194.64 34.8979L195.562 34.8979C195.702 34.8979 195.821 34.9468 195.918 35.0446C196.03 35.1425 196.086 35.2683 196.086 35.422L196.086 37.5813C196.086 37.7211 196.03 37.8469 195.918 37.9587C195.821 38.0565 195.702 38.1054 195.562 38.1054L193.528 38.1054C192.955 38.1054 192.508 38.2661 192.187 38.5876C191.879 38.8951 191.726 39.3353 191.726 39.9084L191.726 45.2752C191.726 45.4289 191.67 45.5547 191.558 45.6526C191.46 45.7504 191.334 45.7993 191.18 45.7993L188.581 45.7993ZM210.52 45.7993C210.366 45.7993 210.24 45.7504 210.142 45.6526C210.045 45.5547 209.996 45.4289 209.996 45.2752L209.996 31.4388C209.996 31.285 210.045 31.1593 210.142 31.0614C210.24 30.9636 210.366 30.9147 210.52 30.9147L212.993 30.9147C213.147 30.9147 213.273 30.9636 213.371 31.0614C213.469 31.1593 213.518 31.285 213.518 31.4388L213.518 45.2752C213.518 45.4289 213.469 45.5547 213.371 45.6526C213.273 45.7504 213.147 45.7993 212.993 45.7993L210.52 45.7993ZM220.229 36.1977C220.103 36.1977 219.998 36.1557 219.914 36.0719C219.845 35.988 219.817 35.8692 219.831 35.7155L220.46 31.6275C220.487 31.4458 220.557 31.285 220.669 31.1453C220.795 30.9915 220.977 30.9147 221.214 30.9147L223.667 30.9147C223.779 30.9147 223.87 30.9566 223.94 31.0405C224.023 31.1243 224.065 31.2221 224.065 31.334C224.065 31.4178 224.051 31.4947 224.023 31.5646L222.451 35.6107C222.395 35.7504 222.311 35.8832 222.2 36.009C222.088 36.1348 221.913 36.1977 221.675 36.1977L220.229 36.1977ZM232.339 46.009C231.584 46.009 230.906 45.8692 230.305 45.5897C229.718 45.2962 229.25 44.9048 228.9 44.4157C228.551 43.9265 228.376 43.3744 228.376 42.7595C228.376 41.7672 228.782 40.9845 229.592 40.4115C230.403 39.8245 231.479 39.4262 232.821 39.2165L235.441 38.8182L235.441 38.5247C235.441 38.0216 235.336 37.6372 235.127 37.3717C234.917 37.1061 234.533 36.9734 233.974 36.9734C233.582 36.9734 233.261 37.0502 233.009 37.204C232.772 37.3577 232.583 37.5673 232.443 37.8329C232.318 38.0146 232.143 38.1054 231.919 38.1054L229.571 38.1054C229.418 38.1054 229.299 38.0635 229.215 37.9796C229.131 37.8818 229.096 37.77 229.11 37.6442C229.11 37.3926 229.201 37.1061 229.383 36.7847C229.578 36.4492 229.872 36.1208 230.263 35.7994C230.654 35.4779 231.158 35.2124 231.773 35.0027C232.388 34.7931 233.128 34.6882 233.995 34.6882C234.903 34.6882 235.679 34.7931 236.322 35.0027C236.965 35.2124 237.482 35.5059 237.873 35.8832C238.278 36.2606 238.579 36.7078 238.775 37.2249C238.97 37.7281 239.068 38.2871 239.068 38.9021L239.068 45.2752C239.068 45.4289 239.012 45.5547 238.9 45.6526C238.803 45.7504 238.684 45.7993 238.544 45.7993L236.112 45.7993C235.958 45.7993 235.833 45.7504 235.735 45.6526C235.637 45.5547 235.588 45.4289 235.588 45.2752L235.588 44.5415C235.406 44.807 235.162 45.0516 234.854 45.2752C234.547 45.4988 234.183 45.6735 233.764 45.7993C233.359 45.9391 232.884 46.009 232.339 46.009ZM233.324 43.619C233.729 43.619 234.093 43.5352 234.414 43.3675C234.749 43.1858 235.008 42.9132 235.19 42.5499C235.385 42.1725 235.483 41.7043 235.483 41.1452L235.483 40.8517L233.701 41.1662C233.044 41.278 232.562 41.4527 232.255 41.6903C231.961 41.9139 231.814 42.1795 231.814 42.487C231.814 42.7246 231.884 42.9272 232.024 43.0949C232.164 43.2626 232.346 43.3954 232.569 43.4932C232.793 43.5771 233.044 43.619 233.324 43.619ZM246.151 49.7825C245.997 49.7825 245.871 49.7336 245.773 49.6358C245.676 49.5379 245.627 49.4122 245.627 49.2584L245.627 35.422C245.627 35.2683 245.676 35.1425 245.773 35.0446C245.871 34.9468 245.997 34.8979 246.151 34.8979L248.52 34.8979C248.66 34.8979 248.778 34.9468 248.876 35.0446C248.988 35.1425 249.044 35.2683 249.044 35.422L249.044 36.1977C249.365 35.7644 249.792 35.408 250.323 35.1285C250.854 34.835 251.511 34.6882 252.293 34.6882C252.992 34.6882 253.607 34.8001 254.138 35.0237C254.669 35.2333 255.123 35.5478 255.501 35.9671C255.878 36.3864 256.172 36.8965 256.381 37.4975C256.605 38.0984 256.731 38.7903 256.759 39.5729C256.773 39.8524 256.78 40.111 256.78 40.3486C256.78 40.5862 256.773 40.8448 256.759 41.1243C256.731 41.879 256.612 42.5568 256.402 43.1578C256.193 43.7588 255.899 44.2689 255.522 44.6882C255.144 45.1075 254.683 45.4359 254.138 45.6735C253.607 45.8971 252.992 46.009 252.293 46.009C251.608 46.009 251.008 45.8902 250.49 45.6526C249.987 45.401 249.568 45.0516 249.233 44.6044L249.233 49.2584C249.233 49.4122 249.184 49.5379 249.086 49.6358C248.988 49.7336 248.862 49.7825 248.708 49.7825L246.151 49.7825ZM251.161 43.1997C251.636 43.1997 252.007 43.1019 252.272 42.9062C252.538 42.7106 252.727 42.445 252.838 42.1096C252.964 41.7742 253.041 41.4038 253.069 40.9985C253.097 40.5652 253.097 40.132 253.069 39.6987C253.041 39.2934 252.964 38.923 252.838 38.5876C252.727 38.2522 252.538 37.9866 252.272 37.791C252.007 37.5953 251.636 37.4975 251.161 37.4975C250.7 37.4975 250.33 37.6023 250.05 37.8119C249.771 38.0076 249.568 38.2661 249.442 38.5876C249.316 38.9091 249.247 39.2585 249.233 39.6358C249.219 39.9014 249.212 40.1599 249.212 40.4115C249.212 40.6631 249.219 40.9286 249.233 41.2081C249.247 41.5575 249.323 41.886 249.463 42.1935C249.603 42.487 249.813 42.7315 250.092 42.9272C250.372 43.1089 250.728 43.1997 251.161 43.1997ZM263.569 49.7825C263.415 49.7825 263.29 49.7336 263.192 49.6358C263.094 49.5379 263.045 49.4122 263.045 49.2584L263.045 35.422C263.045 35.2683 263.094 35.1425 263.192 35.0446C263.29 34.9468 263.415 34.8979 263.569 34.8979L265.938 34.8979C266.078 34.8979 266.197 34.9468 266.295 35.0446C266.406 35.1425 266.462 35.2683 266.462 35.422L266.462 36.1977C266.784 35.7644 267.21 35.408 267.741 35.1285C268.272 34.835 268.929 34.6882 269.712 34.6882C270.41 34.6882 271.025 34.8001 271.557 35.0237C272.088 35.2333 272.542 35.5478 272.919 35.9671C273.297 36.3864 273.59 36.8965 273.8 37.4975C274.023 38.0984 274.149 38.7903 274.177 39.5729C274.191 39.8524 274.198 40.111 274.198 40.3486C274.198 40.5862 274.191 40.8448 274.177 41.1243C274.149 41.879 274.03 42.5568 273.821 43.1578C273.611 43.7588 273.318 44.2689 272.94 44.6882C272.563 45.1075 272.102 45.4359 271.557 45.6735C271.025 45.8971 270.41 46.009 269.712 46.009C269.027 46.009 268.426 45.8902 267.909 45.6526C267.406 45.401 266.986 45.0516 266.651 44.6044L266.651 49.2584C266.651 49.4122 266.602 49.5379 266.504 49.6358C266.406 49.7336 266.281 49.7825 266.127 49.7825L263.569 49.7825ZM268.58 43.1997C269.055 43.1997 269.425 43.1019 269.691 42.9062C269.956 42.7106 270.145 42.445 270.257 42.1096C270.383 41.7742 270.459 41.4038 270.487 40.9985C270.515 40.5652 270.515 40.132 270.487 39.6987C270.459 39.2934 270.383 38.923 270.257 38.5876C270.145 38.2522 269.956 37.9866 269.691 37.791C269.425 37.5953 269.055 37.4975 268.58 37.4975C268.118 37.4975 267.748 37.6023 267.469 37.8119C267.189 38.0076 266.986 38.2661 266.861 38.5876C266.735 38.9091 266.665 39.2585 266.651 39.6358C266.637 39.9014 266.63 40.1599 266.63 40.4115C266.63 40.6631 266.637 40.9286 266.651 41.2081C266.665 41.5575 266.742 41.886 266.882 42.1935C267.021 42.487 267.231 42.7315 267.51 42.9272C267.79 43.1089 268.146 43.1997 268.58 43.1997ZM280.988 45.7993C280.834 45.7993 280.708 45.7504 280.61 45.6526C280.512 45.5547 280.463 45.4289 280.463 45.2752L280.463 31.4388C280.463 31.285 280.512 31.1593 280.61 31.0614C280.708 30.9636 280.834 30.9147 280.988 30.9147L283.461 30.9147C283.615 30.9147 283.741 30.9636 283.839 31.0614C283.937 31.1593 283.985 31.285 283.985 31.4388L283.985 45.2752C283.985 45.4289 283.937 45.5547 283.839 45.6526C283.741 45.7504 283.615 45.7993 283.461 45.7993L280.988 45.7993ZM291.896 45.7993C291.742 45.7993 291.616 45.7504 291.518 45.6526C291.42 45.5547 291.371 45.4289 291.371 45.2752L291.371 35.422C291.371 35.2683 291.42 35.1425 291.518 35.0446C291.616 34.9468 291.742 34.8979 291.896 34.8979L294.369 34.8979C294.509 34.8979 294.628 34.9468 294.726 35.0446C294.838 35.1425 294.893 35.2683 294.893 35.422L294.893 45.2752C294.893 45.4289 294.838 45.5547 294.726 45.6526C294.628 45.7504 294.509 45.7993 294.369 45.7993L291.896 45.7993ZM291.875 33.3256C291.721 33.3256 291.595 33.2766 291.497 33.1788C291.399 33.081 291.35 32.9552 291.35 32.8015L291.35 30.9356C291.35 30.7819 291.399 30.6561 291.497 30.5583C291.595 30.4465 291.721 30.3906 291.875 30.3906L294.369 30.3906C294.523 30.3906 294.649 30.4465 294.747 30.5583C294.858 30.6561 294.914 30.7819 294.914 30.9356L294.914 32.8015C294.914 32.9552 294.858 33.081 294.747 33.1788C294.649 33.2766 294.523 33.3256 294.369 33.3256L291.875 33.3256ZM306.655 46.009C305.621 46.009 304.706 45.8203 303.909 45.4429C303.112 45.0656 302.476 44.5205 302.001 43.8077C301.54 43.0809 301.288 42.2144 301.246 41.2081C301.232 40.9845 301.225 40.705 301.225 40.3696C301.225 40.0202 301.232 39.7336 301.246 39.51C301.288 38.4898 301.54 37.6232 302.001 36.9105C302.462 36.1837 303.091 35.6316 303.888 35.2543C304.699 34.8769 305.621 34.6882 306.655 34.6882C307.62 34.6882 308.444 34.828 309.129 35.1075C309.814 35.3731 310.373 35.7085 310.806 36.1138C311.239 36.5191 311.561 36.9384 311.77 37.3717C311.994 37.791 312.113 38.1613 312.127 38.4828C312.141 38.6225 312.092 38.7483 311.98 38.8601C311.868 38.958 311.743 39.0069 311.603 39.0069L308.94 39.0069C308.787 39.0069 308.668 38.9719 308.584 38.9021C308.5 38.8322 308.423 38.7274 308.353 38.5876C308.186 38.1543 307.969 37.8469 307.703 37.6652C307.452 37.4835 307.123 37.3926 306.718 37.3926C306.159 37.3926 305.726 37.5743 305.418 37.9377C305.125 38.3011 304.964 38.8601 304.936 39.6149C304.922 40.1739 304.922 40.6701 304.936 41.1033C304.964 41.872 305.125 42.4311 305.418 42.7805C305.726 43.1299 306.159 43.3046 306.718 43.3046C307.151 43.3046 307.494 43.2137 307.745 43.032C307.997 42.8503 308.2 42.5429 308.353 42.1096C308.423 41.9698 308.5 41.865 308.584 41.7951C308.668 41.7253 308.787 41.6903 308.94 41.6903L311.603 41.6903C311.743 41.6903 311.868 41.7462 311.98 41.858C312.092 41.9559 312.141 42.0747 312.127 42.2144C312.113 42.452 312.043 42.7315 311.917 43.053C311.791 43.3605 311.596 43.6889 311.33 44.0383C311.065 44.3877 310.715 44.7162 310.282 45.0236C309.863 45.3171 309.353 45.5547 308.752 45.7364C308.151 45.9181 307.452 46.009 306.655 46.009ZM321.474 46.009C320.719 46.009 320.041 45.8692 319.44 45.5897C318.853 45.2962 318.385 44.9048 318.036 44.4157C317.686 43.9265 317.511 43.3744 317.511 42.7595C317.511 41.7672 317.917 40.9845 318.727 40.4115C319.538 39.8245 320.614 39.4262 321.956 39.2165L324.576 38.8182L324.576 38.5247C324.576 38.0216 324.472 37.6372 324.262 37.3717C324.052 37.1061 323.668 36.9734 323.109 36.9734C322.718 36.9734 322.396 37.0502 322.145 37.204C321.907 37.3577 321.718 37.5673 321.578 37.8329C321.453 38.0146 321.278 38.1054 321.054 38.1054L318.706 38.1054C318.553 38.1054 318.434 38.0635 318.35 37.9796C318.266 37.8818 318.231 37.77 318.245 37.6442C318.245 37.3926 318.336 37.1061 318.518 36.7847C318.713 36.4492 319.007 36.1208 319.398 35.7994C319.79 35.4779 320.293 35.2124 320.908 35.0027C321.523 34.7931 322.263 34.6882 323.13 34.6882C324.038 34.6882 324.814 34.7931 325.457 35.0027C326.1 35.2124 326.617 35.5059 327.008 35.8832C327.414 36.2606 327.714 36.7078 327.91 37.2249C328.105 37.7281 328.203 38.2871 328.203 38.9021L328.203 45.2752C328.203 45.4289 328.147 45.5547 328.035 45.6526C327.938 45.7504 327.819 45.7993 327.679 45.7993L325.247 45.7993C325.093 45.7993 324.968 45.7504 324.87 45.6526C324.772 45.5547 324.723 45.4289 324.723 45.2752L324.723 44.5415C324.541 44.807 324.297 45.0516 323.989 45.2752C323.682 45.4988 323.319 45.6735 322.899 45.7993C322.494 45.9391 322.019 46.009 321.474 46.009ZM322.459 43.619C322.864 43.619 323.228 43.5352 323.549 43.3675C323.885 43.1858 324.143 42.9132 324.325 42.5499C324.52 42.1725 324.618 41.7043 324.618 41.1452L324.618 40.8517L322.836 41.1662C322.179 41.278 321.697 41.4527 321.39 41.6903C321.096 41.9139 320.95 42.1795 320.95 42.487C320.95 42.7246 321.019 42.9272 321.159 43.0949C321.299 43.2626 321.481 43.3954 321.704 43.4932C321.928 43.5771 322.179 43.619 322.459 43.619ZM340.256 45.7993C339.362 45.7993 338.586 45.6596 337.929 45.38C337.286 45.0865 336.79 44.6393 336.441 44.0383C336.091 43.4234 335.917 42.6337 335.917 41.6694L335.917 37.6442L334.282 37.6442C334.128 37.6442 333.995 37.5953 333.883 37.4975C333.785 37.3996 333.736 37.2738 333.736 37.1201L333.736 35.422C333.736 35.2683 333.785 35.1425 333.883 35.0446C333.995 34.9468 334.128 34.8979 334.282 34.8979L335.917 34.8979L335.917 31.4388C335.917 31.285 335.966 31.1593 336.063 31.0614C336.175 30.9636 336.301 30.9147 336.441 30.9147L338.873 30.9147C339.026 30.9147 339.152 30.9636 339.25 31.0614C339.348 31.1593 339.397 31.285 339.397 31.4388L339.397 34.8979L342.017 34.8979C342.171 34.8979 342.297 34.9468 342.395 35.0446C342.493 35.1425 342.541 35.2683 342.541 35.422L342.541 37.1201C342.541 37.2738 342.493 37.3996 342.395 37.4975C342.297 37.5953 342.171 37.6442 342.017 37.6442L339.397 37.6442L339.397 41.3759C339.397 41.851 339.488 42.2284 339.669 42.5079C339.851 42.7874 340.159 42.9272 340.592 42.9272L342.206 42.9272C342.36 42.9272 342.486 42.9761 342.583 43.074C342.681 43.1718 342.73 43.2976 342.73 43.4513L342.73 45.2752C342.73 45.4289 342.681 45.5547 342.583 45.6526C342.486 45.7504 342.36 45.7993 342.206 45.7993L340.256 45.7993ZM349.183 45.7993C349.029 45.7993 348.903 45.7504 348.806 45.6526C348.708 45.5547 348.659 45.4289 348.659 45.2752L348.659 35.422C348.659 35.2683 348.708 35.1425 348.806 35.0446C348.903 34.9468 349.029 34.8979 349.183 34.8979L351.657 34.8979C351.796 34.8979 351.915 34.9468 352.013 35.0446C352.125 35.1425 352.181 35.2683 352.181 35.422L352.181 45.2752C352.181 45.4289 352.125 45.5547 352.013 45.6526C351.915 45.7504 351.796 45.7993 351.657 45.7993L349.183 45.7993ZM349.162 33.3256C349.008 33.3256 348.882 33.2766 348.785 33.1788C348.687 33.081 348.638 32.9552 348.638 32.8015L348.638 30.9356C348.638 30.7819 348.687 30.6561 348.785 30.5583C348.882 30.4465 349.008 30.3906 349.162 30.3906L351.657 30.3906C351.81 30.3906 351.936 30.4465 352.034 30.5583C352.146 30.6561 352.202 30.7819 352.202 30.9356L352.202 32.8015C352.202 32.9552 352.146 33.081 352.034 33.1788C351.936 33.2766 351.81 33.3256 351.657 33.3256L349.162 33.3256ZM364.089 46.009C362.915 46.009 361.923 45.8203 361.112 45.4429C360.316 45.0656 359.701 44.5275 359.268 43.8287C358.848 43.1159 358.611 42.2703 358.555 41.292C358.541 41.0125 358.534 40.698 358.534 40.3486C358.534 39.9852 358.541 39.6708 358.555 39.4052C358.611 38.4129 358.862 37.5673 359.309 36.8685C359.757 36.1697 360.379 35.6316 361.175 35.2543C361.986 34.8769 362.957 34.6882 364.089 34.6882C365.235 34.6882 366.207 34.8769 367.003 35.2543C367.814 35.6316 368.443 36.1697 368.89 36.8685C369.337 37.5673 369.589 38.4129 369.645 39.4052C369.659 39.6708 369.666 39.9852 369.666 40.3486C369.666 40.698 369.659 41.0125 369.645 41.292C369.589 42.2703 369.344 43.1159 368.911 43.8287C368.492 44.5275 367.877 45.0656 367.066 45.4429C366.27 45.8203 365.277 46.009 364.089 46.009ZM364.089 43.4513C364.718 43.4513 365.172 43.2626 365.452 42.8853C365.745 42.5079 365.913 41.9419 365.955 41.1872C365.969 40.9775 365.976 40.698 365.976 40.3486C365.976 39.9992 365.969 39.7197 365.955 39.51C365.913 38.7693 365.745 38.2102 365.452 37.8329C365.172 37.4416 364.718 37.2459 364.089 37.2459C363.474 37.2459 363.02 37.4416 362.727 37.8329C362.433 38.2102 362.272 38.7693 362.244 39.51C362.23 39.7197 362.223 39.9992 362.223 40.3486C362.223 40.698 362.23 40.9775 362.244 41.1872C362.272 41.9419 362.433 42.5079 362.727 42.8853C363.02 43.2626 363.474 43.4513 364.089 43.4513ZM376.445 45.7993C376.291 45.7993 376.165 45.7504 376.067 45.6526C375.969 45.5547 375.921 45.4289 375.921 45.2752L375.921 35.422C375.921 35.2683 375.969 35.1425 376.067 35.0446C376.165 34.9468 376.291 34.8979 376.445 34.8979L378.856 34.8979C379.009 34.8979 379.135 34.9468 379.233 35.0446C379.331 35.1425 379.38 35.2683 379.38 35.422L379.38 36.2186C379.743 35.7854 380.218 35.422 380.805 35.1285C381.392 34.835 382.084 34.6882 382.881 34.6882C383.691 34.6882 384.404 34.8699 385.019 35.2333C385.648 35.5967 386.137 36.1348 386.487 36.8476C386.85 37.5464 387.032 38.4059 387.032 39.4262L387.032 45.2752C387.032 45.4289 386.976 45.5547 386.864 45.6526C386.766 45.7504 386.647 45.7993 386.507 45.7993L383.866 45.7993C383.726 45.7993 383.6 45.7504 383.489 45.6526C383.391 45.5547 383.342 45.4289 383.342 45.2752L383.342 39.552C383.342 38.8951 383.181 38.3919 382.86 38.0425C382.552 37.6791 382.091 37.4975 381.476 37.4975C380.903 37.4975 380.442 37.6791 380.092 38.0425C379.757 38.3919 379.589 38.8951 379.589 39.552L379.589 45.2752C379.589 45.4289 379.533 45.5547 379.422 45.6526C379.324 45.7504 379.205 45.7993 379.065 45.7993L376.445 45.7993Z" fill="white"/>
</svg>
