<svg width="625" height="260" viewBox="0 0 625 260" fill="none" xmlns="http://www.w3.org/2000/svg">
<path d="M9.31746 93.0801L434.97 93.0801C441.244 93.0801 444.609 100.458 440.496 105.195L391.96 161.1C390.57 162.7 388.554 163.62 386.435 163.62L9.31745 163.62C5.27613 163.62 2 160.344 2 156.302L2 100.398C2 96.3562 5.27613 93.0801 9.31746 93.0801Z" stroke="url(#paint0_linear_100_1417)" stroke-width="4" stroke-linejoin="round"/>
<path opacity="0.99" d="M34.337 136.879C34.1833 136.879 34.0575 136.83 33.9596 136.733C33.8618 136.635 33.8129 136.509 33.8129 136.355L33.8129 125.496L30.0812 125.496C29.9275 125.496 29.8017 125.447 29.7039 125.349C29.606 125.237 29.5571 125.111 29.5571 124.972L29.5571 122.729C29.5571 122.575 29.606 122.449 29.7039 122.351C29.8017 122.253 29.9275 122.204 30.0812 122.204L41.36 122.204C41.5138 122.204 41.6395 122.253 41.7374 122.351C41.8352 122.449 41.8841 122.575 41.8841 122.729L41.8841 124.972C41.8841 125.111 41.8352 125.237 41.7374 125.349C41.6395 125.447 41.5138 125.496 41.36 125.496L37.6284 125.496L37.6284 136.355C37.6284 136.509 37.5795 136.635 37.4816 136.733C37.3838 136.83 37.258 136.879 37.1043 136.879L34.337 136.879ZM50.9405 137.089C49.2913 137.089 47.9776 136.642 46.9993 135.747C46.0209 134.853 45.5108 133.525 45.4689 131.764C45.4689 131.666 45.4689 131.54 45.4689 131.387C45.4689 131.233 45.4689 131.114 45.4689 131.03C45.5108 129.926 45.7554 128.983 46.2026 128.2C46.6638 127.404 47.2928 126.803 48.0894 126.397C48.9 125.978 49.8434 125.768 50.9196 125.768C52.1495 125.768 53.1628 126.013 53.9594 126.502C54.77 126.991 55.378 127.655 55.7833 128.494C56.1886 129.332 56.3913 130.29 56.3913 131.366L56.3913 131.869C56.3913 132.023 56.3353 132.148 56.2235 132.246C56.1257 132.344 56.0069 132.393 55.8671 132.393L49.1586 132.393C49.1586 132.407 49.1586 132.428 49.1586 132.456C49.1586 132.484 49.1586 132.512 49.1586 132.54C49.1726 132.945 49.2424 133.315 49.3682 133.651C49.494 133.986 49.6897 134.252 49.9552 134.448C50.2208 134.643 50.5422 134.741 50.9196 134.741C51.1991 134.741 51.4297 134.699 51.6114 134.615C51.8071 134.517 51.9678 134.413 52.0936 134.301C52.2194 134.175 52.3172 134.07 52.3871 133.986C52.5129 133.847 52.6107 133.763 52.6806 133.735C52.7644 133.693 52.8902 133.672 53.0579 133.672L55.6575 133.672C55.7973 133.672 55.9091 133.714 55.9929 133.798C56.0908 133.868 56.1327 133.972 56.1187 134.112C56.1047 134.35 55.9859 134.636 55.7623 134.972C55.5387 135.307 55.2103 135.643 54.777 135.978C54.3577 136.299 53.8266 136.565 53.1837 136.775C52.5408 136.984 51.7931 137.089 50.9405 137.089ZM49.1586 130.318L52.7015 130.318L52.7015 130.276C52.7015 129.828 52.6317 129.437 52.4919 129.102C52.3661 128.766 52.1635 128.508 51.8839 128.326C51.6184 128.144 51.2969 128.053 50.9196 128.053C50.5422 128.053 50.2208 128.144 49.9552 128.326C49.7036 128.508 49.508 128.766 49.3682 129.102C49.2285 129.437 49.1586 129.828 49.1586 130.276L49.1586 130.318ZM49.7036 124.406C49.48 124.406 49.3682 124.294 49.3682 124.07C49.3682 123.958 49.4032 123.868 49.473 123.798L51.3179 121.555C51.4577 121.387 51.5765 121.282 51.6743 121.24C51.7721 121.184 51.9119 121.156 52.0936 121.156L54.8399 121.156C55.1054 121.156 55.2382 121.296 55.2382 121.575C55.2382 121.673 55.2033 121.757 55.1334 121.827L52.3661 124.112C52.2543 124.21 52.1425 124.287 52.0307 124.343C51.9189 124.385 51.7651 124.406 51.5695 124.406L49.7036 124.406ZM63.0736 136.879C62.9199 136.879 62.7941 136.83 62.6963 136.733C62.5984 136.635 62.5495 136.509 62.5495 136.355L62.5495 122.519C62.5495 122.365 62.5984 122.239 62.6963 122.142C62.7941 122.044 62.9199 121.995 63.0736 121.995L65.5474 121.995C65.7011 121.995 65.8269 122.044 65.9248 122.142C66.0226 122.239 66.0715 122.365 66.0715 122.519L66.0715 136.355C66.0715 136.509 66.0226 136.635 65.9248 136.733C65.8269 136.83 65.7011 136.879 65.5474 136.879L63.0736 136.879ZM77.7724 137.089C76.1232 137.089 74.8094 136.642 73.8311 135.747C72.8527 134.853 72.3426 133.525 72.3007 131.764C72.3007 131.666 72.3007 131.54 72.3007 131.387C72.3007 131.233 72.3007 131.114 72.3007 131.03C72.3426 129.926 72.5872 128.983 73.0344 128.2C73.4957 127.404 74.1246 126.803 74.9212 126.397C75.7318 125.978 76.6752 125.768 77.7514 125.768C78.9813 125.768 79.9946 126.013 80.7912 126.502C81.6018 126.991 82.2098 127.655 82.6151 128.494C83.0204 129.332 83.2231 130.29 83.2231 131.366L83.2231 131.869C83.2231 132.023 83.1672 132.148 83.0554 132.246C82.9575 132.344 82.8387 132.393 82.699 132.393L75.9904 132.393C75.9904 132.407 75.9904 132.428 75.9904 132.456C75.9904 132.484 75.9904 132.512 75.9904 132.54C76.0044 132.945 76.0743 133.315 76.2 133.651C76.3258 133.986 76.5215 134.252 76.787 134.448C77.0526 134.643 77.374 134.741 77.7514 134.741C78.0309 134.741 78.2615 134.699 78.4432 134.615C78.6389 134.517 78.7996 134.413 78.9254 134.301C79.0512 134.175 79.149 134.07 79.2189 133.986C79.3447 133.847 79.4425 133.763 79.5124 133.735C79.5963 133.693 79.722 133.672 79.8898 133.672L82.4893 133.672C82.6291 133.672 82.7409 133.714 82.8248 133.798C82.9226 133.868 82.9645 133.972 82.9505 134.112C82.9366 134.35 82.8178 134.636 82.5942 134.972C82.3705 135.307 82.0421 135.643 81.6088 135.978C81.1895 136.299 80.6584 136.565 80.0155 136.775C79.3726 136.984 78.6249 137.089 77.7724 137.089ZM75.9904 130.318L79.5334 130.318L79.5334 130.276C79.5334 129.828 79.4635 129.437 79.3237 129.102C79.1979 128.766 78.9953 128.508 78.7158 128.326C78.4502 128.144 78.1288 128.053 77.7514 128.053C77.374 128.053 77.0526 128.144 76.787 128.326C76.5355 128.508 76.3398 128.766 76.2 129.102C76.0603 129.437 75.9904 129.828 75.9904 130.276L75.9904 130.318ZM76.5355 124.406C76.3119 124.406 76.2 124.294 76.2 124.07C76.2 123.958 76.235 123.868 76.3049 123.798L78.1497 121.555C78.2895 121.387 78.4083 121.282 78.5061 121.24C78.6039 121.184 78.7437 121.156 78.9254 121.156L81.6717 121.156C81.9373 121.156 82.07 121.296 82.07 121.575C82.07 121.673 82.0351 121.757 81.9652 121.827L79.1979 124.112C79.0861 124.21 78.9743 124.287 78.8625 124.343C78.7507 124.385 78.597 124.406 78.4013 124.406L76.5355 124.406ZM94.3918 137.089C93.3576 137.089 92.4421 136.9 91.6455 136.523C90.8488 136.146 90.2129 135.601 89.7377 134.888C89.2765 134.161 89.0249 133.295 88.983 132.288C88.969 132.065 88.9621 131.785 88.9621 131.45C88.9621 131.1 88.969 130.814 88.983 130.59C89.0249 129.57 89.2765 128.703 89.7377 127.991C90.1989 127.264 90.8279 126.712 91.6245 126.334C92.4351 125.957 93.3576 125.768 94.3918 125.768C95.3562 125.768 96.1808 125.908 96.8656 126.188C97.5504 126.453 98.1095 126.789 98.5427 127.194C98.976 127.599 99.2974 128.018 99.5071 128.452C99.7307 128.871 99.8495 129.241 99.8635 129.563C99.8775 129.703 99.8285 129.828 99.7167 129.94C99.6049 130.038 99.4791 130.087 99.3394 130.087L96.6769 130.087C96.5232 130.087 96.4044 130.052 96.3205 129.982C96.2367 129.912 96.1598 129.807 96.0899 129.668C95.9222 129.234 95.7056 128.927 95.44 128.745C95.1884 128.564 94.86 128.473 94.4547 128.473C93.8956 128.473 93.4624 128.654 93.1549 129.018C92.8614 129.381 92.7007 129.94 92.6727 130.695C92.6588 131.254 92.6588 131.75 92.6727 132.183C92.7007 132.952 92.8614 133.511 93.1549 133.861C93.4624 134.21 93.8956 134.385 94.4547 134.385C94.888 134.385 95.2304 134.294 95.4819 134.112C95.7335 133.93 95.9362 133.623 96.0899 133.19C96.1598 133.05 96.2367 132.945 96.3205 132.875C96.4044 132.805 96.5232 132.77 96.6769 132.77L99.3394 132.77C99.4791 132.77 99.6049 132.826 99.7167 132.938C99.8285 133.036 99.8775 133.155 99.8635 133.295C99.8495 133.532 99.7796 133.812 99.6538 134.133C99.5281 134.441 99.3324 134.769 99.0668 135.118C98.8013 135.468 98.4519 135.796 98.0186 136.104C97.5993 136.397 97.0892 136.635 96.4882 136.817C95.8873 136.998 95.1884 137.089 94.3918 137.089ZM106.464 136.879C106.31 136.879 106.184 136.83 106.087 136.733C105.989 136.635 105.94 136.509 105.94 136.355L105.94 122.519C105.94 122.365 105.989 122.239 106.087 122.142C106.184 122.044 106.31 121.995 106.464 121.995L109.147 121.995C109.301 121.995 109.427 122.044 109.525 122.142C109.623 122.239 109.671 122.365 109.671 122.519L109.671 127.194C110.049 126.761 110.51 126.418 111.055 126.167C111.614 125.901 112.257 125.768 112.984 125.768C113.794 125.768 114.514 125.95 115.143 126.313C115.786 126.677 116.289 127.215 116.653 127.928C117.016 128.626 117.198 129.486 117.198 130.506L117.198 136.355C117.198 136.509 117.149 136.635 117.051 136.733C116.953 136.83 116.827 136.879 116.674 136.879L113.969 136.879C113.829 136.879 113.704 136.83 113.592 136.733C113.494 136.635 113.445 136.509 113.445 136.355L113.445 130.632C113.445 129.975 113.284 129.472 112.963 129.123C112.655 128.759 112.194 128.578 111.579 128.578C111.006 128.578 110.545 128.759 110.196 129.123C109.846 129.472 109.671 129.975 109.671 130.632L109.671 136.355C109.671 136.509 109.623 136.635 109.525 136.733C109.427 136.83 109.301 136.879 109.147 136.879L106.464 136.879ZM127.038 137.089C126.283 137.089 125.606 136.949 125.005 136.67C124.418 136.376 123.949 135.985 123.6 135.496C123.251 135.007 123.076 134.455 123.076 133.84C123.076 132.847 123.481 132.065 124.292 131.492C125.102 130.905 126.179 130.506 127.52 130.297L130.141 129.898L130.141 129.605C130.141 129.102 130.036 128.717 129.826 128.452C129.617 128.186 129.232 128.053 128.673 128.053C128.282 128.053 127.961 128.13 127.709 128.284C127.471 128.438 127.283 128.647 127.143 128.913C127.017 129.095 126.842 129.186 126.619 129.186L124.271 129.186C124.117 129.186 123.998 129.144 123.914 129.06C123.831 128.962 123.796 128.85 123.81 128.724C123.81 128.473 123.9 128.186 124.082 127.865C124.278 127.529 124.571 127.201 124.963 126.879C125.354 126.558 125.857 126.292 126.472 126.083C127.087 125.873 127.828 125.768 128.694 125.768C129.603 125.768 130.378 125.873 131.021 126.083C131.664 126.292 132.181 126.586 132.573 126.963C132.978 127.341 133.278 127.788 133.474 128.305C133.67 128.808 133.768 129.367 133.768 129.982L133.768 136.355C133.768 136.509 133.712 136.635 133.6 136.733C133.502 136.83 133.383 136.879 133.244 136.879L130.812 136.879C130.658 136.879 130.532 136.83 130.434 136.733C130.336 136.635 130.288 136.509 130.288 136.355L130.288 135.622C130.106 135.887 129.861 136.132 129.554 136.355C129.246 136.579 128.883 136.754 128.464 136.879C128.058 137.019 127.583 137.089 127.038 137.089ZM128.023 134.699C128.429 134.699 128.792 134.615 129.114 134.448C129.449 134.266 129.708 133.993 129.889 133.63C130.085 133.253 130.183 132.784 130.183 132.225L130.183 131.932L128.401 132.246C127.744 132.358 127.262 132.533 126.954 132.77C126.661 132.994 126.514 133.26 126.514 133.567C126.514 133.805 126.584 134.007 126.724 134.175C126.863 134.343 127.045 134.475 127.269 134.573C127.492 134.657 127.744 134.699 128.023 134.699ZM140.85 136.879C140.697 136.879 140.571 136.83 140.473 136.733C140.375 136.635 140.326 136.509 140.326 136.355L140.326 126.502C140.326 126.362 140.375 126.244 140.473 126.146C140.571 126.034 140.697 125.978 140.85 125.978L143.261 125.978C143.415 125.978 143.541 126.034 143.639 126.146C143.736 126.244 143.785 126.362 143.785 126.502L143.785 127.341C144.163 126.907 144.61 126.572 145.127 126.334C145.658 126.097 146.252 125.978 146.909 125.978L147.831 125.978C147.971 125.978 148.09 126.027 148.188 126.125C148.3 126.223 148.356 126.348 148.356 126.502L148.356 128.661C148.356 128.801 148.3 128.927 148.188 129.039C148.09 129.137 147.971 129.186 147.831 129.186L145.798 129.186C145.225 129.186 144.778 129.346 144.456 129.668C144.149 129.975 143.995 130.415 143.995 130.988L143.995 136.355C143.995 136.509 143.939 136.635 143.827 136.733C143.729 136.83 143.604 136.879 143.45 136.879L140.85 136.879ZM159.282 141.492C158.206 141.492 157.312 141.352 156.599 141.072C155.9 140.793 155.341 140.457 154.922 140.066C154.517 139.675 154.223 139.283 154.041 138.892C153.86 138.515 153.762 138.214 153.748 137.991C153.734 137.837 153.783 137.711 153.895 137.613C154.006 137.515 154.139 137.466 154.293 137.466L156.955 137.466C157.081 137.466 157.186 137.494 157.27 137.55C157.368 137.62 157.445 137.732 157.501 137.886C157.57 138.039 157.661 138.2 157.773 138.368C157.899 138.536 158.067 138.668 158.276 138.766C158.5 138.878 158.8 138.934 159.178 138.934C159.597 138.934 159.946 138.864 160.226 138.724C160.505 138.598 160.715 138.382 160.855 138.074C160.995 137.781 161.064 137.383 161.064 136.879L161.064 135.475C160.743 135.824 160.331 136.111 159.828 136.334C159.324 136.544 158.716 136.649 158.004 136.649C157.291 136.649 156.662 136.544 156.117 136.334C155.572 136.125 155.118 135.81 154.754 135.391C154.391 134.972 154.104 134.462 153.895 133.861C153.699 133.26 153.58 132.568 153.538 131.785C153.524 131.422 153.524 131.058 153.538 130.695C153.58 129.94 153.699 129.262 153.895 128.661C154.09 128.06 154.37 127.543 154.733 127.11C155.111 126.677 155.572 126.348 156.117 126.125C156.662 125.887 157.291 125.768 158.004 125.768C158.758 125.768 159.401 125.915 159.932 126.209C160.477 126.488 160.925 126.844 161.274 127.278L161.274 126.502C161.274 126.362 161.323 126.244 161.421 126.146C161.519 126.034 161.644 125.978 161.798 125.978L164.209 125.978C164.363 125.978 164.489 126.034 164.586 126.146C164.698 126.244 164.754 126.362 164.754 126.502L164.754 136.586C164.754 137.648 164.538 138.543 164.104 139.269C163.671 139.996 163.049 140.548 162.238 140.926C161.428 141.303 160.443 141.492 159.282 141.492ZM159.136 133.923C159.583 133.923 159.946 133.826 160.226 133.63C160.505 133.434 160.708 133.183 160.834 132.875C160.974 132.568 161.05 132.239 161.064 131.89C161.078 131.736 161.085 131.52 161.085 131.24C161.085 130.96 161.078 130.751 161.064 130.611C161.05 130.248 160.974 129.912 160.834 129.605C160.708 129.297 160.505 129.053 160.226 128.871C159.946 128.675 159.583 128.578 159.136 128.578C158.675 128.578 158.304 128.675 158.025 128.871C157.759 129.067 157.563 129.332 157.438 129.668C157.326 130.003 157.256 130.373 157.228 130.779C157.214 131.086 157.214 131.401 157.228 131.722C157.256 132.127 157.326 132.498 157.438 132.833C157.563 133.169 157.759 133.434 158.025 133.63C158.304 133.826 158.675 133.923 159.136 133.923ZM176.448 137.089C174.799 137.089 173.485 136.642 172.507 135.747C171.528 134.853 171.018 133.525 170.976 131.764C170.976 131.666 170.976 131.54 170.976 131.387C170.976 131.233 170.976 131.114 170.976 131.03C171.018 129.926 171.263 128.983 171.71 128.2C172.171 127.404 172.8 126.803 173.597 126.397C174.407 125.978 175.351 125.768 176.427 125.768C177.657 125.768 178.67 126.013 179.467 126.502C180.277 126.991 180.885 127.655 181.291 128.494C181.696 129.332 181.899 130.29 181.899 131.366L181.899 131.869C181.899 132.023 181.843 132.148 181.731 132.246C181.633 132.344 181.514 132.393 181.374 132.393L174.666 132.393C174.666 132.407 174.666 132.428 174.666 132.456C174.666 132.484 174.666 132.512 174.666 132.54C174.68 132.945 174.75 133.315 174.875 133.651C175.001 133.986 175.197 134.252 175.462 134.448C175.728 134.643 176.049 134.741 176.427 134.741C176.706 134.741 176.937 134.699 177.119 134.615C177.314 134.517 177.475 134.413 177.601 134.301C177.727 134.175 177.824 134.07 177.894 133.986C178.02 133.847 178.118 133.763 178.188 133.735C178.272 133.693 178.397 133.672 178.565 133.672L181.165 133.672C181.305 133.672 181.416 133.714 181.5 133.798C181.598 133.868 181.64 133.972 181.626 134.112C181.612 134.35 181.493 134.636 181.27 134.972C181.046 135.307 180.718 135.643 180.284 135.978C179.865 136.299 179.334 136.565 178.691 136.775C178.048 136.984 177.3 137.089 176.448 137.089ZM174.666 130.318L178.209 130.318L178.209 130.276C178.209 129.828 178.139 129.437 177.999 129.102C177.873 128.766 177.671 128.508 177.391 128.326C177.126 128.144 176.804 128.053 176.427 128.053C176.049 128.053 175.728 128.144 175.462 128.326C175.211 128.508 175.015 128.766 174.875 129.102C174.736 129.437 174.666 129.828 174.666 130.276L174.666 130.318ZM188.581 136.879C188.427 136.879 188.301 136.83 188.204 136.733C188.106 136.635 188.057 136.509 188.057 136.355L188.057 126.502C188.057 126.362 188.106 126.244 188.204 126.146C188.301 126.034 188.427 125.978 188.581 125.978L190.992 125.978C191.146 125.978 191.271 126.034 191.369 126.146C191.467 126.244 191.516 126.362 191.516 126.502L191.516 127.341C191.893 126.907 192.34 126.572 192.858 126.334C193.389 126.097 193.983 125.978 194.64 125.978L195.562 125.978C195.702 125.978 195.821 126.027 195.918 126.125C196.03 126.223 196.086 126.348 196.086 126.502L196.086 128.661C196.086 128.801 196.03 128.927 195.918 129.039C195.821 129.137 195.702 129.186 195.562 129.186L193.528 129.186C192.955 129.186 192.508 129.346 192.187 129.668C191.879 129.975 191.726 130.415 191.726 130.988L191.726 136.355C191.726 136.509 191.67 136.635 191.558 136.733C191.46 136.83 191.334 136.879 191.18 136.879L188.581 136.879ZM210.52 136.879C210.366 136.879 210.24 136.83 210.142 136.733C210.045 136.635 209.996 136.509 209.996 136.355L209.996 122.519C209.996 122.365 210.045 122.239 210.142 122.142C210.24 122.044 210.366 121.995 210.52 121.995L212.993 121.995C213.147 121.995 213.273 122.044 213.371 122.142C213.469 122.239 213.518 122.365 213.518 122.519L213.518 136.355C213.518 136.509 213.469 136.635 213.371 136.733C213.273 136.83 213.147 136.879 212.993 136.879L210.52 136.879ZM220.229 127.278C220.103 127.278 219.998 127.236 219.914 127.152C219.845 127.068 219.817 126.949 219.831 126.796L220.46 122.708C220.487 122.526 220.557 122.365 220.669 122.225C220.795 122.072 220.977 121.995 221.214 121.995L223.667 121.995C223.779 121.995 223.87 122.037 223.94 122.121C224.023 122.204 224.065 122.302 224.065 122.414C224.065 122.498 224.051 122.575 224.023 122.645L222.451 126.691C222.395 126.831 222.311 126.963 222.2 127.089C222.088 127.215 221.913 127.278 221.675 127.278L220.229 127.278ZM232.339 137.089C231.584 137.089 230.906 136.949 230.305 136.67C229.718 136.376 229.25 135.985 228.9 135.496C228.551 135.007 228.376 134.455 228.376 133.84C228.376 132.847 228.782 132.065 229.592 131.492C230.403 130.905 231.479 130.506 232.821 130.297L235.441 129.898L235.441 129.605C235.441 129.102 235.336 128.717 235.127 128.452C234.917 128.186 234.533 128.053 233.974 128.053C233.582 128.053 233.261 128.13 233.009 128.284C232.772 128.438 232.583 128.647 232.443 128.913C232.318 129.095 232.143 129.186 231.919 129.186L229.571 129.186C229.418 129.186 229.299 129.144 229.215 129.06C229.131 128.962 229.096 128.85 229.11 128.724C229.11 128.473 229.201 128.186 229.383 127.865C229.578 127.529 229.872 127.201 230.263 126.879C230.654 126.558 231.158 126.292 231.773 126.083C232.388 125.873 233.128 125.768 233.995 125.768C234.903 125.768 235.679 125.873 236.322 126.083C236.965 126.292 237.482 126.586 237.873 126.963C238.278 127.341 238.579 127.788 238.775 128.305C238.97 128.808 239.068 129.367 239.068 129.982L239.068 136.355C239.068 136.509 239.012 136.635 238.9 136.733C238.803 136.83 238.684 136.879 238.544 136.879L236.112 136.879C235.958 136.879 235.833 136.83 235.735 136.733C235.637 136.635 235.588 136.509 235.588 136.355L235.588 135.622C235.406 135.887 235.162 136.132 234.854 136.355C234.547 136.579 234.183 136.754 233.764 136.879C233.359 137.019 232.884 137.089 232.339 137.089ZM233.324 134.699C233.729 134.699 234.093 134.615 234.414 134.448C234.749 134.266 235.008 133.993 235.19 133.63C235.385 133.253 235.483 132.784 235.483 132.225L235.483 131.932L233.701 132.246C233.044 132.358 232.562 132.533 232.255 132.77C231.961 132.994 231.814 133.26 231.814 133.567C231.814 133.805 231.884 134.007 232.024 134.175C232.164 134.343 232.346 134.475 232.569 134.573C232.793 134.657 233.044 134.699 233.324 134.699ZM246.151 140.863C245.997 140.863 245.871 140.814 245.773 140.716C245.676 140.618 245.627 140.492 245.627 140.339L245.627 126.502C245.627 126.348 245.676 126.223 245.773 126.125C245.871 126.027 245.997 125.978 246.151 125.978L248.52 125.978C248.66 125.978 248.778 126.027 248.876 126.125C248.988 126.223 249.044 126.348 249.044 126.502L249.044 127.278C249.365 126.844 249.792 126.488 250.323 126.209C250.854 125.915 251.511 125.768 252.293 125.768C252.992 125.768 253.607 125.88 254.138 126.104C254.669 126.313 255.123 126.628 255.501 127.047C255.878 127.466 256.172 127.977 256.381 128.578C256.605 129.179 256.731 129.87 256.759 130.653C256.773 130.933 256.78 131.191 256.78 131.429C256.78 131.666 256.773 131.925 256.759 132.204C256.731 132.959 256.612 133.637 256.402 134.238C256.193 134.839 255.899 135.349 255.522 135.768C255.144 136.188 254.683 136.516 254.138 136.754C253.607 136.977 252.992 137.089 252.293 137.089C251.608 137.089 251.008 136.97 250.49 136.733C249.987 136.481 249.568 136.132 249.233 135.684L249.233 140.339C249.233 140.492 249.184 140.618 249.086 140.716C248.988 140.814 248.862 140.863 248.708 140.863L246.151 140.863ZM251.161 134.28C251.636 134.28 252.007 134.182 252.272 133.986C252.538 133.791 252.727 133.525 252.838 133.19C252.964 132.854 253.041 132.484 253.069 132.079C253.097 131.645 253.097 131.212 253.069 130.779C253.041 130.373 252.964 130.003 252.838 129.668C252.727 129.332 252.538 129.067 252.272 128.871C252.007 128.675 251.636 128.578 251.161 128.578C250.7 128.578 250.33 128.682 250.05 128.892C249.771 129.088 249.568 129.346 249.442 129.668C249.316 129.989 249.247 130.339 249.233 130.716C249.219 130.981 249.212 131.24 249.212 131.492C249.212 131.743 249.219 132.009 249.233 132.288C249.247 132.638 249.323 132.966 249.463 133.274C249.603 133.567 249.813 133.812 250.092 134.007C250.372 134.189 250.728 134.28 251.161 134.28ZM263.569 140.863C263.415 140.863 263.29 140.814 263.192 140.716C263.094 140.618 263.045 140.492 263.045 140.339L263.045 126.502C263.045 126.348 263.094 126.223 263.192 126.125C263.29 126.027 263.415 125.978 263.569 125.978L265.938 125.978C266.078 125.978 266.197 126.027 266.295 126.125C266.406 126.223 266.462 126.348 266.462 126.502L266.462 127.278C266.784 126.844 267.21 126.488 267.741 126.209C268.272 125.915 268.929 125.768 269.712 125.768C270.41 125.768 271.025 125.88 271.557 126.104C272.088 126.313 272.542 126.628 272.919 127.047C273.297 127.466 273.59 127.977 273.8 128.578C274.023 129.179 274.149 129.87 274.177 130.653C274.191 130.933 274.198 131.191 274.198 131.429C274.198 131.666 274.191 131.925 274.177 132.204C274.149 132.959 274.03 133.637 273.821 134.238C273.611 134.839 273.318 135.349 272.94 135.768C272.563 136.188 272.102 136.516 271.557 136.754C271.025 136.977 270.41 137.089 269.712 137.089C269.027 137.089 268.426 136.97 267.909 136.733C267.406 136.481 266.986 136.132 266.651 135.684L266.651 140.339C266.651 140.492 266.602 140.618 266.504 140.716C266.406 140.814 266.281 140.863 266.127 140.863L263.569 140.863ZM268.58 134.28C269.055 134.28 269.425 134.182 269.691 133.986C269.956 133.791 270.145 133.525 270.257 133.19C270.383 132.854 270.459 132.484 270.487 132.079C270.515 131.645 270.515 131.212 270.487 130.779C270.459 130.373 270.383 130.003 270.257 129.668C270.145 129.332 269.956 129.067 269.691 128.871C269.425 128.675 269.055 128.578 268.58 128.578C268.118 128.578 267.748 128.682 267.469 128.892C267.189 129.088 266.986 129.346 266.861 129.668C266.735 129.989 266.665 130.339 266.651 130.716C266.637 130.981 266.63 131.24 266.63 131.492C266.63 131.743 266.637 132.009 266.651 132.288C266.665 132.638 266.742 132.966 266.882 133.274C267.021 133.567 267.231 133.812 267.51 134.007C267.79 134.189 268.146 134.28 268.58 134.28ZM280.988 136.879C280.834 136.879 280.708 136.83 280.61 136.733C280.512 136.635 280.463 136.509 280.463 136.355L280.463 122.519C280.463 122.365 280.512 122.239 280.61 122.142C280.708 122.044 280.834 121.995 280.988 121.995L283.461 121.995C283.615 121.995 283.741 122.044 283.839 122.142C283.937 122.239 283.985 122.365 283.985 122.519L283.985 136.355C283.985 136.509 283.937 136.635 283.839 136.733C283.741 136.83 283.615 136.879 283.461 136.879L280.988 136.879ZM291.896 136.879C291.742 136.879 291.616 136.83 291.518 136.733C291.42 136.635 291.371 136.509 291.371 136.355L291.371 126.502C291.371 126.348 291.42 126.223 291.518 126.125C291.616 126.027 291.742 125.978 291.896 125.978L294.369 125.978C294.509 125.978 294.628 126.027 294.726 126.125C294.838 126.223 294.893 126.348 294.893 126.502L294.893 136.355C294.893 136.509 294.838 136.635 294.726 136.733C294.628 136.83 294.509 136.879 294.369 136.879L291.896 136.879ZM291.875 124.406C291.721 124.406 291.595 124.357 291.497 124.259C291.399 124.161 291.35 124.035 291.35 123.882L291.35 122.016C291.35 121.862 291.399 121.736 291.497 121.638C291.595 121.527 291.721 121.471 291.875 121.471L294.369 121.471C294.523 121.471 294.649 121.527 294.747 121.638C294.858 121.736 294.914 121.862 294.914 122.016L294.914 123.882C294.914 124.035 294.858 124.161 294.747 124.259C294.649 124.357 294.523 124.406 294.369 124.406L291.875 124.406ZM306.655 137.089C305.621 137.089 304.706 136.9 303.909 136.523C303.112 136.146 302.476 135.601 302.001 134.888C301.54 134.161 301.288 133.295 301.246 132.288C301.232 132.065 301.225 131.785 301.225 131.45C301.225 131.1 301.232 130.814 301.246 130.59C301.288 129.57 301.54 128.703 302.001 127.991C302.462 127.264 303.091 126.712 303.888 126.334C304.699 125.957 305.621 125.768 306.655 125.768C307.62 125.768 308.444 125.908 309.129 126.188C309.814 126.453 310.373 126.789 310.806 127.194C311.239 127.599 311.561 128.018 311.77 128.452C311.994 128.871 312.113 129.241 312.127 129.563C312.141 129.703 312.092 129.828 311.98 129.94C311.868 130.038 311.743 130.087 311.603 130.087L308.94 130.087C308.787 130.087 308.668 130.052 308.584 129.982C308.5 129.912 308.423 129.807 308.353 129.668C308.186 129.234 307.969 128.927 307.703 128.745C307.452 128.564 307.123 128.473 306.718 128.473C306.159 128.473 305.726 128.654 305.418 129.018C305.125 129.381 304.964 129.94 304.936 130.695C304.922 131.254 304.922 131.75 304.936 132.183C304.964 132.952 305.125 133.511 305.418 133.861C305.726 134.21 306.159 134.385 306.718 134.385C307.151 134.385 307.494 134.294 307.745 134.112C307.997 133.93 308.2 133.623 308.353 133.19C308.423 133.05 308.5 132.945 308.584 132.875C308.668 132.805 308.787 132.77 308.94 132.77L311.603 132.77C311.743 132.77 311.868 132.826 311.98 132.938C312.092 133.036 312.141 133.155 312.127 133.295C312.113 133.532 312.043 133.812 311.917 134.133C311.791 134.441 311.596 134.769 311.33 135.118C311.065 135.468 310.715 135.796 310.282 136.104C309.863 136.397 309.353 136.635 308.752 136.817C308.151 136.998 307.452 137.089 306.655 137.089ZM321.474 137.089C320.719 137.089 320.041 136.949 319.44 136.67C318.853 136.376 318.385 135.985 318.036 135.496C317.686 135.007 317.511 134.455 317.511 133.84C317.511 132.847 317.917 132.065 318.727 131.492C319.538 130.905 320.614 130.506 321.956 130.297L324.576 129.898L324.576 129.605C324.576 129.102 324.472 128.717 324.262 128.452C324.052 128.186 323.668 128.053 323.109 128.053C322.718 128.053 322.396 128.13 322.145 128.284C321.907 128.438 321.718 128.647 321.578 128.913C321.453 129.095 321.278 129.186 321.054 129.186L318.706 129.186C318.553 129.186 318.434 129.144 318.35 129.06C318.266 128.962 318.231 128.85 318.245 128.724C318.245 128.473 318.336 128.186 318.518 127.865C318.713 127.529 319.007 127.201 319.398 126.879C319.79 126.558 320.293 126.292 320.908 126.083C321.523 125.873 322.263 125.768 323.13 125.768C324.038 125.768 324.814 125.873 325.457 126.083C326.1 126.292 326.617 126.586 327.008 126.963C327.414 127.341 327.714 127.788 327.91 128.305C328.105 128.808 328.203 129.367 328.203 129.982L328.203 136.355C328.203 136.509 328.147 136.635 328.035 136.733C327.938 136.83 327.819 136.879 327.679 136.879L325.247 136.879C325.093 136.879 324.968 136.83 324.87 136.733C324.772 136.635 324.723 136.509 324.723 136.355L324.723 135.622C324.541 135.887 324.297 136.132 323.989 136.355C323.682 136.579 323.319 136.754 322.899 136.879C322.494 137.019 322.019 137.089 321.474 137.089ZM322.459 134.699C322.864 134.699 323.228 134.615 323.549 134.448C323.885 134.266 324.143 133.993 324.325 133.63C324.52 133.253 324.618 132.784 324.618 132.225L324.618 131.932L322.836 132.246C322.179 132.358 321.697 132.533 321.39 132.77C321.096 132.994 320.95 133.26 320.95 133.567C320.95 133.805 321.019 134.007 321.159 134.175C321.299 134.343 321.481 134.475 321.704 134.573C321.928 134.657 322.179 134.699 322.459 134.699ZM340.256 136.879C339.362 136.879 338.586 136.74 337.929 136.46C337.286 136.167 336.79 135.719 336.441 135.118C336.091 134.503 335.917 133.714 335.917 132.749L335.917 128.724L334.282 128.724C334.128 128.724 333.995 128.675 333.883 128.578C333.785 128.48 333.736 128.354 333.736 128.2L333.736 126.502C333.736 126.348 333.785 126.223 333.883 126.125C333.995 126.027 334.128 125.978 334.282 125.978L335.917 125.978L335.917 122.519C335.917 122.365 335.966 122.239 336.063 122.142C336.175 122.044 336.301 121.995 336.441 121.995L338.873 121.995C339.026 121.995 339.152 122.044 339.25 122.142C339.348 122.239 339.397 122.365 339.397 122.519L339.397 125.978L342.017 125.978C342.171 125.978 342.297 126.027 342.395 126.125C342.493 126.223 342.541 126.348 342.541 126.502L342.541 128.2C342.541 128.354 342.493 128.48 342.395 128.578C342.297 128.675 342.171 128.724 342.017 128.724L339.397 128.724L339.397 132.456C339.397 132.931 339.488 133.308 339.669 133.588C339.851 133.868 340.159 134.007 340.592 134.007L342.206 134.007C342.36 134.007 342.486 134.056 342.583 134.154C342.681 134.252 342.73 134.378 342.73 134.531L342.73 136.355C342.73 136.509 342.681 136.635 342.583 136.733C342.486 136.83 342.36 136.879 342.206 136.879L340.256 136.879ZM349.183 136.879C349.029 136.879 348.903 136.83 348.806 136.733C348.708 136.635 348.659 136.509 348.659 136.355L348.659 126.502C348.659 126.348 348.708 126.223 348.806 126.125C348.903 126.027 349.029 125.978 349.183 125.978L351.657 125.978C351.796 125.978 351.915 126.027 352.013 126.125C352.125 126.223 352.181 126.348 352.181 126.502L352.181 136.355C352.181 136.509 352.125 136.635 352.013 136.733C351.915 136.83 351.796 136.879 351.657 136.879L349.183 136.879ZM349.162 124.406C349.008 124.406 348.882 124.357 348.785 124.259C348.687 124.161 348.638 124.035 348.638 123.882L348.638 122.016C348.638 121.862 348.687 121.736 348.785 121.638C348.882 121.527 349.008 121.471 349.162 121.471L351.657 121.471C351.81 121.471 351.936 121.527 352.034 121.638C352.146 121.736 352.202 121.862 352.202 122.016L352.202 123.882C352.202 124.035 352.146 124.161 352.034 124.259C351.936 124.357 351.81 124.406 351.657 124.406L349.162 124.406ZM364.089 137.089C362.915 137.089 361.923 136.9 361.112 136.523C360.316 136.146 359.701 135.608 359.268 134.909C358.848 134.196 358.611 133.35 358.555 132.372C358.541 132.093 358.534 131.778 358.534 131.429C358.534 131.065 358.541 130.751 358.555 130.485C358.611 129.493 358.862 128.647 359.309 127.949C359.757 127.25 360.379 126.712 361.175 126.334C361.986 125.957 362.957 125.768 364.089 125.768C365.235 125.768 366.207 125.957 367.003 126.334C367.814 126.712 368.443 127.25 368.89 127.949C369.337 128.647 369.589 129.493 369.645 130.485C369.659 130.751 369.666 131.065 369.666 131.429C369.666 131.778 369.659 132.093 369.645 132.372C369.589 133.35 369.344 134.196 368.911 134.909C368.492 135.608 367.877 136.146 367.066 136.523C366.27 136.9 365.277 137.089 364.089 137.089ZM364.089 134.531C364.718 134.531 365.172 134.343 365.452 133.965C365.745 133.588 365.913 133.022 365.955 132.267C365.969 132.058 365.976 131.778 365.976 131.429C365.976 131.079 365.969 130.8 365.955 130.59C365.913 129.849 365.745 129.29 365.452 128.913C365.172 128.522 364.718 128.326 364.089 128.326C363.474 128.326 363.02 128.522 362.727 128.913C362.433 129.29 362.272 129.849 362.244 130.59C362.23 130.8 362.223 131.079 362.223 131.429C362.223 131.778 362.23 132.058 362.244 132.267C362.272 133.022 362.433 133.588 362.727 133.965C363.02 134.343 363.474 134.531 364.089 134.531ZM376.445 136.879C376.291 136.879 376.165 136.83 376.067 136.733C375.969 136.635 375.921 136.509 375.921 136.355L375.921 126.502C375.921 126.348 375.969 126.223 376.067 126.125C376.165 126.027 376.291 125.978 376.445 125.978L378.856 125.978C379.009 125.978 379.135 126.027 379.233 126.125C379.331 126.223 379.38 126.348 379.38 126.502L379.38 127.299C379.743 126.865 380.218 126.502 380.805 126.209C381.392 125.915 382.084 125.768 382.881 125.768C383.691 125.768 384.404 125.95 385.019 126.313C385.648 126.677 386.137 127.215 386.487 127.928C386.85 128.626 387.032 129.486 387.032 130.506L387.032 136.355C387.032 136.509 386.976 136.635 386.864 136.733C386.766 136.83 386.647 136.879 386.507 136.879L383.866 136.879C383.726 136.879 383.6 136.83 383.489 136.733C383.391 136.635 383.342 136.509 383.342 136.355L383.342 130.632C383.342 129.975 383.181 129.472 382.86 129.123C382.552 128.759 382.091 128.578 381.476 128.578C380.903 128.578 380.442 128.759 380.092 129.123C379.757 129.472 379.589 129.975 379.589 130.632L379.589 136.355C379.589 136.509 379.533 136.635 379.422 136.733C379.324 136.83 379.205 136.879 379.065 136.879L376.445 136.879Z" fill="white"/>
<g opacity="0.5" filter="url(#filter0_f_100_1417)">
<path d="M460.042 106.126C467.103 98.4008 477.087 94 487.553 94H547.89C568.473 94 585.16 110.686 585.16 131.27V131.27C585.16 151.853 568.473 168.54 547.89 168.54H487.553C455.15 168.54 438.182 130.045 460.042 106.126V106.126Z" fill="#FFA503"/>
</g>
<path d="M469.802 93.7505C471.577 91.8093 474.08 90.6953 476.696 90.6808L576.677 90.1259C581.823 90.0973 585.971 94.2457 585.943 99.3915L585.635 154.885C585.606 160.031 581.412 164.226 576.266 164.254L425.567 165.091C417.466 165.136 413.278 155.535 418.776 149.526L469.802 93.7505Z" fill="url(#paint1_angular_100_1417)"/>
<path d="M505.526 140.945L501.596 137.015" stroke="white" stroke-width="2.81027" stroke-linecap="round" stroke-linejoin="round"/>
<path d="M528.309 113.005C524.087 112.559 508.737 112.311 503.606 131.076L511.467 138.937C530.096 133.671 529.946 118.443 529.537 114.234C529.51 113.916 529.373 113.619 529.148 113.394C528.924 113.17 528.627 113.032 528.309 113.005Z" stroke="white" stroke-width="2.81027" stroke-linecap="round" stroke-linejoin="round"/>
<path d="M510.901 118.35L502.374 119.163C502.162 119.181 501.957 119.249 501.776 119.361C501.595 119.474 501.443 119.628 501.333 119.811L495.926 128.24C495.798 128.441 495.723 128.67 495.708 128.907C495.693 129.144 495.738 129.38 495.839 129.593C495.94 129.806 496.095 129.989 496.287 130.125C496.48 130.261 496.704 130.346 496.939 130.371L503.605 131.075" stroke="white" stroke-width="2.81027" stroke-linecap="round" stroke-linejoin="round"/>
<path d="M524.216 131.467L523.377 140.167C523.36 140.379 523.292 140.584 523.179 140.765C523.067 140.946 522.912 141.098 522.729 141.208L514.301 146.615C514.1 146.743 513.87 146.818 513.634 146.834C513.397 146.849 513.161 146.804 512.948 146.702C512.735 146.601 512.552 146.447 512.415 146.254C512.279 146.062 512.195 145.837 512.17 145.602L511.466 138.936" stroke="white" stroke-width="2.81027" stroke-linecap="round" stroke-linejoin="round"/>
<path d="M517.94 129.545C518.754 130.359 520.082 130.352 520.905 129.529C521.728 128.705 521.735 127.378 520.921 126.564C520.107 125.75 518.78 125.758 517.957 126.581C517.134 127.404 517.126 128.731 517.94 129.545Z" fill="white"/>
<defs>
<filter id="filter0_f_100_1417" x="391.975" y="35.7659" width="251.418" height="191.008" filterUnits="userSpaceOnUse" color-interpolation-filters="sRGB">
<feFlood flood-opacity="0" result="BackgroundImageFix"/>
<feBlend mode="normal" in="SourceGraphic" in2="BackgroundImageFix" result="shape"/>
<feGaussianBlur stdDeviation="29.1171" result="effect1_foregroundBlur_100_1417"/>
</filter>
<linearGradient id="paint0_linear_100_1417" x1="227.699" y1="91.0801" x2="227.699" y2="165.62" gradientUnits="userSpaceOnUse">
<stop offset="0.94" stop-color="#B18F40"/>
<stop offset="1" stop-color="#B18F40" stop-opacity="0"/>
</linearGradient>
<radialGradient id="paint1_angular_100_1417" cx="0" cy="0" r="1" gradientUnits="userSpaceOnUse" gradientTransform="translate(495.212 127.641) rotate(90.318) scale(37.0647 90.5729)">
<stop offset="0.665" stop-color="#D3BB67" stop-opacity="0.79"/>
<stop offset="1" stop-color="#A27C2E"/>
</radialGradient>
</defs>
</svg>
