<svg width="638" height="192" viewBox="0 0 638 192" fill="none" xmlns="http://www.w3.org/2000/svg">
<path d="M9.31746 49.0005L434.97 49.0005C441.244 49.0005 444.609 56.3779 440.496 61.1152L391.96 117.02C390.57 118.621 388.554 119.54 386.435 119.54L9.31745 119.54C5.27613 119.54 2 116.264 2 112.223L2 56.3179C2 52.2766 5.27613 49.0005 9.31746 49.0005Z" stroke="#B18F40" stroke-width="4" stroke-linejoin="round"/>
<g opacity="0.5" filter="url(#filter0_f_15_767)">
<path d="M454.199 70.774C461.259 63.0482 471.243 58.6475 481.71 58.6475L542.046 58.6475C562.63 58.6475 579.316 75.3337 579.316 95.9173C579.316 116.501 562.63 133.187 542.046 133.187L481.71 133.187C449.307 133.187 432.339 94.692 454.199 70.774Z" fill="#FFA503"/>
</g>
<path d="M470.194 50.0321C471.96 48.1007 474.456 47.0005 477.072 47.0005L577.682 47.0005C582.828 47.0005 587 51.1721 587 56.3179L587 112.223C587 117.369 582.828 121.54 577.682 121.54L425.979 121.54C417.878 121.54 413.636 111.916 419.101 105.937L470.194 50.0321Z" fill="#B18F40"/>
<path opacity="0.99" d="M34.337 91.7998C34.1833 91.7998 34.0575 91.7509 33.9597 91.6531C33.8618 91.5552 33.8129 91.4294 33.8129 91.2757L33.8129 80.4162L30.0813 80.4162C29.9275 80.4162 29.8017 80.3673 29.7039 80.2694C29.6061 80.1576 29.5572 80.0319 29.5572 79.8921L29.5572 77.6489C29.5572 77.4952 29.6061 77.3694 29.7039 77.2716C29.8017 77.1737 29.9275 77.1248 30.0813 77.1248L41.3601 77.1248C41.5138 77.1248 41.6396 77.1737 41.7374 77.2716C41.8352 77.3694 41.8842 77.4952 41.8842 77.6489L41.8842 79.8921C41.8842 80.0319 41.8352 80.1576 41.7374 80.2694C41.6396 80.3673 41.5138 80.4162 41.3601 80.4162L37.6284 80.4162L37.6284 91.2757C37.6284 91.4294 37.5795 91.5552 37.4817 91.6531C37.3838 91.7509 37.258 91.7998 37.1043 91.7998L34.337 91.7998ZM50.9406 92.0094C49.2914 92.0094 47.9776 91.5622 46.9993 90.6677C46.0209 89.7733 45.5108 88.4455 45.4689 86.6845C45.4689 86.5867 45.4689 86.4609 45.4689 86.3072C45.4689 86.1534 45.4689 86.0346 45.4689 85.9508C45.5108 84.8466 45.7554 83.9033 46.2026 83.1206C46.6639 82.3239 47.2928 81.723 48.0894 81.3177C48.9 80.8984 49.8434 80.6887 50.9196 80.6887C52.1495 80.6887 53.1628 80.9333 53.9594 81.4225C54.77 81.9116 55.378 82.5755 55.7833 83.4141C56.1886 84.2527 56.3913 85.21 56.3913 86.2862L56.3913 86.7893C56.3913 86.9431 56.3354 87.0689 56.2236 87.1667C56.1257 87.2645 56.0069 87.3134 55.8672 87.3134L49.1586 87.3134C49.1586 87.3274 49.1586 87.3484 49.1586 87.3763C49.1586 87.4043 49.1586 87.4322 49.1586 87.4602C49.1726 87.8655 49.2425 88.2359 49.3682 88.5713C49.494 88.9067 49.6897 89.1723 49.9552 89.3679C50.2208 89.5636 50.5422 89.6614 50.9196 89.6614C51.1991 89.6614 51.4297 89.6195 51.6114 89.5357C51.8071 89.4378 51.9678 89.333 52.0936 89.2212C52.2194 89.0954 52.3172 88.9906 52.3871 88.9067C52.5129 88.767 52.6107 88.6831 52.6806 88.6552C52.7645 88.6132 52.8902 88.5923 53.058 88.5923L55.6575 88.5923C55.7973 88.5923 55.9091 88.6342 55.993 88.7181C56.0908 88.7879 56.1327 88.8928 56.1187 89.0325C56.1048 89.2701 55.986 89.5566 55.7624 89.8921C55.5387 90.2275 55.2103 90.5629 54.777 90.8983C54.3577 91.2198 53.8267 91.4853 53.1837 91.695C52.5408 91.9046 51.7931 92.0094 50.9406 92.0094ZM49.1586 85.238L52.7016 85.238L52.7016 85.1961C52.7016 84.7488 52.6317 84.3575 52.4919 84.0221C52.3661 83.6866 52.1635 83.4281 51.884 83.2464C51.6184 83.0647 51.297 82.9738 50.9196 82.9738C50.5422 82.9738 50.2208 83.0647 49.9552 83.2464C49.7037 83.4281 49.508 83.6866 49.3682 84.0221C49.2285 84.3575 49.1586 84.7488 49.1586 85.1961L49.1586 85.238ZM49.7037 79.3261C49.4801 79.3261 49.3682 79.2142 49.3682 78.9906C49.3682 78.8788 49.4032 78.788 49.4731 78.7181L51.3179 76.4749C51.4577 76.3072 51.5765 76.2024 51.6743 76.1604C51.7722 76.1045 51.9119 76.0766 52.0936 76.0766L54.8399 76.0766C55.1055 76.0766 55.2382 76.2164 55.2382 76.4959C55.2382 76.5937 55.2033 76.6776 55.1334 76.7474L52.3661 79.0326C52.2543 79.1304 52.1425 79.2073 52.0307 79.2632C51.9189 79.3051 51.7652 79.3261 51.5695 79.3261L49.7037 79.3261ZM63.0736 91.7998C62.9199 91.7998 62.7941 91.7509 62.6963 91.6531C62.5985 91.5552 62.5495 91.4294 62.5495 91.2757L62.5495 77.4393C62.5495 77.2855 62.5985 77.1597 62.6963 77.0619C62.7941 76.9641 62.9199 76.9152 63.0736 76.9152L65.5474 76.9152C65.7012 76.9152 65.827 76.9641 65.9248 77.0619C66.0226 77.1597 66.0715 77.2855 66.0715 77.4393L66.0715 91.2757C66.0715 91.4294 66.0226 91.5552 65.9248 91.6531C65.827 91.7509 65.7012 91.7998 65.5474 91.7998L63.0736 91.7998ZM77.7724 92.0094C76.1232 92.0094 74.8094 91.5622 73.8311 90.6677C72.8528 89.7733 72.3426 88.4455 72.3007 86.6845C72.3007 86.5867 72.3007 86.4609 72.3007 86.3072C72.3007 86.1534 72.3007 86.0346 72.3007 85.9508C72.3426 84.8466 72.5872 83.9033 73.0345 83.1206C73.4957 82.3239 74.1246 81.723 74.9213 81.3177C75.7319 80.8984 76.6753 80.6887 77.7514 80.6887C78.9813 80.6887 79.9946 80.9333 80.7913 81.4225C81.6019 81.9116 82.2098 82.5755 82.6151 83.4141C83.0205 84.2527 83.2231 85.21 83.2231 86.2862L83.2231 86.7893C83.2231 86.9431 83.1672 87.0689 83.0554 87.1667C82.9576 87.2645 82.8388 87.3134 82.699 87.3134L75.9904 87.3134C75.9904 87.3274 75.9904 87.3484 75.9904 87.3763C75.9904 87.4043 75.9904 87.4322 75.9904 87.4602C76.0044 87.8655 76.0743 88.2359 76.2001 88.5713C76.3259 88.9067 76.5215 89.1723 76.7871 89.3679C77.0526 89.5636 77.3741 89.6614 77.7514 89.6614C78.031 89.6614 78.2616 89.6195 78.4433 89.5357C78.6389 89.4378 78.7996 89.333 78.9254 89.2212C79.0512 89.0954 79.149 88.9906 79.2189 88.9067C79.3447 88.767 79.4425 88.6831 79.5124 88.6552C79.5963 88.6132 79.7221 88.5923 79.8898 88.5923L82.4894 88.5923C82.6291 88.5923 82.7409 88.6342 82.8248 88.7181C82.9226 88.7879 82.9646 88.8928 82.9506 89.0325C82.9366 89.2701 82.8178 89.5566 82.5942 89.8921C82.3706 90.2275 82.0421 90.5629 81.6089 90.8983C81.1896 91.2198 80.6585 91.4853 80.0156 91.695C79.3727 91.9046 78.6249 92.0094 77.7724 92.0094ZM75.9904 85.238L79.5334 85.238L79.5334 85.1961C79.5334 84.7488 79.4635 84.3575 79.3238 84.0221C79.198 83.6866 78.9953 83.4281 78.7158 83.2464C78.4502 83.0647 78.1288 82.9738 77.7514 82.9738C77.3741 82.9738 77.0526 83.0647 76.7871 83.2464C76.5355 83.4281 76.3398 83.6866 76.2001 84.0221C76.0603 84.3575 75.9904 84.7488 75.9904 85.1961L75.9904 85.238ZM76.5355 79.3261C76.3119 79.3261 76.2001 79.2142 76.2001 78.9906C76.2001 78.8788 76.235 78.788 76.3049 78.7181L78.1498 76.4749C78.2895 76.3072 78.4083 76.2024 78.5061 76.1604C78.604 76.1045 78.7437 76.0766 78.9254 76.0766L81.6718 76.0766C81.9373 76.0766 82.0701 76.2164 82.0701 76.4959C82.0701 76.5937 82.0351 76.6776 81.9653 76.7474L79.198 79.0326C79.0862 79.1304 78.9743 79.2073 78.8625 79.2632C78.7507 79.3051 78.597 79.3261 78.4013 79.3261L76.5355 79.3261ZM94.3918 92.0094C93.3576 92.0094 92.4422 91.8208 91.6455 91.4434C90.8489 91.0661 90.213 90.521 89.7378 89.8082C89.2765 89.0814 89.025 88.2149 88.983 87.2086C88.9691 86.985 88.9621 86.7055 88.9621 86.3701C88.9621 86.0206 88.9691 85.7341 88.983 85.5105C89.025 84.4903 89.2765 83.6237 89.7378 82.9109C90.199 82.1842 90.8279 81.6321 91.6245 81.2548C92.4352 80.8774 93.3576 80.6887 94.3918 80.6887C95.3562 80.6887 96.1808 80.8285 96.8656 81.108C97.5505 81.3736 98.1095 81.709 98.5428 82.1143C98.976 82.5196 99.2975 82.9389 99.5071 83.3722C99.7307 83.7914 99.8495 84.1618 99.8635 84.4833C99.8775 84.623 99.8286 84.7488 99.7168 84.8606C99.605 84.9585 99.4792 85.0074 99.3394 85.0074L96.6769 85.0074C96.5232 85.0074 96.4044 84.9724 96.3205 84.9026C96.2367 84.8327 96.1598 84.7279 96.0899 84.5881C95.9222 84.1548 95.7056 83.8474 95.44 83.6657C95.1885 83.484 94.86 83.3931 94.4547 83.3931C93.8957 83.3931 93.4624 83.5748 93.1549 83.9382C92.8614 84.3016 92.7007 84.8606 92.6728 85.6153C92.6588 86.1744 92.6588 86.6705 92.6728 87.1038C92.7007 87.8725 92.8614 88.4315 93.1549 88.7809C93.4624 89.1304 93.8957 89.3051 94.4547 89.3051C94.888 89.3051 95.2304 89.2142 95.482 89.0325C95.7335 88.8508 95.9362 88.5434 96.0899 88.1101C96.1598 87.9703 96.2367 87.8655 96.3205 87.7956C96.4044 87.7257 96.5232 87.6908 96.6769 87.6908L99.3394 87.6908C99.4792 87.6908 99.605 87.7467 99.7168 87.8585C99.8286 87.9564 99.8775 88.0751 99.8635 88.2149C99.8495 88.4525 99.7797 88.732 99.6539 89.0535C99.5281 89.361 99.3324 89.6894 99.0669 90.0388C98.8013 90.3882 98.4519 90.7166 98.0187 91.0241C97.5994 91.3176 97.0892 91.5552 96.4883 91.7369C95.8873 91.9186 95.1885 92.0094 94.3918 92.0094ZM106.464 91.7998C106.31 91.7998 106.184 91.7509 106.087 91.6531C105.989 91.5552 105.94 91.4294 105.94 91.2757L105.94 77.4393C105.94 77.2855 105.989 77.1597 106.087 77.0619C106.184 76.9641 106.31 76.9152 106.464 76.9152L109.147 76.9152C109.301 76.9152 109.427 76.9641 109.525 77.0619C109.623 77.1597 109.672 77.2855 109.672 77.4393L109.672 82.1143C110.049 81.681 110.51 81.3386 111.055 81.0871C111.614 80.8215 112.257 80.6887 112.984 80.6887C113.794 80.6887 114.514 80.8704 115.143 81.2338C115.786 81.5972 116.289 82.1353 116.653 82.8481C117.016 83.5469 117.198 84.4064 117.198 85.4267L117.198 91.2757C117.198 91.4294 117.149 91.5552 117.051 91.6531C116.953 91.7509 116.827 91.7998 116.674 91.7998L113.969 91.7998C113.829 91.7998 113.704 91.7509 113.592 91.6531C113.494 91.5552 113.445 91.4294 113.445 91.2757L113.445 85.5524C113.445 84.8956 113.284 84.3924 112.963 84.043C112.655 83.6796 112.194 83.4979 111.579 83.4979C111.006 83.4979 110.545 83.6796 110.196 84.043C109.846 84.3924 109.672 84.8956 109.672 85.5524L109.672 91.2757C109.672 91.4294 109.623 91.5552 109.525 91.6531C109.427 91.7509 109.301 91.7998 109.147 91.7998L106.464 91.7998ZM127.038 92.0094C126.283 92.0094 125.606 91.8697 125.005 91.5902C124.418 91.2967 123.949 90.9053 123.6 90.4162C123.251 89.927 123.076 89.3749 123.076 88.76C123.076 87.7677 123.481 86.985 124.292 86.412C125.102 85.825 126.179 85.4267 127.52 85.217L130.141 84.8187L130.141 84.5252C130.141 84.0221 130.036 83.6377 129.826 83.3722C129.617 83.1066 129.232 82.9738 128.673 82.9738C128.282 82.9738 127.961 83.0507 127.709 83.2044C127.471 83.3582 127.283 83.5678 127.143 83.8334C127.017 84.0151 126.842 84.1059 126.619 84.1059L124.271 84.1059C124.117 84.1059 123.998 84.064 123.914 83.9801C123.831 83.8823 123.796 83.7705 123.81 83.6447C123.81 83.3931 123.9 83.1066 124.082 82.7852C124.278 82.4497 124.571 82.1213 124.963 81.7998C125.354 81.4784 125.857 81.2128 126.472 81.0032C127.087 80.7936 127.828 80.6887 128.694 80.6887C129.603 80.6887 130.378 80.7936 131.021 81.0032C131.664 81.2128 132.181 81.5063 132.573 81.8837C132.978 82.2611 133.279 82.7083 133.474 83.2254C133.67 83.7286 133.768 84.2876 133.768 84.9026L133.768 91.2757C133.768 91.4294 133.712 91.5552 133.6 91.6531C133.502 91.7509 133.383 91.7998 133.244 91.7998L130.812 91.7998C130.658 91.7998 130.532 91.7509 130.434 91.6531C130.337 91.5552 130.288 91.4294 130.288 91.2757L130.288 90.5419C130.106 90.8075 129.861 91.0521 129.554 91.2757C129.246 91.4993 128.883 91.674 128.464 91.7998C128.058 91.9396 127.583 92.0094 127.038 92.0094ZM128.023 89.6195C128.429 89.6195 128.792 89.5357 129.114 89.3679C129.449 89.1863 129.708 88.9137 129.889 88.5503C130.085 88.173 130.183 87.7048 130.183 87.1457L130.183 86.8522L128.401 87.1667C127.744 87.2785 127.262 87.4532 126.954 87.6908C126.661 87.9144 126.514 88.18 126.514 88.4874C126.514 88.725 126.584 88.9277 126.724 89.0954C126.863 89.2631 127.045 89.3959 127.269 89.4937C127.492 89.5776 127.744 89.6195 128.023 89.6195ZM140.85 91.7998C140.697 91.7998 140.571 91.7509 140.473 91.6531C140.375 91.5552 140.326 91.4294 140.326 91.2757L140.326 81.4225C140.326 81.2827 140.375 81.1639 140.473 81.0661C140.571 80.9543 140.697 80.8984 140.85 80.8984L143.261 80.8984C143.415 80.8984 143.541 80.9543 143.639 81.0661C143.736 81.1639 143.785 81.2827 143.785 81.4225L143.785 82.2611C144.163 81.8278 144.61 81.4924 145.127 81.2548C145.658 81.0172 146.252 80.8984 146.909 80.8984L147.831 80.8984C147.971 80.8984 148.09 80.9473 148.188 81.0451C148.3 81.143 148.356 81.2687 148.356 81.4225L148.356 83.5818C148.356 83.7216 148.3 83.8474 148.188 83.9592C148.09 84.057 147.971 84.1059 147.831 84.1059L145.798 84.1059C145.225 84.1059 144.778 84.2666 144.456 84.5881C144.149 84.8956 143.995 85.3358 143.995 85.9088L143.995 91.2757C143.995 91.4294 143.939 91.5552 143.827 91.6531C143.729 91.7509 143.604 91.7998 143.45 91.7998L140.85 91.7998ZM159.283 96.4119C158.206 96.4119 157.312 96.2722 156.599 95.9927C155.9 95.7131 155.341 95.3777 154.922 94.9864C154.517 94.595 154.223 94.2037 154.041 93.8124C153.86 93.435 153.762 93.1345 153.748 92.9109C153.734 92.7572 153.783 92.6314 153.895 92.5336C154.007 92.4357 154.139 92.3868 154.293 92.3868L156.955 92.3868C157.081 92.3868 157.186 92.4148 157.27 92.4707C157.368 92.5405 157.445 92.6524 157.501 92.8061C157.57 92.9598 157.661 93.1206 157.773 93.2883C157.899 93.456 158.067 93.5888 158.276 93.6866C158.5 93.7984 158.8 93.8543 159.178 93.8543C159.597 93.8543 159.946 93.7844 160.226 93.6447C160.505 93.5189 160.715 93.3022 160.855 92.9948C160.995 92.7013 161.064 92.3029 161.064 91.7998L161.064 90.3952C160.743 90.7446 160.331 91.0311 159.828 91.2547C159.324 91.4644 158.716 91.5692 158.004 91.5692C157.291 91.5692 156.662 91.4644 156.117 91.2547C155.572 91.0451 155.118 90.7306 154.754 90.3113C154.391 89.8921 154.104 89.3819 153.895 88.7809C153.699 88.18 153.58 87.4881 153.538 86.7055C153.524 86.3421 153.524 85.9787 153.538 85.6153C153.58 84.8606 153.699 84.1828 153.895 83.5818C154.09 82.9808 154.37 82.4637 154.733 82.0304C155.111 81.5972 155.572 81.2687 156.117 81.0451C156.662 80.8075 157.291 80.6887 158.004 80.6887C158.758 80.6887 159.401 80.8355 159.932 81.129C160.477 81.4085 160.925 81.7649 161.274 82.1982L161.274 81.4225C161.274 81.2827 161.323 81.1639 161.421 81.0661C161.519 80.9543 161.644 80.8984 161.798 80.8984L164.209 80.8984C164.363 80.8984 164.489 80.9543 164.586 81.0661C164.698 81.1639 164.754 81.2827 164.754 81.4225L164.754 91.5063C164.754 92.5685 164.538 93.463 164.104 94.1897C163.671 94.9165 163.049 95.4686 162.238 95.8459C161.428 96.2233 160.443 96.4119 159.283 96.4119ZM159.136 88.8438C159.583 88.8438 159.946 88.746 160.226 88.5503C160.505 88.3547 160.708 88.1031 160.834 87.7956C160.974 87.4881 161.051 87.1597 161.064 86.8103C161.078 86.6566 161.085 86.4399 161.085 86.1604C161.085 85.8809 161.078 85.6712 161.064 85.5315C161.051 85.1681 160.974 84.8327 160.834 84.5252C160.708 84.2177 160.505 83.9731 160.226 83.7914C159.946 83.5958 159.583 83.4979 159.136 83.4979C158.675 83.4979 158.304 83.5958 158.025 83.7914C157.759 83.9871 157.563 84.2527 157.438 84.5881C157.326 84.9235 157.256 85.2939 157.228 85.6992C157.214 86.0067 157.214 86.3211 157.228 86.6426C157.256 87.0479 157.326 87.4183 157.438 87.7537C157.563 88.0891 157.759 88.3547 158.025 88.5503C158.304 88.746 158.675 88.8438 159.136 88.8438ZM176.448 92.0094C174.799 92.0094 173.485 91.5622 172.507 90.6677C171.528 89.7733 171.018 88.4455 170.976 86.6845C170.976 86.5867 170.976 86.4609 170.976 86.3072C170.976 86.1534 170.976 86.0346 170.976 85.9508C171.018 84.8466 171.263 83.9033 171.71 83.1206C172.171 82.3239 172.8 81.723 173.597 81.3177C174.407 80.8984 175.351 80.6887 176.427 80.6887C177.657 80.6887 178.67 80.9333 179.467 81.4225C180.277 81.9116 180.885 82.5755 181.291 83.4141C181.696 84.2527 181.899 85.21 181.899 86.2862L181.899 86.7893C181.899 86.9431 181.843 87.0689 181.731 87.1667C181.633 87.2645 181.514 87.3134 181.374 87.3134L174.666 87.3134C174.666 87.3274 174.666 87.3484 174.666 87.3763C174.666 87.4043 174.666 87.4322 174.666 87.4602C174.68 87.8655 174.75 88.2359 174.876 88.5713C175.001 88.9067 175.197 89.1723 175.463 89.3679C175.728 89.5636 176.05 89.6614 176.427 89.6614C176.706 89.6614 176.937 89.6195 177.119 89.5357C177.314 89.4378 177.475 89.333 177.601 89.2212C177.727 89.0954 177.824 88.9906 177.894 88.9067C178.02 88.767 178.118 88.6831 178.188 88.6552C178.272 88.6132 178.398 88.5923 178.565 88.5923L181.165 88.5923C181.305 88.5923 181.416 88.6342 181.5 88.7181C181.598 88.7879 181.64 88.8928 181.626 89.0325C181.612 89.2701 181.493 89.5566 181.27 89.8921C181.046 90.2275 180.718 90.5629 180.284 90.8983C179.865 91.2198 179.334 91.4853 178.691 91.695C178.048 91.9046 177.3 92.0094 176.448 92.0094ZM174.666 85.238L178.209 85.238L178.209 85.1961C178.209 84.7488 178.139 84.3575 177.999 84.0221C177.873 83.6866 177.671 83.4281 177.391 83.2464C177.126 83.0647 176.804 82.9738 176.427 82.9738C176.05 82.9738 175.728 83.0647 175.463 83.2464C175.211 83.4281 175.015 83.6866 174.876 84.0221C174.736 84.3575 174.666 84.7488 174.666 85.1961L174.666 85.238ZM188.581 91.7998C188.427 91.7998 188.301 91.7509 188.204 91.6531C188.106 91.5552 188.057 91.4294 188.057 91.2757L188.057 81.4225C188.057 81.2827 188.106 81.1639 188.204 81.0661C188.301 80.9543 188.427 80.8984 188.581 80.8984L190.992 80.8984C191.146 80.8984 191.271 80.9543 191.369 81.0661C191.467 81.1639 191.516 81.2827 191.516 81.4225L191.516 82.2611C191.893 81.8278 192.341 81.4924 192.858 81.2548C193.389 81.0172 193.983 80.8984 194.64 80.8984L195.562 80.8984C195.702 80.8984 195.821 80.9473 195.918 81.0451C196.03 81.143 196.086 81.2687 196.086 81.4225L196.086 83.5818C196.086 83.7216 196.03 83.8474 195.918 83.9592C195.821 84.057 195.702 84.1059 195.562 84.1059L193.529 84.1059C192.955 84.1059 192.508 84.2666 192.187 84.5881C191.879 84.8956 191.726 85.3358 191.726 85.9088L191.726 91.2757C191.726 91.4294 191.67 91.5552 191.558 91.6531C191.46 91.7509 191.334 91.7998 191.181 91.7998L188.581 91.7998ZM210.52 91.7998C210.366 91.7998 210.24 91.7509 210.142 91.6531C210.045 91.5552 209.996 91.4294 209.996 91.2757L209.996 77.4393C209.996 77.2855 210.045 77.1597 210.142 77.0619C210.24 76.9641 210.366 76.9152 210.52 76.9152L212.994 76.9152C213.147 76.9152 213.273 76.9641 213.371 77.0619C213.469 77.1597 213.518 77.2855 213.518 77.4393L213.518 91.2757C213.518 91.4294 213.469 91.5552 213.371 91.6531C213.273 91.7509 213.147 91.7998 212.994 91.7998L210.52 91.7998ZM220.229 82.1982C220.103 82.1982 219.998 82.1562 219.915 82.0724C219.845 81.9885 219.817 81.8697 219.831 81.716L220.46 77.6279C220.488 77.4463 220.557 77.2855 220.669 77.1458C220.795 76.992 220.977 76.9152 221.214 76.9152L223.667 76.9152C223.779 76.9152 223.87 76.9571 223.94 77.0409C224.024 77.1248 224.065 77.2226 224.065 77.3344C224.065 77.4183 224.051 77.4952 224.024 77.5651L222.451 81.6112C222.395 81.7509 222.311 81.8837 222.2 82.0095C222.088 82.1353 221.913 82.1982 221.676 82.1982L220.229 82.1982ZM232.339 92.0094C231.584 92.0094 230.906 91.8697 230.305 91.5902C229.718 91.2967 229.25 90.9053 228.9 90.4162C228.551 89.927 228.376 89.3749 228.376 88.76C228.376 87.7677 228.782 86.985 229.592 86.412C230.403 85.825 231.479 85.4267 232.821 85.217L235.441 84.8187L235.441 84.5252C235.441 84.0221 235.337 83.6377 235.127 83.3722C234.917 83.1066 234.533 82.9738 233.974 82.9738C233.583 82.9738 233.261 83.0507 233.009 83.2044C232.772 83.3582 232.583 83.5678 232.443 83.8334C232.318 84.0151 232.143 84.1059 231.919 84.1059L229.571 84.1059C229.418 84.1059 229.299 84.064 229.215 83.9801C229.131 83.8823 229.096 83.7705 229.11 83.6447C229.11 83.3931 229.201 83.1066 229.383 82.7852C229.578 82.4497 229.872 82.1213 230.263 81.7998C230.654 81.4784 231.158 81.2128 231.773 81.0032C232.388 80.7936 233.128 80.6887 233.995 80.6887C234.903 80.6887 235.679 80.7936 236.322 81.0032C236.965 81.2128 237.482 81.5063 237.873 81.8837C238.279 82.2611 238.579 82.7083 238.775 83.2254C238.97 83.7286 239.068 84.2876 239.068 84.9026L239.068 91.2757C239.068 91.4294 239.012 91.5552 238.9 91.6531C238.803 91.7509 238.684 91.7998 238.544 91.7998L236.112 91.7998C235.958 91.7998 235.833 91.7509 235.735 91.6531C235.637 91.5552 235.588 91.4294 235.588 91.2757L235.588 90.5419C235.406 90.8075 235.162 91.0521 234.854 91.2757C234.547 91.4993 234.183 91.674 233.764 91.7998C233.359 91.9396 232.884 92.0094 232.339 92.0094ZM233.324 89.6195C233.729 89.6195 234.093 89.5357 234.414 89.3679C234.75 89.1863 235.008 88.9137 235.19 88.5503C235.385 88.173 235.483 87.7048 235.483 87.1457L235.483 86.8522L233.701 87.1667C233.044 87.2785 232.562 87.4532 232.255 87.6908C231.961 87.9144 231.815 88.18 231.815 88.4874C231.815 88.725 231.884 88.9277 232.024 89.0954C232.164 89.2631 232.346 89.3959 232.569 89.4937C232.793 89.5776 233.044 89.6195 233.324 89.6195ZM246.151 95.783C245.997 95.783 245.871 95.7341 245.773 95.6363C245.676 95.5384 245.627 95.4126 245.627 95.2589L245.627 81.4225C245.627 81.2687 245.676 81.143 245.773 81.0451C245.871 80.9473 245.997 80.8984 246.151 80.8984L248.52 80.8984C248.66 80.8984 248.778 80.9473 248.876 81.0451C248.988 81.143 249.044 81.2687 249.044 81.4225L249.044 82.1982C249.365 81.7649 249.792 81.4085 250.323 81.129C250.854 80.8355 251.511 80.6887 252.293 80.6887C252.992 80.6887 253.607 80.8005 254.138 81.0242C254.669 81.2338 255.124 81.5483 255.501 81.9676C255.878 82.3868 256.172 82.897 256.381 83.4979C256.605 84.0989 256.731 84.7907 256.759 85.5734C256.773 85.8529 256.78 86.1115 256.78 86.3491C256.78 86.5867 256.773 86.8452 256.759 87.1248C256.731 87.8795 256.612 88.5573 256.402 89.1583C256.193 89.7593 255.899 90.2694 255.522 90.6887C255.144 91.108 254.683 91.4364 254.138 91.674C253.607 91.8976 252.992 92.0094 252.293 92.0094C251.609 92.0094 251.008 91.8906 250.49 91.6531C249.987 91.4015 249.568 91.0521 249.233 90.6048L249.233 95.2589C249.233 95.4126 249.184 95.5384 249.086 95.6363C248.988 95.7341 248.862 95.783 248.708 95.783L246.151 95.783ZM251.161 89.2002C251.636 89.2002 252.007 89.1024 252.272 88.9067C252.538 88.7111 252.727 88.4455 252.838 88.1101C252.964 87.7747 253.041 87.4043 253.069 86.999C253.097 86.5657 253.097 86.1325 253.069 85.6992C253.041 85.2939 252.964 84.9235 252.838 84.5881C252.727 84.2527 252.538 83.9871 252.272 83.7914C252.007 83.5958 251.636 83.4979 251.161 83.4979C250.7 83.4979 250.33 83.6028 250.05 83.8124C249.771 84.0081 249.568 84.2666 249.442 84.5881C249.316 84.9095 249.247 85.2589 249.233 85.6363C249.219 85.9019 249.212 86.1604 249.212 86.412C249.212 86.6636 249.219 86.9291 249.233 87.2086C249.247 87.558 249.323 87.8865 249.463 88.1939C249.603 88.4874 249.813 88.732 250.092 88.9277C250.372 89.1094 250.728 89.2002 251.161 89.2002ZM263.569 95.783C263.415 95.783 263.29 95.7341 263.192 95.6363C263.094 95.5384 263.045 95.4126 263.045 95.2589L263.045 81.4225C263.045 81.2687 263.094 81.143 263.192 81.0451C263.29 80.9473 263.415 80.8984 263.569 80.8984L265.938 80.8984C266.078 80.8984 266.197 80.9473 266.295 81.0451C266.406 81.143 266.462 81.2687 266.462 81.4225L266.462 82.1982C266.784 81.7649 267.21 81.4085 267.741 81.129C268.272 80.8355 268.929 80.6887 269.712 80.6887C270.411 80.6887 271.025 80.8005 271.557 81.0242C272.088 81.2338 272.542 81.5483 272.919 81.9676C273.297 82.3868 273.59 82.897 273.8 83.4979C274.023 84.0989 274.149 84.7907 274.177 85.5734C274.191 85.8529 274.198 86.1115 274.198 86.3491C274.198 86.5867 274.191 86.8452 274.177 87.1248C274.149 87.8795 274.03 88.5573 273.821 89.1583C273.611 89.7593 273.318 90.2694 272.94 90.6887C272.563 91.108 272.102 91.4364 271.557 91.674C271.025 91.8976 270.411 92.0094 269.712 92.0094C269.027 92.0094 268.426 91.8906 267.909 91.6531C267.406 91.4015 266.986 91.0521 266.651 90.6048L266.651 95.2589C266.651 95.4126 266.602 95.5384 266.504 95.6363C266.406 95.7341 266.281 95.783 266.127 95.783L263.569 95.783ZM268.58 89.2002C269.055 89.2002 269.425 89.1024 269.691 88.9067C269.956 88.7111 270.145 88.4455 270.257 88.1101C270.383 87.7747 270.459 87.4043 270.487 86.999C270.515 86.5657 270.515 86.1325 270.487 85.6992C270.459 85.2939 270.383 84.9235 270.257 84.5881C270.145 84.2527 269.956 83.9871 269.691 83.7914C269.425 83.5958 269.055 83.4979 268.58 83.4979C268.118 83.4979 267.748 83.6028 267.469 83.8124C267.189 84.0081 266.986 84.2666 266.861 84.5881C266.735 84.9095 266.665 85.2589 266.651 85.6363C266.637 85.9019 266.63 86.1604 266.63 86.412C266.63 86.6636 266.637 86.9291 266.651 87.2086C266.665 87.558 266.742 87.8865 266.882 88.1939C267.021 88.4874 267.231 88.732 267.51 88.9277C267.79 89.1094 268.146 89.2002 268.58 89.2002ZM280.988 91.7998C280.834 91.7998 280.708 91.7509 280.61 91.6531C280.512 91.5552 280.463 91.4294 280.463 91.2757L280.463 77.4393C280.463 77.2855 280.512 77.1597 280.61 77.0619C280.708 76.9641 280.834 76.9152 280.988 76.9152L283.461 76.9152C283.615 76.9152 283.741 76.9641 283.839 77.0619C283.937 77.1597 283.985 77.2855 283.985 77.4393L283.985 91.2757C283.985 91.4294 283.937 91.5552 283.839 91.6531C283.741 91.7509 283.615 91.7998 283.461 91.7998L280.988 91.7998ZM291.896 91.7998C291.742 91.7998 291.616 91.7509 291.518 91.6531C291.42 91.5552 291.371 91.4294 291.371 91.2757L291.371 81.4225C291.371 81.2687 291.42 81.143 291.518 81.0451C291.616 80.9473 291.742 80.8984 291.896 80.8984L294.369 80.8984C294.509 80.8984 294.628 80.9473 294.726 81.0451C294.838 81.143 294.893 81.2687 294.893 81.4225L294.893 91.2757C294.893 91.4294 294.838 91.5552 294.726 91.6531C294.628 91.7509 294.509 91.7998 294.369 91.7998L291.896 91.7998ZM291.875 79.3261C291.721 79.3261 291.595 79.2771 291.497 79.1793C291.399 79.0815 291.35 78.9557 291.35 78.8019L291.35 76.9361C291.35 76.7824 291.399 76.6566 291.497 76.5588C291.595 76.447 291.721 76.3911 291.875 76.3911L294.369 76.3911C294.523 76.3911 294.649 76.447 294.747 76.5588C294.859 76.6566 294.914 76.7824 294.914 76.9361L294.914 78.8019C294.914 78.9557 294.859 79.0815 294.747 79.1793C294.649 79.2771 294.523 79.3261 294.369 79.3261L291.875 79.3261ZM306.655 92.0094C305.621 92.0094 304.706 91.8208 303.909 91.4434C303.112 91.0661 302.476 90.521 302.001 89.8082C301.54 89.0814 301.288 88.2149 301.246 87.2086C301.232 86.985 301.225 86.7055 301.225 86.3701C301.225 86.0206 301.232 85.7341 301.246 85.5105C301.288 84.4903 301.54 83.6237 302.001 82.9109C302.462 82.1842 303.091 81.6321 303.888 81.2548C304.699 80.8774 305.621 80.6887 306.655 80.6887C307.62 80.6887 308.444 80.8285 309.129 81.108C309.814 81.3736 310.373 81.709 310.806 82.1143C311.239 82.5196 311.561 82.9389 311.771 83.3722C311.994 83.7914 312.113 84.1618 312.127 84.4833C312.141 84.623 312.092 84.7488 311.98 84.8606C311.868 84.9585 311.743 85.0074 311.603 85.0074L308.94 85.0074C308.787 85.0074 308.668 84.9724 308.584 84.9026C308.5 84.8327 308.423 84.7279 308.353 84.5881C308.186 84.1548 307.969 83.8474 307.703 83.6657C307.452 83.484 307.123 83.3931 306.718 83.3931C306.159 83.3931 305.726 83.5748 305.418 83.9382C305.125 84.3016 304.964 84.8606 304.936 85.6153C304.922 86.1744 304.922 86.6705 304.936 87.1038C304.964 87.8725 305.125 88.4315 305.418 88.7809C305.726 89.1304 306.159 89.3051 306.718 89.3051C307.151 89.3051 307.494 89.2142 307.745 89.0325C307.997 88.8508 308.2 88.5434 308.353 88.1101C308.423 87.9703 308.5 87.8655 308.584 87.7956C308.668 87.7257 308.787 87.6908 308.94 87.6908L311.603 87.6908C311.743 87.6908 311.868 87.7467 311.98 87.8585C312.092 87.9564 312.141 88.0751 312.127 88.2149C312.113 88.4525 312.043 88.732 311.917 89.0535C311.791 89.361 311.596 89.6894 311.33 90.0388C311.065 90.3882 310.715 90.7166 310.282 91.0241C309.863 91.3176 309.353 91.5552 308.752 91.7369C308.151 91.9186 307.452 92.0094 306.655 92.0094ZM321.474 92.0094C320.719 92.0094 320.041 91.8697 319.44 91.5902C318.853 91.2967 318.385 90.9053 318.036 90.4162C317.686 89.927 317.511 89.3749 317.511 88.76C317.511 87.7677 317.917 86.985 318.727 86.412C319.538 85.825 320.614 85.4267 321.956 85.217L324.576 84.8187L324.576 84.5252C324.576 84.0221 324.472 83.6377 324.262 83.3722C324.052 83.1066 323.668 82.9738 323.109 82.9738C322.718 82.9738 322.396 83.0507 322.145 83.2044C321.907 83.3582 321.718 83.5678 321.579 83.8334C321.453 84.0151 321.278 84.1059 321.054 84.1059L318.706 84.1059C318.553 84.1059 318.434 84.064 318.35 83.9801C318.266 83.8823 318.231 83.7705 318.245 83.6447C318.245 83.3931 318.336 83.1066 318.518 82.7852C318.713 82.4497 319.007 82.1213 319.398 81.7998C319.79 81.4784 320.293 81.2128 320.908 81.0032C321.523 80.7936 322.263 80.6887 323.13 80.6887C324.038 80.6887 324.814 80.7936 325.457 81.0032C326.1 81.2128 326.617 81.5063 327.008 81.8837C327.414 82.2611 327.714 82.7083 327.91 83.2254C328.105 83.7286 328.203 84.2876 328.203 84.9026L328.203 91.2757C328.203 91.4294 328.147 91.5552 328.036 91.6531C327.938 91.7509 327.819 91.7998 327.679 91.7998L325.247 91.7998C325.094 91.7998 324.968 91.7509 324.87 91.6531C324.772 91.5552 324.723 91.4294 324.723 91.2757L324.723 90.5419C324.541 90.8075 324.297 91.0521 323.989 91.2757C323.682 91.4993 323.319 91.674 322.899 91.7998C322.494 91.9396 322.019 92.0094 321.474 92.0094ZM322.459 89.6195C322.864 89.6195 323.228 89.5357 323.549 89.3679C323.885 89.1863 324.143 88.9137 324.325 88.5503C324.521 88.173 324.618 87.7048 324.618 87.1457L324.618 86.8522L322.836 87.1667C322.179 87.2785 321.697 87.4532 321.39 87.6908C321.096 87.9144 320.95 88.18 320.95 88.4874C320.95 88.725 321.019 88.9277 321.159 89.0954C321.299 89.2631 321.481 89.3959 321.704 89.4937C321.928 89.5776 322.179 89.6195 322.459 89.6195ZM340.256 91.7998C339.362 91.7998 338.586 91.66 337.929 91.3805C337.286 91.087 336.79 90.6398 336.441 90.0388C336.091 89.4239 335.917 88.6342 335.917 87.6698L335.917 83.6447L334.282 83.6447C334.128 83.6447 333.995 83.5958 333.883 83.4979C333.785 83.4001 333.736 83.2743 333.736 83.1206L333.736 81.4225C333.736 81.2687 333.785 81.143 333.883 81.0451C333.995 80.9473 334.128 80.8984 334.282 80.8984L335.917 80.8984L335.917 77.4393C335.917 77.2855 335.966 77.1597 336.064 77.0619C336.175 76.9641 336.301 76.9152 336.441 76.9152L338.873 76.9152C339.026 76.9152 339.152 76.9641 339.25 77.0619C339.348 77.1597 339.397 77.2855 339.397 77.4393L339.397 80.8984L342.017 80.8984C342.171 80.8984 342.297 80.9473 342.395 81.0451C342.493 81.143 342.541 81.2687 342.541 81.4225L342.541 83.1206C342.541 83.2743 342.493 83.4001 342.395 83.4979C342.297 83.5958 342.171 83.6447 342.017 83.6447L339.397 83.6447L339.397 87.3763C339.397 87.8515 339.488 88.2289 339.669 88.5084C339.851 88.7879 340.159 88.9277 340.592 88.9277L342.206 88.9277C342.36 88.9277 342.486 88.9766 342.583 89.0744C342.681 89.1723 342.73 89.2981 342.73 89.4518L342.73 91.2757C342.73 91.4294 342.681 91.5552 342.583 91.6531C342.486 91.7509 342.36 91.7998 342.206 91.7998L340.256 91.7998ZM349.183 91.7998C349.029 91.7998 348.903 91.7509 348.806 91.6531C348.708 91.5552 348.659 91.4294 348.659 91.2757L348.659 81.4225C348.659 81.2687 348.708 81.143 348.806 81.0451C348.903 80.9473 349.029 80.8984 349.183 80.8984L351.657 80.8984C351.796 80.8984 351.915 80.9473 352.013 81.0451C352.125 81.143 352.181 81.2687 352.181 81.4225L352.181 91.2757C352.181 91.4294 352.125 91.5552 352.013 91.6531C351.915 91.7509 351.796 91.7998 351.657 91.7998L349.183 91.7998ZM349.162 79.3261C349.008 79.3261 348.882 79.2771 348.785 79.1793C348.687 79.0815 348.638 78.9557 348.638 78.8019L348.638 76.9361C348.638 76.7824 348.687 76.6566 348.785 76.5588C348.882 76.447 349.008 76.3911 349.162 76.3911L351.657 76.3911C351.81 76.3911 351.936 76.447 352.034 76.5588C352.146 76.6566 352.202 76.7824 352.202 76.9361L352.202 78.8019C352.202 78.9557 352.146 79.0815 352.034 79.1793C351.936 79.2771 351.81 79.3261 351.657 79.3261L349.162 79.3261ZM364.089 92.0094C362.915 92.0094 361.923 91.8208 361.112 91.4434C360.316 91.0661 359.701 90.528 359.268 89.8292C358.848 89.1164 358.611 88.2708 358.555 87.2925C358.541 87.013 358.534 86.6985 358.534 86.3491C358.534 85.9857 358.541 85.6712 358.555 85.4057C358.611 84.4134 358.862 83.5678 359.309 82.869C359.757 82.1702 360.379 81.6321 361.175 81.2548C361.986 80.8774 362.957 80.6887 364.089 80.6887C365.235 80.6887 366.207 80.8774 367.003 81.2548C367.814 81.6321 368.443 82.1702 368.89 82.869C369.337 83.5678 369.589 84.4134 369.645 85.4057C369.659 85.6712 369.666 85.9857 369.666 86.3491C369.666 86.6985 369.659 87.013 369.645 87.2925C369.589 88.2708 369.344 89.1164 368.911 89.8292C368.492 90.528 367.877 91.0661 367.066 91.4434C366.27 91.8208 365.277 92.0094 364.089 92.0094ZM364.089 89.4518C364.718 89.4518 365.172 89.2631 365.452 88.8858C365.746 88.5084 365.913 87.9424 365.955 87.1877C365.969 86.978 365.976 86.6985 365.976 86.3491C365.976 85.9997 365.969 85.7202 365.955 85.5105C365.913 84.7698 365.746 84.2107 365.452 83.8334C365.172 83.442 364.718 83.2464 364.089 83.2464C363.474 83.2464 363.02 83.442 362.727 83.8334C362.433 84.2107 362.272 84.7698 362.244 85.5105C362.23 85.7202 362.224 85.9997 362.224 86.3491C362.224 86.6985 362.23 86.978 362.244 87.1877C362.272 87.9424 362.433 88.5084 362.727 88.8858C363.02 89.2631 363.474 89.4518 364.089 89.4518ZM376.445 91.7998C376.291 91.7998 376.165 91.7509 376.067 91.6531C375.969 91.5552 375.921 91.4294 375.921 91.2757L375.921 81.4225C375.921 81.2687 375.969 81.143 376.067 81.0451C376.165 80.9473 376.291 80.8984 376.445 80.8984L378.856 80.8984C379.009 80.8984 379.135 80.9473 379.233 81.0451C379.331 81.143 379.38 81.2687 379.38 81.4225L379.38 82.2191C379.743 81.7859 380.218 81.4225 380.805 81.129C381.392 80.8355 382.084 80.6887 382.881 80.6887C383.691 80.6887 384.404 80.8704 385.019 81.2338C385.648 81.5972 386.137 82.1353 386.487 82.8481C386.85 83.5469 387.032 84.4064 387.032 85.4267L387.032 91.2757C387.032 91.4294 386.976 91.5552 386.864 91.6531C386.766 91.7509 386.647 91.7998 386.508 91.7998L383.866 91.7998C383.726 91.7998 383.6 91.7509 383.489 91.6531C383.391 91.5552 383.342 91.4294 383.342 91.2757L383.342 85.5524C383.342 84.8956 383.181 84.3924 382.86 84.043C382.552 83.6796 382.091 83.4979 381.476 83.4979C380.903 83.4979 380.442 83.6796 380.092 84.043C379.757 84.3924 379.589 84.8956 379.589 85.5524L379.589 91.2757C379.589 91.4294 379.533 91.5552 379.422 91.6531C379.324 91.7509 379.205 91.7998 379.065 91.7998L376.445 91.7998Z" fill="white"/>
<path d="M506.367 97.7053L502.392 93.731" stroke="white" stroke-width="2.81027" stroke-linecap="round" stroke-linejoin="round"/>
<path d="M529.12 69.7359C524.872 69.264 509.434 68.9286 504.379 87.7694L512.328 95.7181C531.032 90.5266 530.796 75.2131 530.362 70.9779C530.333 70.6582 530.193 70.3587 529.966 70.1317C529.739 69.9047 529.439 69.7646 529.12 69.7359Z" stroke="white" stroke-width="2.81027" stroke-linecap="round" stroke-linejoin="round"/>
<path d="M511.645 75.0143L503.075 75.7843C502.862 75.8007 502.657 75.8678 502.475 75.9802C502.294 76.0926 502.142 76.2469 502.032 76.4301L496.642 84.8756C496.514 85.0769 496.44 85.3073 496.426 85.5452C496.412 85.7831 496.459 86.0207 496.562 86.2355C496.665 86.4504 496.821 86.6355 497.015 86.7735C497.21 86.9114 497.436 86.9977 497.673 87.0242L504.379 87.7694" stroke="white" stroke-width="2.81027" stroke-linecap="round" stroke-linejoin="round"/>
<path d="M525.108 88.2787L524.313 97.0222C524.297 97.235 524.229 97.4409 524.117 97.6224C524.005 97.8039 523.85 97.9559 523.667 98.0654L515.222 103.456C515.02 103.583 514.79 103.657 514.552 103.671C514.314 103.685 514.077 103.639 513.862 103.536C513.647 103.433 513.462 103.276 513.324 103.082C513.186 102.888 513.1 102.662 513.073 102.425L512.328 95.7181" stroke="white" stroke-width="2.81027" stroke-linecap="round" stroke-linejoin="round"/>
<path d="M518.786 81.311C519.609 82.1341 520.944 82.1341 521.767 81.311C522.59 80.4879 522.59 79.1533 521.767 78.3302C520.944 77.5071 519.609 77.5071 518.786 78.3302C517.963 79.1533 517.963 80.4879 518.786 81.311Z" fill="white"/>
<defs>
<filter id="filter0_f_15_767" x="386.132" y="0.413334" width="251.418" height="191.008" filterUnits="userSpaceOnUse" color-interpolation-filters="sRGB">
<feFlood flood-opacity="0" result="BackgroundImageFix"/>
<feBlend mode="normal" in="SourceGraphic" in2="BackgroundImageFix" result="shape"/>
<feGaussianBlur stdDeviation="29.1171" result="effect1_foregroundBlur_15_767"/>
</filter>
</defs>
</svg>
