<svg width="28" height="28" viewBox="0 0 28 28" fill="none" xmlns="http://www.w3.org/2000/svg">
<path d="M14 0C15.9333 0 17.75 0.366667 19.45 1.1C21.15 1.83333 22.6333 2.83333 23.9 4.1C25.1667 5.36667 26.1667 6.85 26.9 8.55C27.6333 10.25 28 12.0667 28 14C28 15.9333 27.6333 17.75 26.9 19.45C26.1667 21.15 25.1667 22.6333 23.9 23.9C22.6333 25.1667 21.15 26.1667 19.45 26.9C17.75 27.6333 15.9333 28 14 28C12.0667 28 10.25 27.6333 8.55 26.9C6.85 26.1667 5.36667 25.1667 4.1 23.9C2.83333 22.6333 1.83333 21.15 1.1 19.45C0.366667 17.75 0 15.9333 0 14C0 12.0667 0.366667 10.25 1.1 8.55C1.83333 6.85 2.83333 5.36667 4.1 4.1C5.36667 2.83333 6.85 1.83333 8.55 1.1C10.25 0.366667 12.0667 0 14 0ZM6.13333 17.6333L10.3333 14.6333L6.13333 11.6333V17.6333ZM21.8667 18.9667L16.7333 15.3L14 17.2667L11.2333 15.3L6.13333 18.9667V21H21.8667V18.9667ZM21.8667 11.6333L17.6667 14.6333L21.8667 17.6333V11.6333ZM21.8667 7H6.13333V9.03333L14 14.6333L21.8667 9.03333V7Z" fill="#B18F40"/>
</svg>
