<svg width="27" height="27" viewBox="0 0 27 27" fill="none" xmlns="http://www.w3.org/2000/svg">
<path d="M20.3551 2.68945H6.62147C4.34685 2.68945 2.5014 4.5349 2.5014 6.80952V20.5431C2.5014 22.8177 4.34685 24.6632 6.62147 24.6632H14.2322V16.1512H11.371V12.8323H14.2322V10.386C14.2322 7.55342 15.9775 6.0084 18.5096 6.0084C19.7113 6.0084 20.7556 6.09423 21.056 6.13715V9.09845L19.3107 9.11276C17.9231 9.11276 17.6656 9.75652 17.6656 10.715V12.8323H20.9416L20.5124 16.1512H17.6656V24.6632H20.3551C22.6297 24.6632 24.4751 22.8177 24.4751 20.5431V6.80952C24.4751 4.5349 22.6297 2.68945 20.3551 2.68945Z" fill="white" fill-opacity="0.5"/>
</svg>
