<svg width="28" height="29" viewBox="0 0 28 29" fill="none" xmlns="http://www.w3.org/2000/svg">
<path d="M13.9833 0.936279C15.919 0.936279 17.7378 1.30338 19.4398 2.03759C21.1418 2.7718 22.6269 3.77299 23.8951 5.04117C25.1633 6.30934 26.1645 7.78888 26.8987 9.47978C27.6329 11.1707 28 12.984 28 14.9196C28 16.8552 27.6329 18.6741 26.8987 20.3761C26.1645 22.0781 25.1633 23.5632 23.8951 24.8314C22.6269 26.0996 21.1418 27.1008 19.4398 27.835C17.7378 28.5692 15.919 28.9363 13.9833 28.9363C12.0477 28.9363 10.2344 28.5692 8.5435 27.835C6.8526 27.1008 5.37306 26.0996 4.10489 24.8314C2.83671 23.5632 1.83552 22.0781 1.10131 20.3761C0.367104 18.6741 0 16.8552 0 14.9196C0 12.984 0.367104 11.1707 1.10131 9.47978C1.83552 7.78888 2.83671 6.30934 4.10489 5.04117C5.37306 3.77299 6.8526 2.7718 8.5435 2.03759C10.2344 1.30338 12.0477 0.936279 13.9833 0.936279ZM19.2563 7.04355H16.2861C15.7076 7.04355 15.1736 7.14367 14.6841 7.34391C14.1947 7.54415 13.7664 7.81113 13.3993 8.14486C13.0322 8.47859 12.7485 8.85682 12.5483 9.27954C12.348 9.70227 12.2479 10.125 12.2479 10.5477V12.3165H9.61144V15.7873H12.2479V22.7956H15.7521V15.7873H18.3552V12.3165H15.7521V11.4154C15.7521 11.1484 15.8578 10.9371 16.0691 10.7813C16.2805 10.6256 16.464 10.5477 16.6198 10.5477H19.2563V7.04355Z" fill="#B18F40"/>
</svg>
