<svg width="28" height="29" viewBox="0 0 28 29" fill="none" xmlns="http://www.w3.org/2000/svg">
<path d="M18.7336 14.8212C18.7336 14.442 18.6778 14.0295 18.5663 13.5834H19.9713V20.3409C19.9713 20.5193 19.91 20.6643 19.7873 20.7758C19.6647 20.8873 19.5141 20.943 19.3357 20.943H8.32975C8.15133 20.943 8.00637 20.8873 7.89486 20.7758C7.78335 20.6643 7.7276 20.5193 7.7276 20.3409V13.5834H9.09916C8.98765 14.0295 8.9319 14.442 8.9319 14.8212C8.9319 15.4902 9.06014 16.1258 9.31661 16.728C9.57308 17.3301 9.92433 17.8486 10.3704 18.2835C10.8164 18.7184 11.3405 19.0641 11.9427 19.3206C12.5448 19.577 13.1804 19.7053 13.8495 19.7053C14.5185 19.7053 15.1541 19.577 15.7563 19.3206C16.3584 19.0641 16.8769 18.7184 17.3118 18.2835C17.7467 17.8486 18.0924 17.3301 18.3489 16.728C18.6053 16.1258 18.7336 15.4902 18.7336 14.8212ZM13.8495 17.8654C13.4257 17.8654 13.0243 17.7873 12.6452 17.6312C12.266 17.4751 11.9371 17.2577 11.6583 16.9789C11.3795 16.7001 11.1621 16.3767 11.006 16.0087C10.8499 15.6408 10.7718 15.2449 10.7718 14.8212C10.7718 14.3974 10.8499 13.996 11.006 13.6169C11.1621 13.2377 11.3795 12.9088 11.6583 12.63C11.9371 12.3512 12.266 12.1338 12.6452 11.9777C13.0243 11.8216 13.4257 11.7435 13.8495 11.7435C14.2732 11.7435 14.6691 11.8216 15.037 11.9777C15.405 12.1338 15.7284 12.3512 16.0072 12.63C16.2859 12.9088 16.5034 13.2377 16.6595 13.6169C16.8156 13.996 16.8937 14.3974 16.8937 14.8212C16.8937 15.2449 16.8156 15.6408 16.6595 16.0087C16.5034 16.3767 16.2859 16.7001 16.0072 16.9789C15.7284 17.2577 15.405 17.4751 15.037 17.6312C14.6691 17.7873 14.2732 17.8654 13.8495 17.8654ZM19.3357 8.69931C19.5141 8.69931 19.6647 8.75506 19.7873 8.86657C19.91 8.97808 19.9713 9.12304 19.9713 9.30146V11.1414C19.9713 11.3198 19.91 11.4647 19.7873 11.5762C19.6647 11.6878 19.5141 11.7435 19.3357 11.7435H17.4958C17.3174 11.7435 17.1724 11.6878 17.0609 11.5762C16.9494 11.4647 16.8937 11.3198 16.8937 11.1414V9.30146C16.8937 9.12304 16.9494 8.97808 17.0609 8.86657C17.1724 8.75506 17.3174 8.69931 17.4958 8.69931H19.3357ZM20.9749 0.804443C21.9339 0.804443 22.8427 0.988434 23.7013 1.35641C24.5599 1.7244 25.3071 2.22619 25.9427 2.86179C26.5783 3.49739 27.08 4.23893 27.448 5.0864C27.816 5.93387 28 6.8371 28 7.79608V21.7794C28 22.7383 27.816 23.6471 27.448 24.5058C27.08 25.3644 26.5783 26.1115 25.9427 26.7471C25.3071 27.3827 24.5599 27.8845 23.7013 28.2525C22.8427 28.6205 21.9339 28.8044 20.9749 28.8044H6.99164C6.03266 28.8044 5.12943 28.6205 4.28196 28.2525C3.43449 27.8845 2.69295 27.3827 2.05735 26.7471C1.42174 26.1115 0.919952 25.3644 0.551971 24.5058C0.18399 23.6471 0 22.7383 0 21.7794V7.79608C0 6.8371 0.18399 5.93387 0.551971 5.0864C0.919952 4.23893 1.42174 3.49739 2.05735 2.86179C2.69295 2.22619 3.43449 1.7244 4.28196 1.35641C5.12943 0.988434 6.03266 0.804443 6.99164 0.804443H20.9749ZM21.8112 8.69931C21.8112 8.18636 21.6328 7.75148 21.276 7.39465C20.9192 7.03782 20.4843 6.8594 19.9713 6.8594H7.7276C7.21466 6.8594 6.77977 7.03782 6.42294 7.39465C6.06611 7.75148 5.88769 8.18636 5.88769 8.69931V20.943C5.88769 21.456 6.06611 21.8909 6.42294 22.2477C6.77977 22.6045 7.21466 22.7829 7.7276 22.7829H19.9713C20.4843 22.7829 20.9192 22.6045 21.276 22.2477C21.6328 21.8909 21.8112 21.456 21.8112 20.943V8.69931Z" fill="#B18F40"/>
</svg>
