<svg width="27" height="27" viewBox="0 0 27 27" fill="none" xmlns="http://www.w3.org/2000/svg">
<path d="M17.0353 13.6763C17.0353 15.6934 15.3901 17.3386 13.373 17.3386C11.3559 17.3386 9.71074 15.6934 9.71074 13.6763C9.71074 11.6592 11.3559 10.014 13.373 10.014C15.3901 10.014 17.0353 11.6592 17.0353 13.6763ZM19.0095 13.6763C19.0095 10.5576 16.4917 8.03982 13.373 8.03982C10.2544 8.03982 7.73654 10.5576 7.73654 13.6763C7.73654 16.795 10.2544 19.3128 13.373 19.3128C16.4917 19.3128 19.0095 16.795 19.0095 13.6763ZM20.5545 7.81093C20.5545 7.08133 19.968 6.49479 19.2384 6.49479C18.5088 6.49479 17.9223 7.08133 17.9223 7.81093C17.9223 8.54052 18.5088 9.12706 19.2384 9.12706C19.968 9.12706 20.5545 8.54052 20.5545 7.81093ZM13.373 4.66365C14.9753 4.66365 18.4087 4.5349 19.8536 5.10713C20.3543 5.30741 20.7262 5.55061 21.1125 5.93687C21.4987 6.32312 21.7419 6.69507 21.9422 7.19578C22.5144 8.64066 22.3857 12.0741 22.3857 13.6763C22.3857 15.2786 22.5144 18.712 21.9422 20.1568C21.7419 20.6575 21.4987 21.0295 21.1125 21.4158C20.7262 21.802 20.3543 22.0452 19.8536 22.2455C18.4087 22.8177 14.9753 22.689 13.373 22.689C11.7708 22.689 8.33738 22.8177 6.89249 22.2455C6.39179 22.0452 6.01984 21.802 5.63358 21.4158C5.24732 21.0295 5.00413 20.6575 4.80384 20.1568C4.23161 18.712 4.36036 15.2786 4.36036 13.6763C4.36036 12.0741 4.23161 8.64066 4.80384 7.19578C5.00413 6.69507 5.24732 6.32312 5.63358 5.93687C6.01984 5.55061 6.39179 5.30741 6.89249 5.10713C8.33738 4.5349 11.7708 4.66365 13.373 4.66365ZM24.3599 13.6763C24.3599 12.1599 24.3742 10.6578 24.2884 9.14137C24.2025 7.38175 23.802 5.82242 22.5144 4.5349C21.2269 3.24737 19.6676 2.84681 17.908 2.76098C16.3916 2.67514 14.8894 2.68945 13.373 2.68945C11.8566 2.68945 10.3545 2.67514 8.83808 2.76098C7.07847 2.84681 5.51913 3.24737 4.23161 4.5349C2.94409 5.82242 2.54353 7.38175 2.45769 9.14137C2.37186 10.6578 2.38616 12.1599 2.38616 13.6763C2.38616 15.1927 2.37186 16.6948 2.45769 18.2113C2.54353 19.9709 2.94409 21.5302 4.23161 22.8177C5.51913 24.1052 7.07847 24.5058 8.83808 24.5916C10.3545 24.6775 11.8566 24.6632 13.373 24.6632C14.8894 24.6632 16.3916 24.6775 17.908 24.5916C19.6676 24.5058 21.2269 24.1052 22.5144 22.8177C23.802 21.5302 24.2025 19.9709 24.2884 18.2113C24.3742 16.6948 24.3599 15.1927 24.3599 13.6763Z" fill="white" fill-opacity="0.5"/>
</svg>
