<svg width="90" height="13" viewBox="0 0 90 13" fill="none" xmlns="http://www.w3.org/2000/svg">
<g id="Vector">
<path d="M22.2055 10.5488C24.5593 10.465 26.9131 10.5379 29.2705 10.5306C29.2887 11.15 29.2268 11.7731 29.2523 12.4034C27.7547 12.3889 26.2609 12.3961 24.767 12.3925C24.6795 11.9334 24.5957 11.478 24.5192 11.0261C23.7431 10.8731 22.967 10.7492 22.2055 10.5488Z" fill="url(#paint0_linear_3344_5618)"/>
<path d="M0.974609 0.915191C1.67054 0.911547 2.36647 0.911547 3.06969 0.915191C3.06605 4.11793 3.06605 7.31702 3.07334 10.5161C5.16113 10.5234 7.25256 10.5344 9.34036 10.5307C9.33307 11.1501 9.33308 11.7732 9.33308 12.3999C6.54571 12.3926 3.76198 12.4145 0.974609 12.3926C0.974609 8.56679 0.974609 4.74099 0.974609 0.915191Z" fill="url(#paint1_linear_3344_5618)"/>
<path d="M20.1073 12.3962C20.0891 8.57038 20.1 4.74093 20.1073 0.91148C21.2988 0.91148 22.4902 0.911491 23.6853 0.922422C23.4959 1.76774 23.0113 2.45274 22.2352 2.85354C22.1951 3.73894 22.1915 4.62798 22.1987 5.52067C22.789 5.52796 23.3793 5.50245 23.9732 5.51702C23.9477 6.13644 23.9258 6.75585 23.9076 7.38255C23.3356 7.37891 22.7708 7.37162 22.206 7.37891C22.1988 8.43191 22.155 9.48857 22.206 10.5489C22.9676 10.7493 23.7436 10.8731 24.5197 11.0262C24.5962 11.478 24.68 11.9334 24.7675 12.3925C23.2117 12.3925 21.6595 12.3925 20.1073 12.3962Z" fill="url(#paint2_linear_3344_5618)"/>
<path d="M23.6847 0.922429C25.4883 0.900567 27.2955 0.915138 29.1028 0.918781C29.0991 1.53091 29.1028 2.15396 29.1064 2.77337C26.8146 2.80981 24.5227 2.72966 22.2345 2.85354C23.0106 2.45274 23.4953 1.76775 23.6847 0.922429Z" fill="url(#paint3_linear_3344_5618)"/>
<path d="M39.1453 12.3924C40.8505 8.56299 42.574 4.73719 44.2938 0.911386C44.997 0.907743 45.7075 0.915037 46.418 0.918681C48.1305 4.74448 49.8648 8.56299 51.5773 12.3924C50.8195 12.3888 50.0725 12.3961 49.3219 12.3997C49.005 11.7002 48.6916 10.9969 48.3819 10.301C46.367 10.2828 44.3557 10.3265 42.3408 10.2646C42.0201 10.9714 41.6886 11.6746 41.3679 12.3851C40.6246 12.3924 39.8813 12.3851 39.1453 12.3924ZM45.3358 3.27244C44.5816 4.99223 43.8456 6.72296 43.1023 8.45004C44.5925 8.45368 46.0828 8.45368 47.5767 8.45004C46.837 6.71932 46.1046 4.98859 45.3358 3.27244Z" fill="url(#paint4_linear_3344_5618)"/>
<path d="M58.9264 0.922421C59.6879 0.91149 60.453 0.907847 61.2218 0.90056C62.3514 2.70415 63.4408 4.53689 64.5412 6.36234C65.6634 4.54418 66.7092 2.67863 67.8642 0.882324C68.622 0.900542 69.3836 0.90785 70.1487 0.926068C68.6913 3.3345 67.099 5.67005 65.7035 8.11492C65.4667 9.52136 65.6561 10.9679 65.6051 12.3925C64.8873 12.3925 64.1732 12.3889 63.4627 12.3925C63.419 10.9715 63.5683 9.53957 63.3862 8.12949C62.0089 5.6664 60.3838 3.34178 58.9264 0.922421Z" fill="url(#paint5_linear_3344_5618)"/>
<path d="M77.3851 12.4035C79.1231 8.58132 80.8283 4.74093 82.5481 0.91148C83.255 0.91148 83.9655 0.911488 84.676 0.918775C86.3484 4.64984 88.0719 8.35539 89.6787 12.112L89.7734 12.3707C89.0374 12.3889 88.3051 12.4035 87.5763 12.418C87.2848 11.6966 86.9351 11.0043 86.6472 10.2865C85.0258 10.2974 83.408 10.2902 81.7939 10.2974C81.3676 10.2974 80.9486 10.3011 80.5332 10.3047C80.2198 10.9897 79.9466 11.6966 79.6369 12.3852C78.8863 12.3998 78.1321 12.3853 77.3851 12.4035ZM81.353 8.45378C82.8469 8.45378 84.3408 8.45013 85.8347 8.45013C85.0987 6.71577 84.3335 4.99963 83.6011 3.26527C82.8506 4.99234 82.1 6.72306 81.353 8.45378Z" fill="url(#paint6_linear_3344_5618)"/>
<path d="M23.9726 5.51702C25.4446 5.50609 26.9166 5.51337 28.3886 5.52794C28.385 6.14007 28.385 6.75584 28.3886 7.37526C26.8911 7.38255 25.3972 7.3862 23.907 7.38255C23.9252 6.75585 23.9471 6.13644 23.9726 5.51702Z" fill="url(#paint7_linear_3344_5618)"/>
</g>
<defs>
<linearGradient id="paint0_linear_3344_5618" x1="16.4061" y1="11.6971" x2="71.8384" y2="-0.00814731" gradientUnits="userSpaceOnUse">
<stop stop-color="#A27C2E"/>
<stop offset="0.504166" stop-color="#D5BE6A"/>
<stop offset="1" stop-color="#A27C2E"/>
</linearGradient>
<linearGradient id="paint1_linear_3344_5618" x1="16.4061" y1="11.6971" x2="71.8384" y2="-0.00814731" gradientUnits="userSpaceOnUse">
<stop stop-color="#A27C2E"/>
<stop offset="0.504166" stop-color="#D5BE6A"/>
<stop offset="1" stop-color="#A27C2E"/>
</linearGradient>
<linearGradient id="paint2_linear_3344_5618" x1="16.4061" y1="11.6971" x2="71.8384" y2="-0.00814731" gradientUnits="userSpaceOnUse">
<stop stop-color="#A27C2E"/>
<stop offset="0.504166" stop-color="#D5BE6A"/>
<stop offset="1" stop-color="#A27C2E"/>
</linearGradient>
<linearGradient id="paint3_linear_3344_5618" x1="16.4061" y1="11.6971" x2="71.8384" y2="-0.00814731" gradientUnits="userSpaceOnUse">
<stop stop-color="#A27C2E"/>
<stop offset="0.504166" stop-color="#D5BE6A"/>
<stop offset="1" stop-color="#A27C2E"/>
</linearGradient>
<linearGradient id="paint4_linear_3344_5618" x1="16.4061" y1="11.6971" x2="71.8384" y2="-0.00814731" gradientUnits="userSpaceOnUse">
<stop stop-color="#A27C2E"/>
<stop offset="0.504166" stop-color="#D5BE6A"/>
<stop offset="1" stop-color="#A27C2E"/>
</linearGradient>
<linearGradient id="paint5_linear_3344_5618" x1="16.4061" y1="11.6971" x2="71.8384" y2="-0.00814731" gradientUnits="userSpaceOnUse">
<stop stop-color="#A27C2E"/>
<stop offset="0.504166" stop-color="#D5BE6A"/>
<stop offset="1" stop-color="#A27C2E"/>
</linearGradient>
<linearGradient id="paint6_linear_3344_5618" x1="16.4061" y1="11.6971" x2="71.8384" y2="-0.00814731" gradientUnits="userSpaceOnUse">
<stop stop-color="#A27C2E"/>
<stop offset="0.504166" stop-color="#D5BE6A"/>
<stop offset="1" stop-color="#A27C2E"/>
</linearGradient>
<linearGradient id="paint7_linear_3344_5618" x1="16.4061" y1="11.6971" x2="71.8384" y2="-0.00814731" gradientUnits="userSpaceOnUse">
<stop stop-color="#A27C2E"/>
<stop offset="0.504166" stop-color="#D5BE6A"/>
<stop offset="1" stop-color="#A27C2E"/>
</linearGradient>
</defs>
</svg>
