<svg width="31" height="25" viewBox="0 0 31 25" fill="none" xmlns="http://www.w3.org/2000/svg">
<path d="M2.68434 0.647005C3.5097 0.511777 4.34625 0.667521 5.14736 0.867099C5.17347 1.13009 5.19865 1.39309 5.22103 1.65702C4.47121 1.43039 3.68409 1.28677 2.89977 1.36418C2.84195 1.12077 2.77014 0.88109 2.68434 0.647005Z" fill="url(#paint0_linear_3344_5616)"/>
<path d="M4.34527 10.7994C5.22752 12.1414 6.17598 13.4405 7.17947 14.6939C7.10672 15.0567 7.12817 15.426 7.13097 15.7935C6.21981 14.6939 5.34223 13.5645 4.53086 12.3895C4.50475 11.856 4.4432 11.3244 4.34527 10.7994Z" fill="url(#paint1_linear_3344_5616)"/>
<path d="M26.573 0.817667C27.5065 0.595706 28.5212 0.464211 29.4398 0.819534C30.0442 1.04523 30.5282 1.53857 30.7613 2.13824C30.8145 2.27533 30.8537 2.41802 30.8854 2.56164C30.9479 2.86567 30.9749 3.17623 30.9749 3.48679C30.9162 4.95844 30.3836 6.35829 29.7718 7.68073C28.9614 9.39952 27.9477 11.0139 26.8621 12.5695C26.7483 12.4818 26.5898 12.4137 26.5758 12.2496C26.4872 12.0164 26.698 11.8495 26.8229 11.6863C26.7866 11.6126 26.7539 11.538 26.725 11.4643C27.7929 9.88541 28.773 8.23376 29.493 6.46554C29.9351 5.31657 30.3585 4.08646 30.1813 2.8377C30.0973 2.19513 29.6413 1.60199 28.9959 1.44904C27.8768 1.16553 26.7204 1.5022 25.659 1.86219C25.9025 1.50034 26.2326 1.2075 26.4723 0.842849C26.4975 0.837254 26.5478 0.824195 26.573 0.817667Z" fill="url(#paint2_linear_3344_5616)"/>
<path d="M2.23106 0.764509C2.37934 0.716946 2.53139 0.680579 2.68434 0.647005C2.77014 0.88109 2.84195 1.12077 2.89977 1.36418C2.31036 1.4304 1.71906 1.75214 1.48684 2.32103C1.12965 3.18556 1.30964 4.15547 1.53254 5.03025C2.11915 7.10158 3.1935 8.99477 4.34527 10.7994C4.4432 11.3244 4.50475 11.856 4.53086 12.3895C3.29982 10.6119 2.15925 8.75509 1.33575 6.74998C0.867585 5.56744 0.47216 4.30562 0.558893 3.01862C0.608321 2.16808 1.05597 1.31941 1.83377 0.923984C1.96247 0.863364 2.09583 0.810206 2.23106 0.764509Z" fill="url(#paint3_linear_3344_5616)"/>
<path d="M5.14726 0.867101C5.76931 1.02844 6.3699 1.25693 6.96397 1.50034C7.06283 1.77266 7.09641 2.0627 7.05537 2.35088C6.45943 2.08136 5.84671 1.8482 5.22093 1.65702C5.19855 1.39309 5.17337 1.1301 5.14726 0.867101Z" fill="url(#paint4_linear_3344_5616)"/>
<path d="M21.4923 3.08298C23.0638 2.16343 24.6977 1.29611 26.4724 0.84286C26.2328 1.20751 25.9026 1.50035 25.6592 1.8622C24.2183 2.39472 22.8521 3.11003 21.5455 3.91394C21.5212 3.63695 21.5044 3.35997 21.4923 3.08298Z" fill="url(#paint5_linear_3344_5616)"/>
<path d="M6.96409 1.50033C7.61225 1.77638 8.24363 2.09067 8.86475 2.42455C8.86102 2.70246 8.85728 2.98131 8.85355 3.26016C8.26788 2.93188 7.66635 2.63065 7.05549 2.35087C7.09652 2.06269 7.06295 1.77265 6.96409 1.50033Z" fill="url(#paint6_linear_3344_5616)"/>
<path d="M8.85363 3.26017C8.85736 2.98132 8.86109 2.70247 8.86482 2.42455C11.3194 3.75911 13.5931 5.40703 15.7447 7.18365C15.5414 7.33566 15.353 7.50539 15.1683 7.67793C13.1931 6.03188 11.0938 4.52571 8.85363 3.26017Z" fill="url(#paint7_linear_3344_5616)"/>
<path d="M8.81343 13.8667C10.6954 11.7945 12.6865 9.81827 14.8138 7.99782C14.7523 8.19926 14.6851 8.39977 14.6161 8.60028C14.6926 8.71499 14.7672 8.8297 14.8455 8.94535C12.9262 10.6362 11.1039 12.437 9.39164 14.3377C9.29185 14.0756 9.12119 13.8527 8.81343 13.8667Z" fill="url(#paint8_linear_3344_5616)"/>
<path d="M10.659 18.6519C12.2761 20.3399 13.9716 21.9534 15.7594 23.4595C16.0635 23.2002 16.3656 22.9391 16.665 22.6743C16.6491 22.9811 16.6771 23.2888 16.7415 23.5901C16.6081 23.7085 16.471 23.8232 16.3376 23.9417C16.6426 24.1935 16.9504 24.4425 17.26 24.6896C16.7508 24.6523 16.1511 24.8454 15.7436 24.4415C15.6382 24.5236 15.5337 24.6075 15.4302 24.6915C15.0395 24.6905 14.6496 24.6906 14.2598 24.6887C14.5676 24.4397 14.8744 24.1916 15.1803 23.9407C13.6182 22.6146 12.1232 21.211 10.6898 19.7477C10.6609 19.3831 10.6534 19.0175 10.659 18.6519Z" fill="url(#paint9_linear_3344_5616)"/>
<path d="M18.0565 5.39118C19.1663 4.57141 20.3041 3.78709 21.4922 3.08297C21.5043 3.35996 21.5211 3.63694 21.5454 3.91393C20.4151 4.61431 19.3164 5.36413 18.2542 6.16431C18.174 5.90971 18.1059 5.65231 18.0565 5.39118Z" fill="url(#paint10_linear_3344_5616)"/>
<path d="M15.7445 7.18365C16.5185 6.59145 17.2646 5.961 18.0564 5.39118C18.1058 5.65231 18.1739 5.90971 18.2541 6.16431C17.6059 6.65766 16.9634 7.15847 16.3348 7.67607C16.9214 8.17968 17.5052 8.68702 18.0741 9.21021C17.9184 9.40233 17.7626 9.59351 17.6069 9.78563C17.0007 9.23259 16.3842 8.69075 15.7603 8.15823C15.4507 8.41563 15.1467 8.67862 14.8454 8.94535C14.7671 8.8297 14.6925 8.71499 14.616 8.60028C14.685 8.39977 14.7522 8.19926 14.8137 7.99782C14.934 7.89337 15.0497 7.78518 15.1681 7.67793C15.3528 7.5054 15.5412 7.33567 15.7445 7.18365Z" fill="url(#paint11_linear_3344_5616)"/>
<path d="M18.0743 9.21021C18.8558 9.92552 19.6224 10.6576 20.3685 11.4093C20.1931 11.5977 20.0504 11.814 19.973 12.0603C19.2008 11.2843 18.4147 10.5233 17.607 9.78562C17.7628 9.59351 17.9185 9.40232 18.0743 9.21021Z" fill="url(#paint12_linear_3344_5616)"/>
<path d="M19.9729 12.0603C20.0503 11.814 20.193 11.5977 20.3683 11.4093C21.5499 12.5974 22.6915 13.8248 23.7789 15.0987C23.6073 15.2778 23.4357 15.4568 23.265 15.6359C22.2093 14.4067 21.1144 13.2092 19.9729 12.0603Z" fill="url(#paint13_linear_3344_5616)"/>
<path d="M26.7251 11.4643C26.754 11.538 26.7866 11.6126 26.823 11.6863C26.6981 11.8495 26.4873 12.0164 26.5759 12.2496C26.5899 12.4137 26.7484 12.4818 26.8622 12.5695C26.0788 13.683 25.2432 14.7592 24.3759 15.8084C25.1266 16.7224 25.8596 17.6512 26.5479 18.6128C26.3707 18.8384 26.2457 19.0996 26.187 19.3812C25.4614 18.3526 24.6901 17.3575 23.8928 16.3848C23.7249 16.5778 23.558 16.7718 23.391 16.9658C23.281 16.6739 23.2334 16.3642 23.1998 16.0565C23.2689 15.9744 23.3369 15.8914 23.4031 15.8075C23.3686 15.7646 23.2996 15.6788 23.2651 15.6359C23.4358 15.4568 23.6074 15.2777 23.779 15.0987C23.807 15.1332 23.8648 15.2003 23.8928 15.2339C24.8916 14.0197 25.841 12.7634 26.7251 11.4643Z" fill="url(#paint14_linear_3344_5616)"/>
<path d="M8.00759 14.7835C8.27245 14.4748 8.54476 14.1726 8.81335 13.8667C9.12111 13.8527 9.29178 14.0756 9.39157 14.3377C9.12671 14.6277 8.86651 14.9243 8.60911 15.2208C8.44311 15.0315 8.22768 14.8982 8.00759 14.7835Z" fill="url(#paint15_linear_3344_5616)"/>
<path d="M7.17941 14.6939C7.32676 14.873 7.47598 15.0511 7.62519 15.2302C7.75296 15.0819 7.87795 14.9308 8.00759 14.7835C8.22768 14.8982 8.44311 15.0315 8.60911 15.2208C8.43845 15.4148 8.27149 15.6116 8.10456 15.8084C8.39833 16.1572 8.69769 16.5032 8.99706 16.8492C8.93924 17.2185 9.01291 17.5916 9.01198 17.9627C8.54101 17.4451 8.07658 16.921 7.62426 16.3876C7.60654 16.409 7.5711 16.4519 7.55338 16.4734C7.36593 16.3129 7.17754 16.1525 6.98822 15.9949C7.03765 15.9287 7.08708 15.8625 7.13091 15.7935C7.12812 15.426 7.10667 15.0567 7.17941 14.6939Z" fill="url(#paint16_linear_3344_5616)"/>
<path d="M5.70511 17.6158C6.11825 17.0637 6.55378 16.5293 6.98838 15.9949C7.1777 16.1525 7.36608 16.313 7.55354 16.4734C7.09842 17.0143 6.66849 17.5776 6.2367 18.1381C6.19753 18.0224 6.16022 17.9077 6.12571 17.793C5.98489 17.7333 5.84407 17.6746 5.70511 17.6158Z" fill="url(#paint17_linear_3344_5616)"/>
<path d="M20.056 19.4754C21.1434 18.3731 22.1916 17.2316 23.1998 16.0565C23.2333 16.3642 23.2809 16.6739 23.391 16.9658C22.3707 18.1502 21.2917 19.2814 20.1893 20.3894C20.0895 20.3511 19.9916 20.3148 19.8937 20.2793C19.9543 20.0126 20.0103 19.7449 20.056 19.4754Z" fill="url(#paint18_linear_3344_5616)"/>
<path d="M9.01207 17.9627C9.01301 17.5916 8.93933 17.2185 8.99715 16.8492C9.54832 17.4526 10.0939 18.0607 10.6591 18.6519C10.6535 19.0175 10.6609 19.3831 10.6898 19.7478C10.1209 19.1611 9.55672 18.5717 9.01207 17.9627Z" fill="url(#paint19_linear_3344_5616)"/>
<path d="M4.13169 19.8093C4.6297 19.0595 5.16315 18.3339 5.705 17.6158C5.84395 17.6746 5.98478 17.7333 6.1256 17.793C6.16011 17.9077 6.19741 18.0224 6.23658 18.1381C5.61267 18.9569 5.0214 19.8 4.45344 20.6589C4.34992 20.3735 4.2436 20.091 4.13169 19.8093Z" fill="url(#paint20_linear_3344_5616)"/>
<path d="M26.5479 18.6128C27.9188 20.5209 29.1853 22.5232 30.1077 24.6905C29.8381 24.6905 29.5686 24.6915 29.301 24.6905C28.4653 22.8104 27.3751 21.0553 26.187 19.3812C26.2457 19.0996 26.3707 18.8384 26.5479 18.6128Z" fill="url(#paint21_linear_3344_5616)"/>
<path d="M16.6649 22.6743C17.8391 21.6549 18.9573 20.574 20.0559 19.4754C20.0102 19.7449 19.9542 20.0126 19.8936 20.2793C19.9915 20.3148 20.0894 20.3511 20.1892 20.3894C19.0804 21.4982 17.9286 22.5651 16.7414 23.5901C16.677 23.2888 16.649 22.9811 16.6649 22.6743Z" fill="url(#paint22_linear_3344_5616)"/>
<path d="M1.40561 24.6924C2.13397 22.9718 3.0927 21.3593 4.13162 19.8093C4.24353 20.0909 4.34985 20.3735 4.45337 20.6589C3.61029 21.944 2.83623 23.2805 2.21884 24.6896C1.94745 24.6915 1.67606 24.6915 1.40561 24.6924Z" fill="url(#paint23_linear_3344_5616)"/>
<defs>
<linearGradient id="paint0_linear_3344_5616" x1="5.83467" y1="23.1971" x2="25.6525" y2="22.511" gradientUnits="userSpaceOnUse">
<stop stop-color="#A27C2E"/>
<stop offset="0.504166" stop-color="#D5BE6A"/>
<stop offset="1" stop-color="#A27C2E"/>
</linearGradient>
<linearGradient id="paint1_linear_3344_5616" x1="5.83467" y1="23.1971" x2="25.6525" y2="22.511" gradientUnits="userSpaceOnUse">
<stop stop-color="#A27C2E"/>
<stop offset="0.504166" stop-color="#D5BE6A"/>
<stop offset="1" stop-color="#A27C2E"/>
</linearGradient>
<linearGradient id="paint2_linear_3344_5616" x1="5.83467" y1="23.1971" x2="25.6525" y2="22.511" gradientUnits="userSpaceOnUse">
<stop stop-color="#A27C2E"/>
<stop offset="0.504166" stop-color="#D5BE6A"/>
<stop offset="1" stop-color="#A27C2E"/>
</linearGradient>
<linearGradient id="paint3_linear_3344_5616" x1="5.83467" y1="23.1971" x2="25.6525" y2="22.511" gradientUnits="userSpaceOnUse">
<stop stop-color="#A27C2E"/>
<stop offset="0.504166" stop-color="#D5BE6A"/>
<stop offset="1" stop-color="#A27C2E"/>
</linearGradient>
<linearGradient id="paint4_linear_3344_5616" x1="5.83467" y1="23.1971" x2="25.6525" y2="22.511" gradientUnits="userSpaceOnUse">
<stop stop-color="#A27C2E"/>
<stop offset="0.504166" stop-color="#D5BE6A"/>
<stop offset="1" stop-color="#A27C2E"/>
</linearGradient>
<linearGradient id="paint5_linear_3344_5616" x1="5.83467" y1="23.1971" x2="25.6525" y2="22.511" gradientUnits="userSpaceOnUse">
<stop stop-color="#A27C2E"/>
<stop offset="0.504166" stop-color="#D5BE6A"/>
<stop offset="1" stop-color="#A27C2E"/>
</linearGradient>
<linearGradient id="paint6_linear_3344_5616" x1="5.83467" y1="23.1971" x2="25.6525" y2="22.511" gradientUnits="userSpaceOnUse">
<stop stop-color="#A27C2E"/>
<stop offset="0.504166" stop-color="#D5BE6A"/>
<stop offset="1" stop-color="#A27C2E"/>
</linearGradient>
<linearGradient id="paint7_linear_3344_5616" x1="5.83467" y1="23.1971" x2="25.6525" y2="22.511" gradientUnits="userSpaceOnUse">
<stop stop-color="#A27C2E"/>
<stop offset="0.504166" stop-color="#D5BE6A"/>
<stop offset="1" stop-color="#A27C2E"/>
</linearGradient>
<linearGradient id="paint8_linear_3344_5616" x1="5.83467" y1="23.1971" x2="25.6525" y2="22.511" gradientUnits="userSpaceOnUse">
<stop stop-color="#A27C2E"/>
<stop offset="0.504166" stop-color="#D5BE6A"/>
<stop offset="1" stop-color="#A27C2E"/>
</linearGradient>
<linearGradient id="paint9_linear_3344_5616" x1="5.83467" y1="23.1971" x2="25.6525" y2="22.511" gradientUnits="userSpaceOnUse">
<stop stop-color="#A27C2E"/>
<stop offset="0.504166" stop-color="#D5BE6A"/>
<stop offset="1" stop-color="#A27C2E"/>
</linearGradient>
<linearGradient id="paint10_linear_3344_5616" x1="5.83467" y1="23.1971" x2="25.6525" y2="22.511" gradientUnits="userSpaceOnUse">
<stop stop-color="#A27C2E"/>
<stop offset="0.504166" stop-color="#D5BE6A"/>
<stop offset="1" stop-color="#A27C2E"/>
</linearGradient>
<linearGradient id="paint11_linear_3344_5616" x1="5.83467" y1="23.1971" x2="25.6525" y2="22.511" gradientUnits="userSpaceOnUse">
<stop stop-color="#A27C2E"/>
<stop offset="0.504166" stop-color="#D5BE6A"/>
<stop offset="1" stop-color="#A27C2E"/>
</linearGradient>
<linearGradient id="paint12_linear_3344_5616" x1="5.83467" y1="23.1971" x2="25.6525" y2="22.511" gradientUnits="userSpaceOnUse">
<stop stop-color="#A27C2E"/>
<stop offset="0.504166" stop-color="#D5BE6A"/>
<stop offset="1" stop-color="#A27C2E"/>
</linearGradient>
<linearGradient id="paint13_linear_3344_5616" x1="5.83467" y1="23.1971" x2="25.6525" y2="22.511" gradientUnits="userSpaceOnUse">
<stop stop-color="#A27C2E"/>
<stop offset="0.504166" stop-color="#D5BE6A"/>
<stop offset="1" stop-color="#A27C2E"/>
</linearGradient>
<linearGradient id="paint14_linear_3344_5616" x1="5.83467" y1="23.1971" x2="25.6525" y2="22.511" gradientUnits="userSpaceOnUse">
<stop stop-color="#A27C2E"/>
<stop offset="0.504166" stop-color="#D5BE6A"/>
<stop offset="1" stop-color="#A27C2E"/>
</linearGradient>
<linearGradient id="paint15_linear_3344_5616" x1="5.83467" y1="23.1971" x2="25.6525" y2="22.511" gradientUnits="userSpaceOnUse">
<stop stop-color="#A27C2E"/>
<stop offset="0.504166" stop-color="#D5BE6A"/>
<stop offset="1" stop-color="#A27C2E"/>
</linearGradient>
<linearGradient id="paint16_linear_3344_5616" x1="5.83467" y1="23.1971" x2="25.6525" y2="22.511" gradientUnits="userSpaceOnUse">
<stop stop-color="#A27C2E"/>
<stop offset="0.504166" stop-color="#D5BE6A"/>
<stop offset="1" stop-color="#A27C2E"/>
</linearGradient>
<linearGradient id="paint17_linear_3344_5616" x1="5.83467" y1="23.1971" x2="25.6525" y2="22.511" gradientUnits="userSpaceOnUse">
<stop stop-color="#A27C2E"/>
<stop offset="0.504166" stop-color="#D5BE6A"/>
<stop offset="1" stop-color="#A27C2E"/>
</linearGradient>
<linearGradient id="paint18_linear_3344_5616" x1="5.83467" y1="23.1971" x2="25.6525" y2="22.511" gradientUnits="userSpaceOnUse">
<stop stop-color="#A27C2E"/>
<stop offset="0.504166" stop-color="#D5BE6A"/>
<stop offset="1" stop-color="#A27C2E"/>
</linearGradient>
<linearGradient id="paint19_linear_3344_5616" x1="5.83467" y1="23.1971" x2="25.6525" y2="22.511" gradientUnits="userSpaceOnUse">
<stop stop-color="#A27C2E"/>
<stop offset="0.504166" stop-color="#D5BE6A"/>
<stop offset="1" stop-color="#A27C2E"/>
</linearGradient>
<linearGradient id="paint20_linear_3344_5616" x1="5.83467" y1="23.1971" x2="25.6525" y2="22.511" gradientUnits="userSpaceOnUse">
<stop stop-color="#A27C2E"/>
<stop offset="0.504166" stop-color="#D5BE6A"/>
<stop offset="1" stop-color="#A27C2E"/>
</linearGradient>
<linearGradient id="paint21_linear_3344_5616" x1="5.83467" y1="23.1971" x2="25.6525" y2="22.511" gradientUnits="userSpaceOnUse">
<stop stop-color="#A27C2E"/>
<stop offset="0.504166" stop-color="#D5BE6A"/>
<stop offset="1" stop-color="#A27C2E"/>
</linearGradient>
<linearGradient id="paint22_linear_3344_5616" x1="5.83467" y1="23.1971" x2="25.6525" y2="22.511" gradientUnits="userSpaceOnUse">
<stop stop-color="#A27C2E"/>
<stop offset="0.504166" stop-color="#D5BE6A"/>
<stop offset="1" stop-color="#A27C2E"/>
</linearGradient>
<linearGradient id="paint23_linear_3344_5616" x1="5.83467" y1="23.1971" x2="25.6525" y2="22.511" gradientUnits="userSpaceOnUse">
<stop stop-color="#A27C2E"/>
<stop offset="0.504166" stop-color="#D5BE6A"/>
<stop offset="1" stop-color="#A27C2E"/>
</linearGradient>
</defs>
</svg>
