<svg width="281" height="270" viewBox="0 0 281 270" fill="none" xmlns="http://www.w3.org/2000/svg">
<g opacity="0.5" filter="url(#filter0_f_100_1422)">
<path d="M97.1986 115.773C104.259 108.048 114.243 103.647 124.71 103.647H185.046C205.63 103.647 222.316 120.333 222.316 140.917V140.917C222.316 161.5 205.63 178.187 185.046 178.187H124.709C92.3071 178.187 75.3389 139.692 97.1986 115.773V115.773Z" fill="#FFA503"/>
</g>
<path d="M113.194 95.0316C114.96 93.1002 117.455 92 120.072 92H220.682C225.828 92 230 96.1716 230 101.317L230 157.222C230 162.368 225.828 166.54 220.682 166.54H68.9785C60.8779 166.54 56.6359 156.916 62.1008 150.936L113.194 95.0316Z" fill="#B18F40"/>
<path d="M149.367 142.705L145.392 138.73" stroke="white" stroke-width="2.81027" stroke-linecap="round" stroke-linejoin="round"/>
<path d="M172.119 114.735C167.872 114.263 152.434 113.928 147.379 132.769L155.328 140.718C174.032 135.526 173.796 120.213 173.361 115.977C173.333 115.658 173.193 115.358 172.966 115.131C172.739 114.904 172.439 114.764 172.119 114.735Z" stroke="white" stroke-width="2.81027" stroke-linecap="round" stroke-linejoin="round"/>
<path d="M154.645 120.014L146.075 120.784C145.862 120.8 145.657 120.867 145.475 120.98C145.294 121.092 145.142 121.246 145.032 121.43L139.642 129.875C139.514 130.076 139.44 130.307 139.426 130.545C139.412 130.783 139.459 131.02 139.562 131.235C139.665 131.45 139.821 131.635 140.015 131.773C140.21 131.911 140.436 131.997 140.673 132.024L147.379 132.769" stroke="white" stroke-width="2.81027" stroke-linecap="round" stroke-linejoin="round"/>
<path d="M168.108 133.278L167.313 142.022C167.297 142.235 167.229 142.44 167.117 142.622C167.005 142.803 166.85 142.955 166.667 143.065L158.222 148.455C158.02 148.583 157.79 148.657 157.552 148.671C157.314 148.685 157.076 148.638 156.862 148.535C156.647 148.432 156.462 148.276 156.324 148.082C156.186 147.887 156.099 147.661 156.073 147.424L155.328 140.718" stroke="white" stroke-width="2.81027" stroke-linecap="round" stroke-linejoin="round"/>
<path d="M161.786 126.311C162.609 127.134 163.944 127.134 164.767 126.311C165.59 125.488 165.59 124.153 164.767 123.33C163.944 122.507 162.609 122.507 161.786 123.33C160.963 124.153 160.963 125.488 161.786 126.311Z" fill="white"/>
<defs>
<filter id="filter0_f_100_1422" x="29.1321" y="45.4128" width="251.418" height="191.008" filterUnits="userSpaceOnUse" color-interpolation-filters="sRGB">
<feFlood flood-opacity="0" result="BackgroundImageFix"/>
<feBlend mode="normal" in="SourceGraphic" in2="BackgroundImageFix" result="shape"/>
<feGaussianBlur stdDeviation="29.1171" result="effect1_foregroundBlur_100_1422"/>
</filter>
</defs>
</svg>
