<svg width="27" height="27" viewBox="0 0 27 27" fill="none" xmlns="http://www.w3.org/2000/svg">
<path d="M20.9437 9.58485C20.5431 10.2 20.0281 10.7293 19.4416 11.1442C19.4559 11.2729 19.4559 11.4017 19.4559 11.5304C19.4559 15.5075 16.4231 20.0853 10.901 20.0853C9.19862 20.0853 7.62498 19.5846 6.29454 18.7406C6.52344 18.7692 6.76664 18.7835 7.00983 18.7835C8.42611 18.7835 9.71363 18.2971 10.7437 17.496C9.42752 17.4674 8.32597 16.5947 7.93971 15.4073C8.12569 15.4359 8.31166 15.4645 8.49764 15.4645C8.76945 15.4645 8.96973 15.4216 9.22724 15.3501C7.85388 15.0783 6.75233 13.8623 6.75233 12.4031C6.75233 12.3888 6.75233 12.3745 6.75233 12.3745C7.21012 12.5891 7.68221 12.7321 8.18291 12.7464C7.36748 12.2028 6.88108 11.2872 6.88108 10.2429C6.88108 9.69929 7.03845 9.16998 7.29595 8.7265C8.78375 10.5576 11.0012 11.745 13.5047 11.8738C13.4475 11.6592 13.4331 11.416 13.4331 11.1871C13.4331 9.52762 14.7779 8.18288 16.4374 8.18288C17.2957 8.18288 18.0825 8.54052 18.6262 9.12706C19.3128 8.99831 19.9566 8.7408 20.5431 8.39746C20.3142 9.09845 19.8421 9.69929 19.2127 10.0712C19.8278 9.98541 20.4001 9.82805 20.9437 9.58485ZM24.606 6.80952C24.606 4.5349 22.7605 2.68945 20.4859 2.68945H6.75233C4.47771 2.68945 2.63226 4.5349 2.63226 6.80952V20.5431C2.63226 22.8177 4.47771 24.6632 6.75233 24.6632H20.4859C22.7605 24.6632 24.606 22.8177 24.606 20.5431V6.80952Z" fill="white" fill-opacity="0.5"/>
</svg>
